/* XPM */
static char *b_[] = {
/* columns rows colors chars-per-pixel */
"40 40 80 1",
"  c #030202",
". c #0D0C0C",
"X c #100E0F",
"o c #110F10",
"O c #151314",
"+ c #191718",
"@ c #1C1B1C",
"# c #201E1F",
"$ c #211F20",
"% c #242424",
"& c #282627",
"* c #2B2B2B",
"= c #302E2F",
"- c #312F30",
"; c #353434",
": c #393738",
"> c #3C3B3B",
", c #403E3F",
"< c #413F40",
"1 c #444344",
"2 c #484647",
"3 c #4B4B4B",
"4 c #504E4F",
"5 c #514F50",
"6 c #545353",
"7 c #585657",
"8 c #595758",
"9 c #5C5B5C",
"0 c #605E5F",
"q c #646363",
"w c #686667",
"e c #6B6B6B",
"r c #716F70",
"t c #737373",
"y c #787677",
"u c #797778",
"i c #7D7C7C",
"p c #807E7F",
"a c #848384",
"s c #898788",
"d c #8C8C8C",
"f c #908E8F",
"g c #949394",
"h c #989697",
"j c #999798",
"k c #9C9C9C",
"l c #A09E9F",
"z c #A19FA0",
"x c #A4A3A3",
"c c #A8A6A7",
"v c #A9A7A8",
"b c #ACABAC",
"n c #B0AEAF",
"m c #B1AFB0",
"M c #B4B4B4",
"N c #B8B6B7",
"B c #B9B7B8",
"V c #BBBBBB",
"C c #C0BEBF",
"Z c #C1BFC0",
"A c #C4C3C3",
"S c #C8C6C7",
"D c #C9C7C8",
"F c #CCCBCC",
"G c #D0CECF",
"H c #D1CFD0",
"J c #D4D3D4",
"K c #D8D6D7",
"L c #D9D7D8",
"P c #DCDCDC",
"I c #E0DEDF",
"U c #E1DFE0",
"Y c #E4E3E4",
"T c #E8E6E7",
"R c #ECECEC",
"E c #F0EEEF",
"W c #F1EFF0",
"Q c #F4F3F3",
"! c #F8F6F7",
"~ c #FCFCFC",
/* pixels */
"        ...ooO+++@$$%%***;;>>111336707;O",
"XXo+@##%%&**--;:><1336699qqqeeetuuiai0;X",
";:>>,222457800wweetyiiasdddgggkkkzxcge;O",
"8qeeertyippssffhhhjkkzxxxbbbMMMVNVBbhe>+",
"0pffhhkllzxvvnnMMMVVVVCCAAADFFFJJJDMge<@",
"8aznNNNBVVZZZAADDFFFGHJJJPPPPPYYRYJMgt1@",
"5avCDHFGJJLLLLPPPIYYYYRRRRRQRQRQRYFMku1#",
"3pzBJUUTTTTRRRWRWQQQQ!!!!!!~!!!!!YFVxu1%",
"4ylBHYQ!!Q!!~!~~~~~~~~~~~~~~~~~~!YJVxi3%",
"2rkNFYQ!~~~~~~~~~~~~~~~~~~!!!~~~QYJVxa6*",
"1ehMFYQ!~~~~~!!~!!QQQQQQRRRRRQ~~!RJVxa6*",
">egnDUQ~~!QWQRRYTTYYYIUPULJJUR~~!RLAca9=",
">wgmDUQ~~!TPLJJJGFFDAAACAMMAKR~~!RPAxd9-",
">wgbDPR~~~TJZMMBmmbbcxxlkkxNJW~~!RPAbdq;",
";qfbAPR!~~RJMlgggdddsaaatigMJR~~!QPAbgq>",
";9dvAPR!~~RLVkireeewq9999rgNJR!~!QYFbgq>",
"-9scZLE!~!RPVki9522111>>3egbJRQ~~RIFmge>",
"*8sxZLR!~!QPVxi9>**%%%%*3egbFYQ~~QIFMgt>",
"&7pzCKT!~~QPAxa9>%O...O%3edbFYQ~~QYGMkt1",
"$5pzVHY!~~QPAxa9>#..  .*1qdcDYQ~~QUHBky3",
"&5ulVHT!~~QYAbsq1%.   .*1qscDYQ~~QYJMki3",
"$2ykVHY!~~QYFbdq3%..  .%>0axAYQ~~QYHVxi5",
"$<rjMFYQ~~QYFndw1%O...X@>0akAIQ~~QTKVxa6",
"#<rhMFIQ~~QTFnge3*$#%*%;>9alZPW~~QRPCxa6",
"+,ehmGUW~~QYHMdt11>>122229ikVPR!~!RKCcs9",
"+:efnZUW~~~RJBgt9999qweeerijVPQ!~~RPZbd9",
"O;wfnZUE~~~RLBgiiipaadffgggzVJR!~~WPAbd0",
"o;qdvZIR~~~RJVxgkxxccbbbMMMVCJR!~~RIAmgq",
"X=0svZUE~~~QJCMNVAAASSFFGJLKJPR!~~WISmgw",
"X*0szZIRQ~~RIJHKPPPPUYYRYRWRRQQ!~~WISmhe",
".&7pzCJU~~~QRRRWRRQQQQ!!!!~~~~!~~~QYFMkr",
"X$7pzCIUQ~~QQ~~~~~~~~~~~~~~~~~~~~~QYFNkt",
".&5plCGT!~~~~~~~~~~~~~~~~~~Q!!!!QRQYFNku",
" $2ylNDI!!~~~~~~QQQQQQQQRQRRRRYYRYYYGVly",
" $<ylMGTEWQWWRRRRRRYYYYUIIPPJJJJJFJJFCzp",
" $<rjBGUTTYYUPPLPPJJJHGFDSAAAAAVVMMMMmzs",
" #,whnZJHGFDDAAACVVVVMMMMbbbbxxxlkjjggfa",
" +,ehnCZVNMMmbbbbxxkkkjggggddaaiiuyreeqq",
" O:wfzzlkkkggffdaaaiiutreqq999663221,>;;",
" O:0asppyteeeqq999643311>>:;=**%&%@@@+OO"
};
