/* XPM */
static char *b_[] = {
/* columns rows colors chars-per-pixel */
"40 40 113 2",
"   c black",
".  c #010101",
"X  c #020202",
"o  c gray1",
"O  c #040404",
"+  c gray2",
"@  c #060606",
"#  c #070707",
"$  c gray3",
"%  c #090909",
"&  c gray4",
"*  c #0B0B0B",
"=  c #0C0C0C",
"-  c gray5",
";  c #0E0E0E",
":  c gray6",
">  c #101010",
",  c #111111",
"<  c gray7",
"1  c gray8",
"2  c #191919",
"3  c gray13",
"4  c #232323",
"5  c gray14",
"6  c #282828",
"7  c gray17",
"8  c gray18",
"9  c #3C3C3C",
"0  c gray27",
"q  c #464646",
"w  c #484848",
"e  c #494949",
"r  c gray29",
"t  c #4B4B4B",
"y  c #4E4E4E",
"u  c gray31",
"i  c #505050",
"p  c #515151",
"a  c #535353",
"s  c #555555",
"d  c #5A5A5A",
"f  c gray36",
"g  c #5D5D5D",
"h  c gray37",
"j  c #5F5F5F",
"k  c #606060",
"l  c gray38",
"z  c gray39",
"x  c #646464",
"c  c #656565",
"v  c #676767",
"b  c DimGray",
"n  c #6A6A6A",
"m  c #6C6C6C",
"M  c gray44",
"N  c #717171",
"B  c #727272",
"V  c gray45",
"C  c #747474",
"Z  c gray46",
"A  c #767676",
"S  c #777777",
"D  c #7B7B7B",
"F  c #7C7C7C",
"G  c gray49",
"H  c #848484",
"J  c gray52",
"K  c #9B9B9B",
"L  c #9D9D9D",
"P  c gray62",
"I  c #9F9F9F",
"U  c gray63",
"Y  c #A4A4A4",
"T  c #A7A7A7",
"R  c gray66",
"E  c #AAAAAA",
"W  c gray67",
"Q  c #AEAEAE",
"!  c gray69",
"~  c #B6B6B6",
"^  c #BCBCBC",
"/  c gray75",
"(  c gray78",
")  c gray79",
"_  c #CACACA",
"`  c #CBCBCB",
"'  c #CDCDCD",
"]  c #D2D2D2",
"[  c LightGray",
"{  c gray83",
"}  c #D7D7D7",
"|  c #D8D8D8",
" . c gainsboro",
".. c #DDDDDD",
"X. c gray87",
"o. c #ECECEC",
"O. c gray93",
"+. c gray94",
"@. c #F1F1F1",
"#. c gray95",
"$. c #F3F3F3",
"%. c #F4F4F4",
"&. c gray96",
"*. c #F6F6F6",
"=. c gray97",
"-. c #F8F8F8",
";. c #F9F9F9",
":. c gray98",
">. c #FBFBFB",
",. c gray99",
"<. c #FDFDFD",
"1. c #FEFEFE",
"2. c gray100",
/* pixels */
"          >.2.2.2.>.2.e   O O         O   O O     a 2.2.2.>.2.2.          2.2.2.",
"O     - >.2.O.2.2.h   O   O                 O         d 2.2.2.2.2.-     O   2.2.",
"  O   2.>.2.2.&.  - %   O         a Z e <       O   %     &.2.>.2.2.    O     2.",
"    2.2.2.>.#.% -         ! 2.>.2.>.2.>.#.2.>.E   %     -   2.2.2.>.2.        X.",
"  2.2.>.>.2.O         ] >.2.&.2.2.>.>.2.2.>.2.2.2.)   O   %   2.2.>.2.>.        ",
"v #.2.2.2.        - &.>.2.2.2.>.>.2.2.2.2.2.2.2.2.2.>.          &.2.>.&.m   %   ",
"2.2.&.2.  %       2.2.2.2.2.2.Z O         D &.2.>.>.2.&.-       O >.2.2.2.  O   ",
"2.2.2.h         2.>.2.>.2.%   O   O         O % 2.2.&.2.2.O       z 2.2.2.T     ",
"2.2.2.  %   O >.2.2.2.2.  %   %             O   O 2.2.2.&.2.        2.2.&.2.    ",
"2.2.u O   O / 2.>.>.>.O     O       9   % O   O     2.2.2.&.) O   % e 2.2.#.5   ",
">.2.    O O 2.>.2.2.          2.2.2.#.2.2.>.  O   O   2.2.2.2.      % #.2.2.>.  ",
"2.&.O   O L 2.2.2.O O O     2.>.2.2.2.2.2.>.2.      O   2.2.#.~   O   2.2.2.2.  ",
"2.s       2.>.2.>.O       2.2.>.2.&.2.&.2.2.#.2.  O     2.>.2.&.      a >.>.2.  ",
"2.    O   >.2.2.F     - 2.2.>.2.2.%   % &.>.2.&.>.-     F &.2.2.O     O 2.2.2.- ",
">.%     O 2.2.&.  % O   2.&.2.>.        % 2.&.2.2.        2.>.2.        2.2.2.b ",
"2.  O   u 2.>.2.O     % 2.2.>.O     %       2.>.2.O       2.2.>.a O   % 2.&.2.L ",
"2.%   O b 2.2.2.O O   6 2.2.>.O     O   O   2.2.2.6 O   % 2.#.2.N   O   2.2.>./ ",
"2.  -   a &.2.2.    O O 2.&.2.  O O         2.2.>.-   O   >.2.&.s   %   2.2.2.L ",
">.      % 2.2.2.%       2.2.2.>.      O   2.2.&.>.    %   2.2.2.O     < #.2.2.N ",
"2.        >.&.2.Z   -   >.2.>.2.>.-     2.2.2.2.2.O     Z 2.>.2.        2.2.2.% ",
"2.u       2.2.>.2.    O   2.2.>.2.>.&.2.2.>.2.2.    %   2.2.2.2.O     e 2.2.2.  ",
"2.&.O     T 2.2.2.-   %     &.2.>.>.2.2.&.2.&.  O     % 2.2.2.E     O 2.2.&.2.  ",
">.2.%   % O #.2.2.2.    %     2.2.2.>.>.2.&.-     O   2.&.2.>.  O   O 2.2.2.&.  ",
"2.2.e %     ] &.2.2.2.              8     O   O O   2.2.2.2.)       q 2.2.&.4   ",
"2.2.2.    O   2.2.>.2.2.  O   O               O % #.2.>.2.>.        2.2.>.2.    ",
">.2.2.z       % 2.2.O.2.2.O       O     O % %   &.2.&.2.>.        b &.2.2.T     ",
"2.O.2.#.%   -   % >.2.2.&.2.2.D         % N o.2.2.>.2.2.      O % #.>.2.>.  O   ",
"z 2.&.2.2.    O   O >.2.2.>.2.2.2.2.2.>.>.2.2.>.2.2.2.  < %     >.>.2.>.m     % ",
"  2.2.2.>.2.      O O ' 2.2.&.2.>.2.2.2.2.2.2.2.>.)   %     O 2.2.2.>.>.        ",
"    2.>.>.2.2.O O       O Q 2.2.2.&.2.2.&.2.>.E %       %   >.2.&.2.>.O O     | ",
"      2.2.>.2.2.    O       O     a N q -         O   O   >.>.2.2.>.O     -   >.",
"        2.>.2.2.2.v       O                 O   O   O h 2.>.2.2.2.-     O   2.2.",
"O   O   % &.2.2.&.2.2.e   %             O         e 2.2.2.2.>.2.    O     2.2.2.",
">.O   %   O 2.2.2.&.&.2.2.>.u         O     h &.2.>.2.2.O.2.2.  O       >.2.2.>.",
"2.#.O         b 2.2.2.>.>.2.2.2.>.2.2.>.2.>.#.2.>.>.>.2.2.h   O     O 2.>.2.>.2.",
">.2.2.    -       T >.>.2.>.2.>.>.2.2.2.2.2.2.>.2.2.2.K   O %     O &.2.&.2.2.  ",
"2.2.&.2.O   O       O 5 >.>.2.2.2.>.&.2.2.&.>.2.&.2   %           2.2.&.2.>.% O ",
"2.>.2.>.2.X.      O       -   - v T / T h 1     O             | 2.2.>.2.2.  O   ",
"  2.2.2.2.&.2.H   %   <           O     O O               H 2.2.2.2.&.2.O       ",
"    } 2.2.2.2.2.2.X.    O   O         %     O   O   % } 2.>.2.2.2.&.O.      O   "
};
