/* XPM */
static char * diceno5_xpm[] = {
"75 75 450 2",
"  	c None",
". 	c #FFFFFF",
"+ 	c #FEFEFE",
"@ 	c #F1F1F1",
"# 	c #E9E9E9",
"$ 	c #E6E6E6",
"% 	c #EBEBEB",
"& 	c #F5F5F5",
"* 	c #FBFBFB",
"= 	c #C3C3C3",
"- 	c #828282",
"; 	c #4B4B4B",
"> 	c #383838",
", 	c #323232",
"' 	c #333333",
") 	c #3C3C3C",
"! 	c #5B5B5B",
"~ 	c #969696",
"{ 	c #DADADA",
"] 	c #7C7C7C",
"^ 	c #2C2C2C",
"/ 	c #4F4F4F",
"( 	c #818181",
"_ 	c #A1A1A1",
": 	c #ABABAB",
"< 	c #ACACAC",
"[ 	c #A9A9A9",
"} 	c #999999",
"| 	c #717171",
"1 	c #3F3F3F",
"2 	c #A2A2A2",
"3 	c #FCFCFC",
"4 	c #E5E5E5",
"5 	c #656565",
"6 	c #F0F0F0",
"7 	c #DEDEDE",
"8 	c #2D2D2D",
"9 	c #909090",
"0 	c #F9F9F9",
"a 	c #787878",
"b 	c #3D3D3D",
"c 	c #BFBFBF",
"d 	c #FAFAFA",
"e 	c #929292",
"f 	c #ADADAD",
"g 	c #B9B9B9",
"h 	c #2B2B2B",
"i 	c #A5A5A5",
"j 	c #F7F7F7",
"k 	c #737373",
"l 	c #4D4D4D",
"m 	c #E8E8E8",
"n 	c #6D6D6D",
"o 	c #5C5C5C",
"p 	c #F4F4F4",
"q 	c #CDCDCD",
"r 	c #303030",
"s 	c #E0E0E0",
"t 	c #363636",
"u 	c #9F9F9F",
"v 	c #F8F8F8",
"w 	c #5E5E5E",
"x 	c #707070",
"y 	c #C7C7C7",
"z 	c #878787",
"A 	c #444444",
"B 	c #EFEFEF",
"C 	c #BABABA",
"D 	c #B6B6B6",
"E 	c #E2E2E2",
"F 	c #FEFDFD",
"G 	c #FDFBFB",
"H 	c #FDFCFC",
"I 	c #FBF7F7",
"J 	c #E6C9C9",
"K 	c #D29797",
"L 	c #C97B7B",
"M 	c #C87878",
"N 	c #CF9191",
"O 	c #E3C2C2",
"P 	c #F9F4F4",
"Q 	c #F2E4E4",
"R 	c #DCB0B0",
"S 	c #CD8888",
"T 	c #C87777",
"U 	c #CB8282",
"V 	c #D6A4A4",
"W 	c #EED9D9",
"X 	c #AAAAAA",
"Y 	c #E9D0D0",
"Z 	c #C67474",
"` 	c #C54242",
" .	c #D84545",
"..	c #E75151",
"+.	c #E85252",
"@.	c #DA4747",
"#.	c #C64040",
"$.	c #C46B6B",
"%.	c #E3C3C3",
"&.	c #D5A2A2",
"*.	c #C35858",
"=.	c #CC3F3F",
"-.	c #E14D4D",
";.	c #E95252",
">.	c #E44F4F",
",.	c #D04040",
"'.	c #C34D4D",
").	c #CD8D8D",
"!.	c #F7EFEF",
"~.	c #E4C4C4",
"{.	c #C65D5D",
"].	c #DA4545",
"^.	c #FC6363",
"/.	c #FE6565",
"(.	c #FF6666",
"_.	c #FC6464",
":.	c #DF4A4A",
"<.	c #C55454",
"[.	c #DDB4B4",
"}.	c #CB8A8A",
"|.	c #C63E3E",
"1.	c #EF5757",
"2.	c #F55D5D",
"3.	c #CC3E3E",
"4.	c #C67575",
"5.	c #F6ECEC",
"6.	c #F3E6E6",
"7.	c #C46262",
"8.	c #E04A4A",
"9.	c #E75050",
"0.	c #C45858",
"a.	c #ECD6D6",
"b.	c #D5A3A3",
"c.	c #C84242",
"d.	c #F86060",
"e.	c #FD6464",
"f.	c #CD3D3D",
"g.	c #CB8787",
"h.	c #D09494",
"i.	c #CF3E3E",
"j.	c #D64242",
"k.	c #CB8585",
"l.	c #FEFCFC",
"m.	c #F4E7E7",
"n.	c #C35B5B",
"o.	c #ED5656",
"p.	c #C54A4A",
"q.	c #E8CECE",
"r.	c #F9F2F2",
"s.	c #C15D5D",
"t.	c #F65D5D",
"u.	c #C25353",
"v.	c #DCB2B2",
"w.	c #C93D3D",
"x.	c #D64343",
"y.	c #CE8F8F",
"z.	c #EFDCDC",
"A.	c #C14444",
"B.	c #FB6262",
"C.	c #C54040",
"D.	c #E7CACA",
"E.	c #D09191",
"F.	c #DC4949",
"G.	c #EB5454",
"H.	c #C26868",
"I.	c #FCF9F9",
"J.	c #EBD4D4",
"K.	c #E1BEBE",
"L.	c #CB8383",
"M.	c #E44E4E",
"N.	c #F15A5A",
"O.	c #BF5C5C",
"P.	c #FBF6F6",
"Q.	c #EFDBDB",
"R.	c #C34545",
"S.	c #FB6363",
"T.	c #C53E3E",
"U.	c #E5C7C7",
"V.	c #CF8E8E",
"W.	c #DF4B4B",
"X.	c #C16666",
"Y.	c #FBF8F8",
"Z.	c #C15A5A",
"`.	c #F15959",
" +	c #C34F4F",
".+	c #F2E3E3",
"++	c #DBAEAE",
"@+	c #CB3F3F",
"#+	c #D24040",
"$+	c #DB4646",
"%+	c #C97D7D",
"&+	c #F1E2E2",
"*+	c #C35656",
"=+	c #C74747",
"-+	c #E4C5C5",
";+	c #F0DFDF",
">+	c #C45B5B",
",+	c #E64F4F",
"'+	c #EE5757",
")+	c #C65454",
"!+	c #E8CDCD",
"~+	c #D19898",
"{+	c #D34040",
"]+	c #C97F7F",
"^+	c #DDB5B5",
"/+	c #C55353",
"(+	c #E24C4C",
"_+	c #C64B4B",
":+	c #D7A8A8",
"<+	c #FAF5F5",
"[+	c #C87F7F",
"}+	c #CA3D3D",
"|+	c #FA6161",
"1+	c #D23F3F",
"2+	c #C76E6E",
"3+	c #E2C0C0",
"4+	c #C66A6A",
"5+	c #C73D3D",
"6+	c #E04B4B",
"7+	c #EF5858",
"8+	c #EB5858",
"9+	c #C56363",
"0+	c #FAF4F4",
"a+	c #CF9393",
"b+	c #C34E4E",
"c+	c #D14040",
"d+	c #E85151",
"e+	c #F05858",
"f+	c #EC5555",
"g+	c #E25353",
"h+	c #C44545",
"i+	c #C98181",
"j+	c #F3E4E4",
"k+	c #F8F0F0",
"l+	c #CB8484",
"m+	c #C36868",
"n+	c #C36767",
"o+	c #D89696",
"p+	c #E1BBBB",
"q+	c #F5EAEA",
"r+	c #EDD7D7",
"s+	c #D39B9B",
"t+	c #C77575",
"u+	c #C26464",
"v+	c #C97777",
"w+	c #DEA9A9",
"x+	c #E8CCCC",
"y+	c #FCF8F8",
"z+	c #F5E9E9",
"A+	c #D7A6A6",
"B+	c #C56E6E",
"C+	c #BE4C4C",
"D+	c #BE4444",
"E+	c #D8A8A8",
"F+	c #C56B6B",
"G+	c #F75F5F",
"H+	c #C66D6D",
"I+	c #E9CFCF",
"J+	c #ECD5D5",
"K+	c #C56060",
"L+	c #DC4747",
"M+	c #DA4646",
"N+	c #C56262",
"O+	c #D84444",
"P+	c #D74343",
"Q+	c #C77878",
"R+	c #E5C6C6",
"S+	c #C44343",
"T+	c #CF9090",
"U+	c #D74545",
"V+	c #D19595",
"W+	c #C46E6E",
"X+	c #EA5454",
"Y+	c #C67373",
"Z+	c #FDFAFA",
"`+	c #C36A6A",
" @	c #EB5555",
".@	c #C46D6D",
"+@	c #E24D4D",
"@@	c #E14C4C",
"#@	c #CC8686",
"$@	c #CB3E3E",
"%@	c #F4E8E8",
"&@	c #C35C5C",
"*@	c #EA5353",
"=@	c #C45F5F",
"-@	c #D9AAAA",
";@	c #C54646",
">@	c #C64848",
",@	c #DAAEAE",
"'@	c #D29B9B",
")@	c #C64A4A",
"!@	c #C64C4C",
"~@	c #D39D9D",
"{@	c #E0BCBC",
"]@	c #C56D6D",
"^@	c #C24343",
"/@	c #CE4040",
"(@	c #D54444",
"_@	c #D74B4B",
":@	c #D05959",
"<@	c #E1BDBD",
"[@	c #EBD3D3",
"}@	c #DEB5B5",
"|@	c #E0B9B9",
"1@	c #F2E2E2",
"2@	c #F7EEEE",
"3@	c #DBB1B1",
"4@	c #CC8484",
"5@	c #C46969",
"6@	c #C46868",
"7@	c #CA7E7E",
"8@	c #D39A9A",
"9@	c #C77474",
"0@	c #C46666",
"a@	c #C56F6F",
"b@	c #C66868",
"c@	c #C83E3E",
"d@	c #EE5656",
"e@	c #C56161",
"f@	c #DCB3B3",
"g@	c #CE9090",
"h@	c #C34C4C",
"i@	c #D44242",
"j@	c #D84646",
"k@	c #C87E7E",
"l@	c #C55252",
"m@	c #C54949",
"n@	c #CB3D3D",
"o@	c #D13E3E",
"p@	c #C56C6C",
"q@	c #EFDDDD",
"r@	c #C55B5B",
"s@	c #E65050",
"t@	c #C45050",
"u@	c #E7CBCB",
"v@	c #C93E3E",
"w@	c #C87D7D",
"x@	c #FCFAFA",
"y@	c #CD8B8B",
"z@	c #D34141",
"A@	c #F1E1E1",
"B@	c #C35555",
"C@	c #F25A5A",
"D@	c #C64545",
"E@	c #C05858",
"F@	c #F85F5F",
"G@	c #C24F4F",
"H@	c #DAADAD",
"I@	c #D94545",
"J@	c #CC8989",
"K@	c #EEDADA",
"L@	c #C24444",
"M@	c #E6C8C8",
"N@	c #DE4A4A",
"O@	c #EC5656",
"P@	c #C16565",
"Q@	c #C54141",
"R@	c #BF5B5B",
"S@	c #C24646",
"T@	c #DD4949",
"U@	c #C26969",
"V@	c #C25E5E",
"W@	c #F65E5E",
"X@	c #C35252",
"Y@	c #CE8E8E",
"Z@	c #D09595",
"`@	c #CF3D3D",
" #	c #CC8585",
".#	c #F3E5E5",
"+#	c #C46363",
"@#	c #DF4949",
"##	c #C55A5A",
"$#	c #C74242",
"%#	c #CE3E3E",
"&#	c #CC8888",
"*#	c #E5C5C5",
"=#	c #C65E5E",
"-#	c #C65656",
";#	c #DDB6B6",
">#	c #CC8C8C",
",#	c #C74141",
"'#	c #CC3D3D",
")#	c #F6EDED",
"!#	c #B8B8B8",
"~#	c #313131",
"{#	c #FFFEFE",
"]#	c #EAD2D2",
"^#	c #C77676",
"/#	c #C54545",
"(#	c #D54242",
"_#	c #E54F4F",
":#	c #E25252",
"<#	c #CA4646",
"[#	c #C35A5A",
"}#	c #CC4040",
"|#	c #DD4848",
"1#	c #E34D4D",
"2#	c #DD5555",
"3#	c #C35050",
"4#	c #F8EFEF",
"5#	c #343434",
"6#	c #E7E7E7",
"7#	c #C2C2C2",
"8#	c #D5D5D5",
"9#	c #D19696",
"0#	c #C87C7C",
"a#	c #C97C7C",
"b#	c #DCA8A8",
"c#	c #E9CECE",
"d#	c #DCB1B1",
"e#	c #CC8787",
"f#	c #C87A7A",
"g#	c #E6C0C0",
"h#	c #939393",
"i#	c #3E3E3E",
"j#	c #ECECEC",
"k#	c #D7D7D7",
"l#	c #2E2E2E",
"m#	c #B3B3B3",
"n#	c #F2F2F2",
"o#	c #535353",
"p#	c #959595",
"q#	c #9E9E9E",
"r#	c #C9C9C9",
"s#	c #949494",
"t#	c #353535",
"u#	c #D4D4D4",
"v#	c #575757",
"w#	c #616161",
"x#	c #BCBCBC",
"y#	c #8A8A8A",
"z#	c #FDFDFD",
"A#	c #696969",
"B#	c #B1B1B1",
"C#	c #414141",
"D#	c #676767",
"E#	c #BEBEBE",
"F#	c #4C4C4C",
"G#	c #888888",
"H#	c #E3E3E3",
"I#	c #D9D9D9",
"J#	c #B7B7B7",
"K#	c #6F6F6F",
"L#	c #2F2F2F",
"M#	c #555555",
"N#	c #A7A7A7",
"O#	c #CBCBCB",
"P#	c #BBBBBB",
"Q#	c #F3F3F3",
". . . . . . . . . . . . . . . . . . . . . . . . . . . . . . . . . . . . . . . . . . . . . . . . . . . . . . . . . . . . . . . . . . . . . . . . . . . ",
". . . . . . . . . . . . . . . . . . . . . . . . . . . . . . . . . . . . . . . . . . . . . . . . . . . . . . . . . . . . . . . . . . . . . . . . . . . ",
". . . . . . . . . . . . . . . . . . . . . . . . . . . . . . . . . . . . . . . . . . . . . . . . . . . . . . . . . . . . . . . . . . . . . . . . . . . ",
". . . . . . . . . + @ # $ $ $ $ $ $ $ $ $ $ $ $ $ $ $ $ $ $ $ $ $ $ $ $ $ $ $ $ $ $ $ $ $ $ $ $ $ $ $ $ $ $ $ $ $ $ $ $ $ $ $ $ % & + . . . . . . . . ",
". . . . . . . * = - ; > , , , , , , , , , , , , , , , , , , , , , , , , , , , , , , , , , , , , , , , , , , , , , , , , , , , ' ) ! ~ { + . . . . . . ",
". . . . . . $ ] ^ / ( _ : < < < < < < < < < < < < < < < < < < < < < < < < < < < < < < < < < < < < < < < < < < < < < < < < < < [ } | ) 1 2 3 . . . . . ",
". . . . . 4 5 ) _ 6 + . . . . . . . . . . . . . . . . . . . . . . . . . . . . . . . . . . . . . . . . . . . . . . . . . . . . . . 3 7 ( 8 9 3 . . . . ",
". . . . 0 a b c + . . . . . . . . . . . . . . . . . . . . . . . . . . . . . . . . . . . . . . . . . . . . . . . . . . . . . . . . . . d e ^ f + . . . ",
". . . . g h i + . . . . . . . . . . . . . . . . . . . . . . . . . . . . . . . . . . . . . . . . . . . . . . . . . . . . . . . . . . . . j k l m . . . ",
". . . 0 n o p . . . . . . . . . . . . . . . . . . . . . . . . . . . . . . . . . . . . . . . . . . . . . . . . . . . . . . . . . . . . . . q r [ + . . ",
". . . s t u . . . . . . . . . . . . . . . . . . . . . . . . . . . . . . . . . . . . . . . . . . . . . . . . . . . . . . . . . . . . . . . v w x 3 . . ",
". . . y ^ q . . . . . . . . . . . . . . . . . . . . . . . . . . . . . . . . . . . . . . . . . . . . . . . . . . . . . . . . . . . . . . . + z A B . . ",
". . . C r 7 . . . . . . . . . . . . . . . . . . . . . . . . . . . . . . . . . . . . . . . . . . . . . . . . . . . . . . . . . . . . . . . . _ t m . . ",
". . . D ' E . . . . . . . . . . F G G F . . . . . . . . . . . . . . . . . . . . . . . . . . . . . . . . . . . + H G H + . . . . . . . . . . [ , $ . . ",
". . . D ' E . . . . . . . . I J K L M N O P . . . . . . . . . . . . . . . . . . . . . . . . . . . . . . . + Q R S T U V W F . . . . . . . . X , $ . . ",
". . . D ' E . . . . . . + Y Z `  ...+.@.#.$.%.+ . . . . . . . . . . . . . . . . . . . . . . . . . . . . G &.*.=.-.;.>.,.'.).!.. . . . . . . X , $ . . ",
". . . D ' E . . . . . . ~.{.].^./.(.(.(._.:.<.[.+ . . . . . . . . . . . . . . . . . . . . . . . . . . G }.|.1./.(.(.(./.2.3.4.5.. . . . . . X , $ . . ",
". . . D ' E . . . . . 6.7.8./.(.(.(.(.(.(.(.9.0.a.. . . . . . . . . . . . . . . . . . . . . . . . . + b.c.d.(.(.(.(.(.(.(.e.f.g.H . . . . . X , $ . . ",
". . . D ' E . . . . + h.i./.(.(.(.(.(.(.(.(.(.j.k.l.. . . . . . . . . . . . . . . . . . . . . . . . m.n.o.(.(.(.(.(.(.(.(.(.d.p.q.. . . . . X , $ . . ",
". . . D ' E . . . . r.s.1.(.(.(.(.(.(.(.(.(.(.t.u.6.. . . . . . . . . . . . . . . . . . . . . . . . v.w./.(.(.(.(.(.(.(.(.(./.x.y.+ . . . . X , $ . . ",
". . . D ' E . . . . z.A.B.(.(.(.(.(.(.(.(.(.(.e.C.D.. . . . . . . . . . . . . . . . . . . . . . . . E.F.(.(.(.(.(.(.(.(.(.(.(.G.H.I.. . . . X , $ . . ",
". . . D ' E . . . . J.` /.(.(.(.(.(.(.(.(.(.(./.w.K.. . . . . . . . . . . . . . . . . . . . . . . . L.M.(.(.(.(.(.(.(.(.(.(.(.N.O.P.. . . . X , $ . . ",
". . . D ' E . . . . Q.R.S.(.(.(.(.(.(.(.(.(.(.e.T.U.. . . . . . . . . . . . . . . . . . . . . . . . V.W.(.(.(.(.(.(.(.(.(.(.(.o.X.Y.. . . . X , $ . . ",
". . . D ' E . . . . !.Z.`.(.(.(.(.(.(.(.(.(.(.d. +.+. . . . . . . . . . . . . . . . . . . . . . . . ++@+/.(.(.(.(.(.(.(.(.(./.].g.F . . . . X , $ . . ",
". . . D ' E . . . . F ).#+/.(.(.(.(.(.(.(.(.(.$+%+G . . . . . . . . . . . . . . . . . . . . . . . . &+*+N.(.(.(.(.(.(.(.(.(.B.=+-+. . . . . X , $ . . ",
". . . D ' E . . . . . ;+>+,+(.(.(.(.(.(.(.(.'+)+!+. . . . . . . . . . . . . . . . . . . . . . . . . + ~+w.B.(.(.(.(.(.(.(./.{+]+I.. . . . . X , $ . . ",
". . . D ' E . . . . . . ^+/+(+e.(.(.(.(./..._+:++ . . . . . . . . . . . . . . . . . . . . . . . . . . <+[+}+2./.(.(.(./.|+1+2+Q . . . . . . X , $ . . ",
". . . D ' E . . . . . . + 3+4+5+6+'+7+8+@+9+^++ . . . . . . . . . . . . . . . . . . . . . . . . . . . . 0+a+b+c+d+e+f+g+h+i+j+. . . . . . . X , $ . . ",
". . . D ' E . . . . . . . + k+^+l+m+n+o+p+q++ . . . . . . . . . . . . . . . . . . . . . . . . . . . . . . F r+s+t+u+v+w+x+G . . . . . . . . X , $ . . ",
". . . D ' E . . . . . . . . . . F I.y+F + . . . . . . . . . . . . . . . . . . . . . . . . . . . . . . . . . . + H I G + . . . . . . . . . . X , $ . . ",
". . . D ' E . . . . . . . . . . . . . . . . . . . . . . . . . . . . . . . . . . . . . . . . . . . . . . . . . . . . . . . . . . . . . . . . X , $ . . ",
". . . D ' E . . . . . . . . . . . . . . . . . . . . . . . . . . . . + y+z+.+z+I.+ . . . . . . . . . . . . . . . . . . . . . . . . . . . . . X , $ . . ",
". . . D ' E . . . . . . . . . . . . . . . . . . . . . . . . . . . k+A+B+C+D+C+B+E+k+. . . . . . . . . . . . . . . . . . . . . . . . . . . . X , $ . . ",
". . . D ' E . . . . . . . . . . . . . . . . . . . . . . . . . . x+F+w.+.G+B.G+..w.H+I+. . . . . . . . . . . . . . . . . . . . . . . . . . . X , $ . . ",
". . . D ' E . . . . . . . . . . . . . . . . . . . . . . . . . J+K+L+e.(.(.(.(.(.e.M+N+r+. . . . . . . . . . . . . . . . . . . . . . . . . . X , $ . . ",
". . . D ' E . . . . . . . . . . . . . . . . . . . . . . . . I 4.O+/.(.(.(.(.(.(.(./.P+Q+I.. . . . . . . . . . . . . . . . . . . . . . . . . X , $ . . ",
". . . D ' E . . . . . . . . . . . . . . . . . . . . . . . . R+` S.(.(.(.(.(.(.(.(.(.B.S+D.. . . . . . . . . . . . . . . . . . . . . . . . . X , $ . . ",
". . . D ' E . . . . . . . . . . . . . . . . . . . . . . . F T+@.(.(.(.(.(.(.(.(.(.(./.U+V+F . . . . . . . . . . . . . . . . . . . . . . . . X , $ . . ",
". . . D ' E . . . . . . . . . . . . . . . . . . . . . . . G W+X+(.(.(.(.(.(.(.(.(.(.(.;.Y+H . . . . . . . . . . . . . . . . . . . . . . . . X , $ . . ",
". . . D ' E . . . . . . . . . . . . . . . . . . . . . . . Z+`+f+(.(.(.(.(.(.(.(.(.(.(. @.@H . . . . . . . . . . . . . . . . . . . . . . . . X , $ . . ",
". . . D ' E . . . . . . . . . . . . . . . . . . . . . . . H U +@(.(.(.(.(.(.(.(.(.(.(.@@#@l.. . . . . . . . . . . . . . . . . . . . . . . . X , $ . . ",
". . . D ' E . . . . . . . . . . . . . . . . . . . . . . . . R $@/.(.(.(.(.(.(.(.(.(./.}+v.+ . . . . . . . . . . . . . . . . . . . . . . . . X , $ . . ",
". . . D ' E . . . . . . . . . . . . . . . . . . . . . . . . %@&@*@(.(.(.(.(.(.(.(.(.*@=@q+. . . . . . . . . . . . . . . . . . . . . . . . . X , $ . . ",
". . . D ' E . . . . . . . . . . . . . . . . . . . . . . . . + -@;@N.(.(.(.(.(.(.(.N.>@,@+ . . . . . . . . . . . . . . . . . . . . . . . . . X , $ . . ",
". . . D ' E . . . . . . . . . . . . . . . . . . . . . . . . . F '@)@+@S./././.S.@@!@~@F . . . . . . . . . . . . . . . . . . . . . . . . . . X , $ . . ",
". . . D ' E . . . . . . . . . . . . . . . . . . . . . . . . . . F {@]@^@/@(@_@:@B+<@F . . . . . . . . . . . . . . . . . . . . . . . . . . . X , $ . . ",
". . . D ' E . . . . . . . . . . . . . . . . . . . . . . . . . . . . P.[@}@-@|@1@I . . . . . . . . . . . . . . . . . . . . . . . . . . . . . X , $ . . ",
". . . D ' E . . . . . . . . . . . . . . . . . . . . . . . . . . . . . . . . . . . . . . . . . . . . . . . . . . . . . . . . . . . . . . . . X , $ . . ",
". . . D ' E . . . . . . . . . . . . . . . . . . . . . . . . . . . . . . . . . . . . . . . . . . . . . . . . . . . . . . . . . . . . . . . . X , $ . . ",
". . . D ' E . . . . . . . . . . + I P.F . . . . . . . . . . . . . . . . . . . . . . . . . . . . . . . . . . . + G <+y++ . . . . . . . . . . X , $ . . ",
". . . D ' E . . . . . . . . 2@3@4@5@6@7@-@%@+ . . . . . . . . . . . . . . . . . . . . . . . . . . . . . . + J.8@9@0@a@T+U.Z+. . . . . . . . X , $ . . ",
". . . D ' E . . . . . . + K.b@c@6+d@'+(+}+e@f@+ . . . . . . . . . . . . . . . . . . . . . . . . . . . . r.g@h@i@+.7+X+j@h+k@&+. . . . . . . X , $ . . ",
". . . D ' E . . . . . . [.l@(+/.(.(.(.(./.d+m@V + . . . . . . . . . . . . . . . . . . . . . . . . . . 0+]+n@2.(.(.(.(.(.|+o@p@.+. . . . . . X , $ . . ",
". . . D ' E . . . . . q@r@s@(.(.(.(.(.(.(.(.o.t@u@. . . . . . . . . . . . . . . . . . . . . . . . . + ~+v@S.(.(.(.(.(.(.(./.1+w@x@. . . . . X , $ . . ",
". . . D ' E . . . . F y@z@/.(.(.(.(.(.(.(.(.(.M+%+G . . . . . . . . . . . . . . . . . . . . . . . . A@B@C@(.(.(.(.(.(.(.(.(.B.D@R+. . . . . X , $ . . ",
". . . D ' E . . . . !.E@N.(.(.(.(.(.(.(.(.(.(.F@G@&+. . . . . . . . . . . . . . . . . . . . . . . . H@$@/.(.(.(.(.(.(.(.(.(./.I@J@F . . . . X , $ . . ",
". . . D ' E . . . . K@L@S.(.(.(.(.(.(.(.(.(.(.e.#.M@. . . . . . . . . . . . . . . . . . . . . . . . V.N@(.(.(.(.(.(.(.(.(.(.(.O@P@y+. . . . X , $ . . ",
". . . D ' E . . . . J.Q@/.(.(.(.(.(.(.(.(.(.(./.w.K.. . . . . . . . . . . . . . . . . . . . . . . . L.M.(.(.(.(.(.(.(.(.(.(.(.N.R@P.. . . . X , $ . . ",
". . . D ' E . . . . q@S@B.(.(.(.(.(.(.(.(.(.(.e.T.J . . . . . . . . . . . . . . . . . . . . . . . . E.T@(.(.(.(.(.(.(.(.(.(.(. @U@y+. . . . X , $ . . ",
". . . D ' E . . . . r.V@'+(.(.(.(.(.(.(.(.(.(.W@X@6.. . . . . . . . . . . . . . . . . . . . . . . . [.v@/.(.(.(.(.(.(.(.(.(./.j.Y@+ . . . . X , $ . . ",
". . . D ' E . . . . + Z@`@/.(.(.(.(.(.(.(.(.(.x. #+ . . . . . . . . . . . . . . . . . . . . . . . . 6.n.o.(.(.(.(.(.(.(.(.(.d.!@q.. . . . . X , $ . . ",
". . . D ' E . . . . . .#+#@#(.(.(.(.(.(.(.(...##J+. . . . . . . . . . . . . . . . . . . . . . . . . + V $#F@(.(.(.(.(.(.(.e.%#&#H . . . . . X , $ . . ",
". . . D ' E . . . . . . *#=#I@^./.(.(.(.e.:.-#;#. . . . . . . . . . . . . . . . . . . . . . . . . . . G >#,#o./.(.(.(./.2.'#Q+)#. . . . . . X , $ . . ",
". . . !#~#s . . . . . . {#]#^#/#(#M._#:#<#]@-+{#. . . . . . . . . . . . . . . . . . . . . . . . . . . . x@b.[#}#|#s@1#2#3#y.4#. . . . . . . i 5#6#. . ",
". . . 7#8 8#. . . . . . . . Y.J 9#0#a#b#c#0+. . . . . . . . . . . . . . . . . . . . . . . . . . . . . . . + %@d#e#f#S g#q@+ . . . . . . . . h#i#j#. . ",
". . . k#l#m#. . . . . . . . . . + G G + . . . . . . . . . . . . . . . . . . . . . . . . . . . . . . . . . . . . F G l.. . . . . . . . . . * n w j . . ",
". . . n#o#k 3 . . . . . . . . . . . . . . . . . . . . . . . . . . . . . . . . . . . . . . . . . . . . . . . . . . . . . . . . . . . . . . 4 i#p#+ . . ",
". . . + q#5#r#. . . . . . . . . . . . . . . . . . . . . . . . . . . . . . . . . . . . . . . . . . . . . . . . . . . . . . . . . . . . . + s#t#u#. . . ",
". . . . # v#w#6#. . . . . . . . . . . . . . . . . . . . . . . . . . . . . . . . . . . . . . . . . . . . . . . . . . . . . . . . . . . . x#t y#z#. . . ",
". . . . . 7#b A#k#+ . . . . . . . . . . . . . . . . . . . . . . . . . . . . . . . . . . . . . . . . . . . . . . . . . . . . . . . . d B#C#D#j#. . . . ",
". . . . . + E#F#i#G#y 7 H#H#H#H#H#H#H#H#H#H#H#H#H#H#H#H#H#H#H#H#H#H#H#H#H#H#H#H#H#H#H#H#H#H#H#H#H#H#H#H#H#H#H#H#H#H#H#H#H#H#H#E I#J#K#l#K#E . . . . . ",
". . . . . . + 7 y#C#8 r 5#t#t#t#t#t#t#t#t#t#t#t#t#t#t#t#t#t#t#t#t#t#t#t#t#t#t#t#t#t#t#t#t#t#t#t#t#t#t#t#t#t#t#t#t#t#t#t#t#t#t#5#L#l#M#N#p . . . . . . ",
". . . . . . . . + m O#P#D D D D D D D D D D D D D D D D D D D D D D D D D D D D D D D D D D D D D D D D D D D D D D D D D D D D c u#Q#+ . . . . . . . ",
". . . . . . . . . . . . . . . . . . . . . . . . . . . . . . . . . . . . . . . . . . . . . . . . . . . . . . . . . . . . . . . . . . . . . . . . . . . ",
". . . . . . . . . . . . . . . . . . . . . . . . . . . . . . . . . . . . . . . . . . . . . . . . . . . . . . . . . . . . . . . . . . . . . . . . . . . "};
