/* XPM */
static char * diceno4_xpm[] = {
"75 75 367 2",
"  	c None",
". 	c #FFFFFF",
"+ 	c #FEFEFE",
"@ 	c #E4E4E4",
"# 	c #B1B1B1",
"$ 	c #8D8D8D",
"% 	c #7A7A7A",
"& 	c #757575",
"* 	c #808080",
"= 	c #9B9B9B",
"- 	c #C7C7C7",
"; 	c #F4F4F4",
"> 	c #F2F2F2",
", 	c #989898",
"' 	c #424242",
") 	c #2C2C2C",
"! 	c #494949",
"~ 	c #595959",
"{ 	c #5F5F5F",
"] 	c #5E5E5E",
"^ 	c #545454",
"/ 	c #3E3E3E",
"( 	c #2A2A2A",
"_ 	c #626262",
": 	c #BFBFBF",
"< 	c #E9E9E9",
"[ 	c #737373",
"} 	c #2E2E2E",
"| 	c #818181",
"1 	c #CECECE",
"2 	c #F3F3F3",
"3 	c #F8F8F8",
"4 	c #F9F9F9",
"5 	c #F7F7F7",
"6 	c #EBEBEB",
"7 	c #5C5C5C",
"8 	c #313131",
"9 	c #A2A2A2",
"0 	c #FDFDFD",
"a 	c #767676",
"b 	c #393939",
"c 	c #FCFCFC",
"d 	c #ECECEC",
"e 	c #7E7E7E",
"f 	c #2F2F2F",
"g 	c #B0B0B0",
"h 	c #A7A7A7",
"i 	c #2B2B2B",
"j 	c #A9A9A9",
"k 	c #6F6F6F",
"l 	c #E3E3E3",
"m 	c #EDEDED",
"n 	c #505050",
"o 	c #727272",
"p 	c #FAFAFA",
"q 	c #D2D2D2",
"r 	c #353535",
"s 	c #979797",
"t 	c #C1C1C1",
"u 	c #C0C0C0",
"v 	c #535353",
"w 	c #959595",
"x 	c #3F3F3F",
"y 	c #ACACAC",
"z 	c #DADADA",
"A 	c #787878",
"B 	c #565656",
"C 	c #CACACA",
"D 	c #292929",
"E 	c #C8C8C8",
"F 	c #6B6B6B",
"G 	c #D6D6D6",
"H 	c #686868",
"I 	c #656565",
"J 	c #FDFBFB",
"K 	c #F4E7E7",
"L 	c #EBD3D3",
"M 	c #E9D0D0",
"N 	c #F0DFDF",
"O 	c #FAF6F6",
"P 	c #FCFAFA",
"Q 	c #F3E6E6",
"R 	c #EAD2D2",
"S 	c #EAD0D0",
"T 	c #F1E1E1",
"U 	c #FBF7F7",
"V 	c #D7D7D7",
"W 	c #BEBEBE",
"X 	c #E4C3C3",
"Y 	c #C77979",
"Z 	c #C25252",
"` 	c #C34242",
" .	c #C44141",
"..	c #C04848",
"+.	c #C36969",
"@.	c #D8A8A8",
"#.	c #FAF5F5",
"$.	c #FEFDFD",
"%.	c #E1BEBE",
"&.	c #C67676",
"*.	c #C15050",
"=.	c #C44242",
"-.	c #C04A4A",
";.	c #C36C6C",
">.	c #DAADAD",
",.	c #CE9292",
"'.	c #C54A4A",
").	c #DC4747",
"!.	c #F75E5E",
"~.	c #FC6363",
"{.	c #F96161",
"].	c #E75050",
"^.	c #C83E3E",
"/.	c #C77878",
"(.	c #F1E2E2",
"_.	c #CD8D8D",
":.	c #C54747",
"<.	c #DE4949",
"[.	c #F75F5F",
"}.	c #F96060",
"|.	c #E54F4F",
"1.	c #C73F3F",
"2.	c #C87D7D",
"3.	c #F4E8E8",
"4.	c #CF9595",
"5.	c #C73E3E",
"6.	c #F45C5C",
"7.	c #FF6666",
"8.	c #D13E3E",
"9.	c #C57171",
"0.	c #F7EFEF",
"a.	c #FDFCFC",
"b.	c #CC8D8D",
"c.	c #C83C3C",
"d.	c #F65E5E",
"e.	c #FB6262",
"f.	c #CE3D3D",
"g.	c #C67777",
"h.	c #FAF4F4",
"i.	c #E5C7C7",
"j.	c #C44B4B",
"k.	c #FD6464",
"l.	c #CB3D3D",
"m.	c #D09696",
"n.	c #C93E3E",
"o.	c #D4A0A0",
"p.	c #C87C7C",
"q.	c #F15959",
"r.	c #C15656",
"s.	c #F5EAEA",
"t.	c #FCF9F9",
"u.	c #C57474",
"v.	c #E04A4A",
"w.	c #ED5656",
"x.	c #C25D5D",
"y.	c #F6EBEB",
"z.	c #BF5050",
"A.	c #F3E4E4",
"B.	c #C04C4C",
"C.	c #FC6464",
"D.	c #C44040",
"E.	c #E8CDCD",
"F.	c #EFDDDD",
"G.	c #C14343",
"H.	c #FB6363",
"I.	c #FE6565",
"J.	c #D44343",
"K.	c #CF4040",
"L.	c #DEB6B6",
"M.	c #EEDADA",
"N.	c #C24242",
"O.	c #D64444",
"P.	c #D6A3A3",
"Q.	c #E9CECE",
"R.	c #C53F3F",
"S.	c #D14141",
"T.	c #DDB3B3",
"U.	c #F3E5E5",
"V.	c #BF4A4A",
"W.	c #F86060",
"X.	c #CB3F3F",
"Y.	c #DFB8B8",
"Z.	c #C04646",
"`.	c #FA6161",
" +	c #E4C4C4",
".+	c #FCF8F8",
"++	c #C46D6D",
"@+	c #E55050",
"#+	c #C04949",
"$+	c #EFDCDC",
"%+	c #C36666",
"&+	c #E95353",
"*+	c #C04E4E",
"=+	c #F2E2E2",
"-+	c #DBAEAE",
";+	c #C63E3E",
">+	c #D84444",
",+	c #C97F7F",
"'+	c #D6A4A4",
")+	c #D44242",
"!+	c #CC8888",
"~+	c #C67878",
"{+	c #E34D4D",
"]+	c #C55C5C",
"^+	c #ECD7D7",
"/+	c #F8F1F1",
"(+	c #C57272",
"_+	c #D34040",
":+	c #C56161",
"<+	c #EFDEDE",
"[+	c #C67373",
"}+	c #CC3D3D",
"|+	c #F25A5A",
"1+	c #D74343",
"2+	c #C55B5B",
"3+	c #E0BCBC",
"4+	c #F0DEDE",
"5+	c #C66E6E",
"6+	c #CE3E3E",
"7+	c #F35C5C",
"8+	c #D54242",
"9+	c #C55F5F",
"0+	c #F8F0F0",
"a+	c #D09595",
"b+	c #C05353",
"c+	c #D74545",
"d+	c #D85050",
"e+	c #CA5555",
"f+	c #EBD4D4",
"g+	c #F5EBEB",
"h+	c #CE8F8F",
"i+	c #C05050",
"j+	c #C83D3D",
"k+	c #D54343",
"l+	c #D85252",
"m+	c #C95555",
"n+	c #C98181",
"o+	c #E2C0C0",
"p+	c #D7A6A6",
"q+	c #D7A4A4",
"r+	c #E5C3C3",
"s+	c #FDFAFA",
"t+	c #E2BEBE",
"u+	c #D7A5A5",
"v+	c #E7C7C7",
"w+	c #FBF6F6",
"x+	c #C87B7B",
"y+	c #C36767",
"z+	c #CB8585",
"A+	c #DDB4B4",
"B+	c #CC8686",
"C+	c #C46969",
"D+	c #F2E4E4",
"E+	c #D6A5A5",
"F+	c #C35959",
"G+	c #CD3E3E",
"H+	c #E34E4E",
"I+	c #EE5757",
"J+	c #EC5555",
"K+	c #DD4949",
"L+	c #C56D6D",
"M+	c #E6C8C8",
"N+	c #C56B6B",
"O+	c #C63D3D",
"P+	c #E24D4D",
"Q+	c #C35B5B",
"R+	c #D8A9A9",
"S+	c #D09797",
"T+	c #C74444",
"U+	c #DD4848",
"V+	c #C45757",
"W+	c #E2BFBF",
"X+	c #E0BBBB",
"Y+	c #C55555",
"Z+	c #DF4A4A",
"`+	c #FD6565",
" @	c #EB5454",
".@	c #C54545",
"+@	c #D19A9A",
"@@	c #DEB8B8",
"#@	c #C44646",
"$@	c #E04B4B",
"%@	c #C46161",
"&@	c #C45E5E",
"*@	c #C44848",
"=@	c #E1BDBD",
"-@	c #FFFEFE",
";@	c #C46B6B",
">@	c #CF3E3E",
",@	c #D19797",
"'@	c #CE9191",
")@	c #D03F3F",
"!@	c #E14C4C",
"~@	c #C56F6F",
"{@	c #E9CFCF",
"]@	c #C34343",
"^@	c #C26161",
"/@	c #F9F3F3",
"(@	c #C15B5B",
"_@	c #EF5858",
":@	c #C24444",
"<@	c #DBAFAF",
"[@	c #D04141",
"}@	c #BF4646",
"|@	c #C14444",
"1@	c #CE4141",
"2@	c #D6A2A2",
"3@	c #C24141",
"4@	c #EBD5D5",
"5@	c #D9AAAA",
"6@	c #D14343",
"7@	c #FA6262",
"8@	c #C04545",
"9@	c #C24545",
"0@	c #CE4040",
"a@	c #E8CECE",
"b@	c #C44343",
"c@	c #F05858",
"d@	c #C15D5D",
"e@	c #F9F2F2",
"f@	c #C15A5A",
"g@	c #F05959",
"h@	c #E64F4F",
"i@	c #D24141",
"j@	c #CF9191",
"k@	c #D24040",
"l@	c #E44E4E",
"m@	c #C46A6A",
"n@	c #DCB2B2",
"o@	c #C55E5E",
"p@	c #C45A5A",
"q@	c #F55D5D",
"r@	c #CE9090",
"s@	c #C74141",
"t@	c #E24C4C",
"u@	c #C55353",
"v@	c #DCB3B3",
"w@	c #C45050",
"x@	c #EF5757",
"y@	c #C74343",
"z@	c #CF9494",
"A@	c #D39F9F",
"B@	c #C35353",
"C@	c #CF3F3F",
"D@	c #E85252",
"E@	c #ED5A5A",
"F@	c #C56666",
"G@	c #C56565",
"H@	c #F15A5A",
"I@	c #F25B5B",
"J@	c #EF5959",
"K@	c #C35555",
"L@	c #D5A2A2",
"M@	c #D29A9A",
"N@	c #C57070",
"O@	c #C15C5C",
"P@	c #C26262",
"Q@	c #D99696",
"R@	c #F6ECEC",
"S@	c #D9ABAB",
"T@	c #C87A7A",
"U@	c #C15F5F",
"V@	c #D48989",
"W@	c #DDAFAF",
"X@	c #414141",
"Y@	c #747474",
"Z@	c #7F7F7F",
". . . . . . . . . . . . . . . . . . . . . . . . . . . . . . . . . . . . . . . . . . . . . . . . . . . . . . . . . . . . . . . . . . . . . . . . . . . ",
". . . . . . . . . . . . . . . . . . . . . . . . . . . . . . . . . . . . . . . . . . . . . . . . . . . . . . . . . . . . . . . . . . . . . . . . . . . ",
". . . . . . . . . . . . . . . . . . . . . . . . . . . . . . . . . . . . . . . . . . . . . . . . . . . . . . . . . . . . . . . . . . . . . . . . . . . ",
". . . . . . . + @ # $ % & & & & & & & & & & & & & & & & & & & & & & & & & & & & & & & & & & & & & & & & & & & & & & & & & & & & * = - ; . . . . . . . ",
". . . . . . > , ' ) ! ~ { { { { { { { { { { { { { { { { { { { { { { { { { { { { { { { { { { { { { { { { { { { { { { { { { { { ] ^ / ( _ : + . . . . . ",
". . . . . < [ } | 1 2 3 4 4 4 4 4 4 4 4 4 4 4 4 4 4 4 4 4 4 4 4 4 4 4 4 4 4 4 4 4 4 4 4 4 4 4 4 4 4 4 4 4 4 4 4 4 4 4 4 4 4 4 4 5 6 # 7 8 9 0 . . . . ",
". . . . 5 a b # c . . . . . . . . . . . . . . . . . . . . . . . . . . . . . . . . . . . . . . . . . . . . . . . . . . . . . . . . . . d e f g . . . . ",
". . . . h i j + . . . . . . . . . . . . . . . . . . . . . . . . . . . . . . . . . . . . . . . . . . . . . . . . . . . . . . . . . . . . 2 k ! l . . . ",
". . . m n o p . . . . . . . . . . . . . . . . . . . . . . . . . . . . . . . . . . . . . . . . . . . . . . . . . . . . . . . . . . . . . . q r s + . . ",
". . + t i u . . . . . . . . . . . . . . . . . . . . . . . . . . . . . . . . . . . . . . . . . . . . . . . . . . . . . . . . . . . . . . . 0 & v 2 . . ",
". . + w x d . . . . . . . . . . . . . . . . . . . . . . . . . . . . . . . . . . . . . . . . . . . . . . . . . . . . . . . . . . . . . . . . y } z . . ",
". . 0 A B 5 . . . . . . . . . . . . . . . . . . . . . . . . . . . . . . . . . . . . . . . . . . . . . . . . . . . . . . . . . . . . . . . . C D E . . ",
". . 0 F _ 4 . . . . . . . . . . . . . . . . . . . . . . . . . . . . . . . . . . . . . . . . . . . . . . . . . . . . . . . . . . . . . . . . G i : . . ",
". . 0 H I p . . . . . . . . J K L M N O + . . . . . . . . . . . . . . . . . . . . . . . . . . . . . . . . . . P Q R S T U + . . . . . . . . V ) W . . ",
". . 0 H I p . . . . . . + X Y Z `  ...+.@.#.. . . . . . . . . . . . . . . . . . . . . . . . . . . . . . . $.%.&.*.` =.-.;.>.U . . . . . . . V ) W . . ",
". . 0 H I p . . . . . P ,.'.).!.~.~.{.].^./.(.. . . . . . . . . . . . . . . . . . . . . . . . . . . . . U _.:.<.[.~.~.}.|.1.2.3.. . . . . . V ) W . . ",
". . 0 H I p . . . . $.4.5.6.7.7.7.7.7.7.~.8.9.0.. . . . . . . . . . . . . . . . . . . . . . . . . . . a.b.c.d.7.7.7.7.7.7.e.f.g.h.. . . . . V ) W . . ",
". . 0 H I p . . . . i.j.6.7.7.7.7.7.7.7.7.k.l.m.+ . . . . . . . . . . . . . . . . . . . . . . . . . . %.:.[.7.7.7.7.7.7.7.7.~.n.o.+ . . . . V ) W . . ",
". . 0 H I p . . . J p.).7.7.7.7.7.7.7.7.7.7.q.r.s.. . . . . . . . . . . . . . . . . . . . . . . . . t.u.v.7.7.7.7.7.7.7.7.7.7.w.x.0.. . . . V ) W . . ",
". . 0 H I p . . . y.z.6.7.7.7.7.7.7.7.7.7.7.k.1.X . . . . . . . . . . . . . . . . . . . . . . . . . A.B.!.7.7.7.7.7.7.7.7.7.7.C.D.E.. . . . V ) W . . ",
". . 0 H I p . . . F.G.H.7.7.7.7.7.7.7.7.7.7.I.J.@.. . . . . . . . . . . . . . . . . . . . . . . . . R  .k.7.7.7.7.7.7.7.7.7.7.I.K.L.. . . . V ) W . . ",
". . 0 H I p . . . M.N.k.7.7.7.7.7.7.7.7.7.7.I.O.P.. . . . . . . . . . . . . . . . . . . . . . . . . Q.R.I.7.7.7.7.7.7.7.7.7.7.I.S.T.. . . . V ) W . . ",
". . 0 H I p . . . U.V.W.7.7.7.7.7.7.7.7.7.7.I.X.Y.. . . . . . . . . . . . . . . . . . . . . . . . . F.Z.`.7.7.7.7.7.7.7.7.7.7.k.5. +. . . . V ) W . . ",
". . 0 H I p . . . .+++@+7.7.7.7.7.7.7.7.7.7.W.#+$+. . . . . . . . . . . . . . . . . . . . . . . . . #.%+&+7.7.7.7.7.7.7.7.7.7.d.*+=+. . . . V ) W . . ",
". . 0 H I p . . . + -+;+~.7.7.7.7.7.7.7.7.I.>+,+J . . . . . . . . . . . . . . . . . . . . . . . . . + '+n.k.7.7.7.7.7.7.7.7.I.)+!+$.. . . . V ) W . . ",
". . 0 H I p . . . . #.~+8.k.7.7.7.7.7.7.I.{+]+^+. . . . . . . . . . . . . . . . . . . . . . . . . . . /+(+_+I.7.7.7.7.7.7.I.v.:+<+. . . . . V ) W . . ",
". . 0 H I p . . . . . U.[+}+|+k.7.7.I.}.1+2+3+. . . . . . . . . . . . . . . . . . . . . . . . . . . . . 4+5+6+7+k.7.7.I.W.8+9+ +. . . . . . V ) W . . ",
". . 0 H I p . . . . . . 0+a+b+5.J.c+d+e+2.f+. . . . . . . . . . . . . . . . . . . . . . . . . . . . . . . g+h+i+j+k+c+l+m+n+M.. . . . . . . V ) W . . ",
". . 0 H I p . . . . . . . $.U.o+p+q+r+T s+. . . . . . . . . . . . . . . . . . . . . . . . . . . . . . . . . $.=+t+u+q+v+=+J . . . . . . . . V ) W . . ",
". . 0 H I p . . . . . . . . . . + + . . . . . . . . . . . . . . . . . . . . . . . . . . . . . . . . . . . . . . . + + . . . . . . . . . . . V ) W . . ",
". . 0 H I p . . . . . . . . . . . . . . . . . . . . . . . . . . . . . . . . . . . . . . . . . . . . . . . . . . . . . . . . . . . . . . . . V ) W . . ",
". . 0 H I p . . . . . . . . . . . . . . . . . . . . . . . . . . . . . . . . . . . . . . . . . . . . . . . . . . . . . . . . . . . . . . . . V ) W . . ",
". . 0 H I p . . . . . . . . . . . . . . . . . . . . . . . . . . . . . . . . . . . . . . . . . . . . . . . . . . . . . . . . . . . . . . . . V ) W . . ",
". . 0 H I p . . . . . . . . . . . . . . . . . . . . . . . . . . . . . . . . . . . . . . . . . . . . . . . . . . . . . . . . . . . . . . . . V ) W . . ",
". . 0 H I p . . . . . . . . . . . . . . . . . . . . . . . . . . . . . . . . . . . . . . . . . . . . . . . . . . . . . . . . . . . . . . . . V ) W . . ",
". . 0 H I p . . . . . . . . . . . . . . . . . . . . . . . . . . . . . . . . . . . . . . . . . . . . . . . . . . . . . . . . . . . . . . . . V ) W . . ",
". . 0 H I p . . . . . . . . . . . . . . . . . . . . . . . . . . . . . . . . . . . . . . . . . . . . . . . . . . . . . . . . . . . . . . . . V ) W . . ",
". . 0 H I p . . . . . . . . . . . . . . . . . . . . . . . . . . . . . . . . . . . . . . . . . . . . . . . . . . . . . . . . . . . . . . . . V ) W . . ",
". . 0 H I p . . . . . . . . . . . . . . . . . . . . . . . . . . . . . . . . . . . . . . . . . . . . . . . . . . . . . . . . . . . . . . . . V ) W . . ",
". . 0 H I p . . . . . . . . . . . . . . . . . . . . . . . . . . . . . . . . . . . . . . . . . . . . . . . . . . . . . . . . . . . . . . . . V ) W . . ",
". . 0 H I p . . . . . . . . . . . . . . . . . . . . . . . . . . . . . . . . . . . . . . . . . . . . . . . . . . . . . . . . . . . . . . . . V ) W . . ",
". . 0 H I p . . . . . . . . . . . . . . . . . . . . . . . . . . . . . . . . . . . . . . . . . . . . . . . . . . . . . . . . . . . . . . . . V ) W . . ",
". . 0 H I p . . . . . . . . . . . . . . . . . . . . . . . . . . . . . . . . . . . . . . . . . . . . . . . . . . . . . . . . . . . . . . . . V ) W . . ",
". . 0 H I p . . . . . . . . . . . . . . . . . . . . . . . . . . . . . . . . . . . . . . . . . . . . . . . . . . . . . . . . . . . . . . . . V ) W . . ",
". . 0 H I p . . . . . . . . . . . . . . . . . . . . . . . . . . . . . . . . . . . . . . . . . . . . . . . . . . . . . . . . . . . . . . . . V ) W . . ",
". . 0 H I p . . . . . . . . . . . . . . . . . . . . . . . . . . . . . . . . . . . . . . . . . . . . . . . . . . . . . . . . . . . . . . . . V ) W . . ",
". . 0 H I p . . . . . . . . . . . . . . . . . . . . . . . . . . . . . . . . . . . . . . . . . . . . . . . . . . . . . . . . . . . . . . . . V ) W . . ",
". . 0 H I p . . . . . . . . . . . . . . . . . . . . . . . . . . . . . . . . . . . . . . . . . . . . . . . . . . . . . . . . . . . . . . . . V ) W . . ",
". . 0 H I p . . . . . . . . . . . . . . . . . . . . . . . . . . . . . . . . . . . . . . . . . . . . . . . . . . . . . . . . . . . . . . . . V ) W . . ",
". . 0 H I p . . . . . . . . . . a.#.U + . . . . . . . . . . . . . . . . . . . . . . . . . . . . . . . . . . . . . + U w+a.. . . . . . . . . V ) W . . ",
". . 0 H I p . . . . . . . + (.'+x+y++.z+L./+. . . . . . . . . . . . . . . . . . . . . . . . . . . . . . . . . 0+A+B+C+%+x+p+D++ . . . . . . V ) W . . ",
". . 0 H I p . . . . . . $.E+F+G+H+I+J+K+;+L+M++ . . . . . . . . . . . . . . . . . . . . . . . . . . . . . +  +N+O+<.w.I+P+l.Q+R+$.. . . . . V ) W . . ",
". . 0 H I p . . . . . $.S+T+J+I.7.7.7.7.k.U+V+W+. . . . . . . . . . . . . . . . . . . . . . . . . . . . . X+Y+Z+`+7.7.7.7.I. @.@+@$.. . . . V ) W . . ",
". . 0 H I p . . . . + @@#@6.7.7.7.7.7.7.7.7.$@%@U.. . . . . . . . . . . . . . . . . . . . . . . . . . . T &@P+7.7.7.7.7.7.7.7.|+*@=@-@. . . V ) W . . ",
". . 0 H I p . . . . #.;@{+7.7.7.7.7.7.7.7.7.I.>@,@+ . . . . . . . . . . . . . . . . . . . . . . . . . + '@)@I.7.7.7.7.7.7.7.7.7.!@~@w+. . . V ) W . . ",
". . 0 H I p . . . . {@]@~.7.7.7.7.7.7.7.7.7.7.I+^@/@. . . . . . . . . . . . . . . . . . . . . . . . . /+(@_@7.7.7.7.7.7.7.7.7.7.e.:@f+. . . V ) W . . ",
". . 0 H I p . . . . <@[@I.7.7.7.7.7.7.7.7.7.7.{.}@T . . . . . . . . . . . . . . . . . . . . . . . . . $+|@e.7.7.7.7.7.7.7.7.7.7.I.1@L.. . . V ) W . . ",
". . 0 H I p . . . . 2@O.I.7.7.7.7.7.7.7.7.7.7.k.3@M.. . . . . . . . . . . . . . . . . . . . . . . . . 4@ .I.7.7.7.7.7.7.7.7.7.7.I.J.5@. . . V ) W . . ",
". . 0 H I p . . . . -+6@I.7.7.7.7.7.7.7.7.7.7.7@8@N . . . . . . . . . . . . . . . . . . . . . . . . . $+9@e.7.7.7.7.7.7.7.7.7.7.I.0@A+. . . V ) W . . ",
". . 0 H I p . . . . a@b@~.7.7.7.7.7.7.7.7.7.7.c@d@e@. . . . . . . . . . . . . . . . . . . . . . . . . 0.f@g@7.7.7.7.7.7.7.7.7.7.~.]@R . . . V ) W . . ",
". . 0 H I p . . . . /@y+h@7.7.7.7.7.7.7.7.7.I.i@j@$.. . . . . . . . . . . . . . . . . . . . . . . . . $._.k@I.7.7.7.7.7.7.7.7.7.l@m@#.. . . V ) W . . ",
". . 0 H I p . . . . + n@b@d.7.7.7.7.7.7.7.7.|.o@T . . . . . . . . . . . . . . . . . . . . . . . . . . . F.p@h@7.7.7.7.7.7.7.7.q@:.L.+ . . . V ) W . . ",
". . 0 H I p . . . . . J r@s@c@I.7.7.7.7.`+t@u@@@. . . . . . . . . . . . . . . . . . . . . . . . . . . . . v@w@{+I.7.7.7.7.I.x@y@z@a.. . . . V ) W . . ",
". . 0 F _ 4 . . . . . . J A@B@C@D@|+q.E@j+F@W+-@. . . . . . . . . . . . . . . . . . . . . . . . . . . . . + 3+G@c.{+H@I@J@S.K@L@a.. . . . . G i : . . ",
". . 0 A B 5 . . . . . . . + M.M@N@O@P@Q@Y.R@. . . . . . . . . . . . . . . . . . . . . . . . . . . . . . . . . y.S@T@U@d@V@W@$++ . . . . . . C D E . . ",
". . + w x d . . . . . . . . . + t.e@h.$.+ . . . . . . . . . . . . . . . . . . . . . . . . . . . . . . . . . . . + a.h.e@J + . . . . . . . . y } z . . ",
". . + t i u . . . . . . . . . . . . . . . . . . . . . . . . . . . . . . . . . . . . . . . . . . . . . . . . . . . . . . . . . . . . . . . 0 & v 2 . . ",
". . . m n o p . . . . . . . . . . . . . . . . . . . . . . . . . . . . . . . . . . . . . . . . . . . . . . . . . . . . . . . . . . . . . . q r s + . . ",
". . . . h i j + . . . . . . . . . . . . . . . . . . . . . . . . . . . . . . . . . . . . . . . . . . . . . . . . . . . . . . . . . . . . 2 k ! l . . . ",
". . . . 5 a b # c . . . . . . . . . . . . . . . . . . . . . . . . . . . . . . . . . . . . . . . . . . . . . . . . . . . . . . . . . . d e f g . . . . ",
". . . . . < [ } | 1 2 3 4 4 4 4 4 4 4 4 4 4 4 4 4 4 4 4 4 4 4 4 4 4 4 4 4 4 4 4 4 4 4 4 4 4 4 4 4 4 4 4 4 4 4 4 4 4 4 4 4 4 4 4 5 6 # 7 8 9 0 . . . . ",
". . . . . . > s X@) ! ~ { { { { { { { { { { { { { { { { { { { { { { { { { { { { { { { { { { { { { { { { { { { { { { { { { { { ] ^ / ( _ : + . . . . . ",
". . . . . . . + @ # $ % Y@Y@Y@Y@Y@Y@Y@Y@Y@Y@Y@Y@Y@Y@Y@Y@Y@Y@Y@Y@Y@Y@Y@Y@Y@Y@Y@Y@Y@Y@Y@Y@Y@Y@Y@Y@Y@Y@Y@Y@Y@Y@Y@Y@Y@Y@Y@Y@Y@Y@Y@& Z@= - ; . . . . . . . ",
". . . . . . . . . . . . . . . . . . . . . . . . . . . . . . . . . . . . . . . . . . . . . . . . . . . . . . . . . . . . . . . . . . . . . . . . . . . ",
". . . . . . . . . . . . . . . . . . . . . . . . . . . . . . . . . . . . . . . . . . . . . . . . . . . . . . . . . . . . . . . . . . . . . . . . . . . "};
