/* XPM */
static char * diceno3_xpm[] = {
"75 75 344 2",
"  	c None",
". 	c #FFFFFF",
"+ 	c #FEFEFE",
"@ 	c #FCFCFC",
"# 	c #E2E2E2",
"$ 	c #C7C7C7",
"% 	c #B8B8B8",
"& 	c #B4B4B4",
"* 	c #C8C8C8",
"= 	c #E4E4E4",
"- 	c #CBCBCB",
"; 	c #797979",
"> 	c #393939",
", 	c #2F2F2F",
"' 	c #333333",
") 	c #363636",
"! 	c #2E2E2E",
"~ 	c #3A3A3A",
"{ 	c #7D7D7D",
"] 	c #CFCFCF",
"^ 	c #9F9F9F",
"/ 	c #343434",
"( 	c #4C4C4C",
"_ 	c #989898",
": 	c #D0D0D0",
"< 	c #E6E6E6",
"[ 	c #CECECE",
"} 	c #949494",
"| 	c #494949",
"1 	c #383838",
"2 	c #A5A5A5",
"3 	c #FDFDFD",
"4 	c #9A9A9A",
"5 	c #2A2A2A",
"6 	c #838383",
"7 	c #E7E7E7",
"8 	c #2C2C2C",
"9 	c #A1A1A1",
"0 	c #C3C3C3",
"a 	c #F9F9F9",
"b 	c #F6F6F6",
"c 	c #7C7C7C",
"d 	c #F7F7F7",
"e 	c #696969",
"f 	c #555555",
"g 	c #EAEAEA",
"h 	c #E5E5E5",
"i 	c #4D4D4D",
"j 	c #727272",
"k 	c #FAFAFA",
"l 	c #D1D1D1",
"m 	c #A6A6A6",
"n 	c #313131",
"o 	c #D8D8D8",
"p 	c #A3A3A3",
"q 	c #323232",
"r 	c #DFDFDF",
"s 	c #ABABAB",
"t 	c #848484",
"u 	c #4B4B4B",
"v 	c #F4F4F4",
"w 	c #EEEEEE",
"x 	c #404040",
"y 	c #8D8D8D",
"z 	c #767676",
"A 	c #585858",
"B 	c #F6ECEC",
"C 	c #E2C1C1",
"D 	c #D59F9F",
"E 	c #D09292",
"F 	c #E2C0C0",
"G 	c #F6EDED",
"H 	c #F3F3F3",
"I 	c #7F7F7F",
"J 	c #737373",
"K 	c #5C5C5C",
"L 	c #F8F8F8",
"M 	c #FCF8F8",
"N 	c #D5A2A2",
"O 	c #C35D5D",
"P 	c #C84242",
"Q 	c #D74646",
"R 	c #DB4747",
"S 	c #D64444",
"T 	c #C84141",
"U 	c #C25D5D",
"V 	c #D5A3A3",
"W 	c #515151",
"X 	c #F9F3F3",
"Y 	c #C98181",
"Z 	c #C83F3F",
"` 	c #EC5555",
" .	c #FE6565",
"..	c #FF6666",
"+.	c #EB5555",
"@.	c #C73F3F",
"#.	c #C88181",
"$.	c #F9F4F4",
"%.	c #FEFDFD",
"&.	c #CC8C8C",
"*.	c #C93B3B",
"=.	c #FB6262",
"-.	c #C83B3B",
";.	c #E6C8C8",
">.	c #C34747",
",.	c #F65E5E",
"'.	c #C34848",
").	c #E6C9C9",
"!.	c #CC8888",
"~.	c #D74343",
"{.	c #D74444",
"].	c #CC8A8A",
"^.	c #C16060",
"/.	c #EF5757",
"(.	c #EE5757",
"_.	c #FAF4F4",
":.	c #F8EFEF",
"<.	c #BF5151",
"[.	c #BF5252",
"}.	c #F7EFEF",
"|.	c #F9F2F2",
"1.	c #C05858",
"2.	c #F35B5B",
"3.	c #F8F1F1",
"4.	c #FDFAFA",
"5.	c #C77777",
"6.	c #E14B4B",
"7.	c #E14C4C",
"8.	c #C67676",
"9.	c #FDFBFB",
"0.	c #DBAFAF",
"a.	c #C73D3D",
"b.	c #FD6464",
"c.	c #C93F3F",
"d.	c #C67070",
"e.	c #D94444",
"f.	c #DA4545",
"g.	c #C67171",
"h.	c #EAD1D1",
"i.	c #C46161",
"j.	c #D84343",
"k.	c #FC6363",
"l.	c #FC6464",
"m.	c #D84444",
"n.	c #C56161",
"o.	c #ECD5D5",
"p.	c #C77676",
"q.	c #C74343",
"r.	c #DC4747",
"s.	c #EF5858",
"t.	c #F45C5C",
"u.	c #F05959",
"v.	c #E55454",
"w.	c #C74242",
"x.	c #C77575",
"y.	c #EBD5D5",
"z.	c #FBF6F6",
"A.	c #E0BCBC",
"B.	c #C98282",
"C.	c #C26363",
"D.	c #C05959",
"E.	c #C86E6E",
"F.	c #D99C9C",
"G.	c #E1BDBD",
"H.	c #FBF7F7",
"I.	c #F5EAEA",
"J.	c #DDB5B5",
"K.	c #CC8989",
"L.	c #C87878",
"M.	c #C87A7A",
"N.	c #D09595",
"O.	c #E5C6C6",
"P.	c #FDFCFC",
"Q.	c #D8A9A9",
"R.	c #CB4141",
"S.	c #DD4848",
"T.	c #E85151",
"U.	c #E54F4F",
"V.	c #C54343",
"W.	c #C67373",
"X.	c #E8CDCD",
"Y.	c #CE9292",
"Z.	c #C64343",
"`.	c #EA5353",
" +	c #DB4646",
".+	c #C45959",
"++	c #F55D5D",
"@+	c #C35C5C",
"#+	c #EFDCDC",
"$+	c #C35E5E",
"%+	c #E95353",
"&+	c #D24040",
"*+	c #CD8A8A",
"=+	c #DDB4B4",
"-+	c #F25B5B",
";+	c #C15656",
">+	c #D84545",
",+	c #C23F3F",
"'+	c #E8CECE",
")+	c #CB8585",
"!+	c #DF4A4A",
"~+	c #C53B3B",
"{+	c #E3C2C2",
"]+	c #D94747",
"^+	c #C23E3E",
"/+	c #E8CCCC",
"(+	c #C83D3D",
"_+	c #C25555",
":+	c #F5E9E9",
"<+	c #F5E8E8",
"[+	c #EB5454",
"}+	c #D44141",
"|+	c #CB8787",
"1+	c #D7A6A6",
"2+	c #C64242",
"3+	c #E44E4E",
"4+	c #C45B5B",
"5+	c #EDD9D9",
"6+	c #CD8F8F",
"7+	c #C55858",
"8+	c #DFB9B9",
"9+	c #CB3F3F",
"0+	c #E95252",
"a+	c #E75050",
"b+	c #E55757",
"c+	c #C74444",
"d+	c #E7CACA",
"e+	c #FFFEFE",
"f+	c #F4E8E8",
"g+	c #DBB0B0",
"h+	c #C77474",
"i+	c #C87979",
"j+	c #DFACAC",
"k+	c #FAF5F5",
"l+	c #F3E6E6",
"m+	c #E4C4C4",
"n+	c #DEB3B3",
"o+	c #DFB8B8",
"p+	c #E9CECE",
"q+	c #F8F0F0",
"r+	c #EDD7D7",
"s+	c #CA8383",
"t+	c #C25050",
"u+	c #C84040",
"v+	c #D04242",
"w+	c #CE4242",
"x+	c #C44242",
"y+	c #C36161",
"z+	c #D5A0A0",
"A+	c #DEB6B6",
"B+	c #D54242",
"C+	c #C93E3E",
"D+	c #F3E5E5",
"E+	c #E5C7C7",
"F+	c #C45454",
"G+	c #D03D3D",
"H+	c #C67777",
"I+	c #C83E3E",
"J+	c #C33F3F",
"K+	c #C36666",
"L+	c #D39999",
"M+	c #D54343",
"N+	c #FA6161",
"O+	c #C04343",
"P+	c #C43C3C",
"Q+	c #DF4B4B",
"R+	c #C43E3E",
"S+	c #E7CBCB",
"T+	c #D7A5A5",
"U+	c #CF3F3F",
"V+	c #F75F5F",
"W+	c #C04B4B",
"X+	c #F2E2E2",
"Y+	c #ECD6D6",
"Z+	c #C24A4A",
"`+	c #DF4949",
" @	c #C67575",
".@	c #FCFAFA",
"+@	c #CA8585",
"@@	c #CE3C3C",
"#@	c #C64B4B",
"$@	c #E3C1C1",
"%@	c #C56D6D",
"&@	c #D23F3F",
"*@	c #F05858",
"=@	c #D09797",
"-@	c #747474",
";@	c #5A5A5A",
">@	c #F1E1E1",
",@	c #C84343",
"'@	c #E04B4B",
")@	c #F96161",
"!@	c #F86060",
"~@	c #C45252",
"{@	c #D39D9D",
"]@	c #505050",
"^@	c #7E7E7E",
"/@	c #F5F5F5",
"(@	c #FBF8F8",
"_@	c #DEB7B7",
":@	c #C05555",
"<@	c #C14A4A",
"[@	c #C24F4F",
"}@	c #D27979",
"|@	c #D39898",
"1@	c #F0F0F0",
"2@	c #454545",
"3@	c #878787",
"4@	c #3C3C3C",
"5@	c #F7EEEE",
"6@	c #F2E3E3",
"7@	c #F4E7E7",
"8@	c #FCF9F9",
"9@	c #E3E3E3",
"0@	c #A0A0A0",
"a@	c #C0C0C0",
"b@	c #272727",
"c@	c #BBBBBB",
"d@	c #B3B3B3",
"e@	c #282828",
"f@	c #ECECEC",
"g@	c #707070",
"h@	c #686868",
"i@	c #595959",
"j@	c #F2F2F2",
"k@	c #A4A4A4",
"l@	c #292929",
"m@	c #AAAAAA",
"n@	c #ADADAD",
"o@	c #777777",
"p@	c #AFAFAF",
"q@	c #FBFBFB",
"r@	c #E9E9E9",
"s@	c #303030",
"t@	c #818181",
"u@	c #CDCDCD",
"v@	c #9B9B9B",
"w@	c #5F5F5F",
"x@	c #5E5E5E",
"y@	c #B2B2B2",
"z@	c #8A8A8A",
"A@	c #6B6B6B",
"B@	c #8C8C8C",
"C@	c #B5B5B5",
". . . . . . . . . . . . . . . . . . . . . . . . . . . . . . . . . . . . . . . . . . . . . . . . . . . . . . . . . . . . . . . . . . . . . . . . . . . ",
". . . . . . . . . . . . . . . . . . . . . . . . . . . . . . . . . . . . . . . . . . . . . . . . . . . . . . . . . . . . . . . . . . . . . . . . . . . ",
". . . . . . . . . . . . . . . . . . . . . . . . . . . . . . . . . . . . . . . . . . . . . . . . . . . . . . . . . . . . . . . . . . . . . . . . . . . ",
". . . . . . + @ # $ % & & & & & & & & & & & & & & & & & & & & & & & & & & & & & & & & & & & & & & & & & & & & & & & & & & & & & % * = @ . . . . . . . ",
". . . . . + - ; > , ' ) ) ) ) ) ) ) ) ) ) ) ) ) ) ) ) ) ) ) ) ) ) ) ) ) ) ) ) ) ) ) ) ) ) ) ) ) ) ) ) ) ) ) ) ) ) ) ) ) ) ) ) ) ' ! ~ { ] + . . . . . ",
". . . . @ ^ / ( _ : # < < < < < < < < < < < < < < < < < < < < < < < < < < < < < < < < < < < < < < < < < < < < < < < < < < < < < # [ } | 1 2 3 . . . . ",
". . . + 4 5 6 7 + . . . . . . . . . . . . . . . . . . . . . . . . . . . . . . . . . . . . . . . . . . . . . . . . . . . . . . . . . + = { 8 9 + . . . ",
". . . 0 ' 6 a . . . . . . . . . . . . . . . . . . . . . . . . . . . . . . . . . . . . . . . . . . . . . . . . . . . . . . . . . . . . . b c 1 - . . . ",
". . d e f g . . . . . . . . . . . . . . . . . . . . . . . . . . . . . . . . . . . . . . . . . . . . . . . . . . . . . . . . . . . . . . . h i j k . . ",
". . l 8 m + . . . . . . . . . . . . . . . . . . . . . . . . . . . . . . . . . . . . . . . . . . . . . . . . . . . . . . . . . . . . . . . + ^ n o . . ",
". . p q r . . . . . . . . . . . . . . . . . . . . . . . . . . . . . . . . . . . . . . . . . . . . . . . . . . . . . . . . . . . . . . . . . o 8 s . . ",
". . t u v . . . . . . . . . . . . . . . . . . . . . . . . . . . . . . . . . . . . . . . . . . . . . . . . . . . . . . . . . . . . . . . . . w x y . . ",
". . z A d . . . . . . . . + B C D E D F G + . . . . . . . . . . . . . . . . . . . . . . . . . . . . . . . . . . . . . . . . . . . . . . . . H i I . . ",
". . J K L . . . . . . . M N O P Q R S T U V M . . . . . . . . . . . . . . . . . . . . . . . . . . . . . . . . . . . . . . . . . . . . . . . v W c . . ",
". . J K L . . . . . . X Y Z `  ....... .+.@.#.$.. . . . . . . . . . . . . . . . . . . . . . . . . . . . . . . . . . . . . . . . . . . . . . v W c . . ",
". . J K L . . . . . %.&.*.=...............=.-.&.%.. . . . . . . . . . . . . . . . . . . . . . . . . . . . . . . . . . . . . . . . . . . . . v W c . . ",
". . J K L . . . . . ;.>.,...................,.'.).. . . . . . . . . . . . . . . . . . . . . . . . . . . . . . . . . . . . . . . . . . . . . v W c . . ",
". . J K L . . . . + !.~.......................{.].+ . . . . . . . . . . . . . . . . . . . . . . . . . . . . . . . . . . . . . . . . . . . . v W c . . ",
". . J K L . . . . X ^./.......................(.^._.. . . . . . . . . . . . . . . . . . . . . . . . . . . . . . . . . . . . . . . . . . . . v W c . . ",
". . J K L . . . . :.<.,.......................,.[.}.. . . . . . . . . . . . . . . . . . . . . . . . . . . . . . . . . . . . . . . . . . . . v W c . . ",
". . J K L . . . . |.1.2.......................2.1.3.. . . . . . . . . . . . . . . . . . . . . . . . . . . . . . . . . . . . . . . . . . . . v W c . . ",
". . J K L . . . . 4.5.6.......................7.8.9.. . . . . . . . . . . . . . . . . . . . . . . . . . . . . . . . . . . . . . . . . . . . v W c . . ",
". . J K L . . . . . 0.a.b...................b.c.0.. . . . . . . . . . . . . . . . . . . . . . . . . . . . . . . . . . . . . . . . . . . . . v W c . . ",
". . J K L . . . . . X d.e. ............... .f.g.|.. . . . . . . . . . . . . . . . . . . . . . . . . . . . . . . . . . . . . . . . . . . . . v W c . . ",
". . J K L . . . . . . h.i.j.k...........l.m.n.h.. . . . . . . . . . . . . . . . . . . . . . . . . . . . . . . . . . . . . . . . . . . . . . v W c . . ",
". . J K L . . . . . . . o.p.q.r.s.t.u.v.w.x.y.. . . . . . . . . . . . . . . . . . . . . . . . . . . . . . . . . . . . . . . . . . . . . . . v W c . . ",
". . J K L . . . . . . . . z.A.B.C.D.E.F.G.z.. . . . . . . . . . . . . . . . . . . . . . . . . . . . . . . . . . . . . . . . . . . . . . . . v W c . . ",
". . J K L . . . . . . . . . . %.H._.H.+ . . . . . . . . . . . . . . . . . . . . . . . . . . . . . . . . . . . . . . . . . . . . . . . . . . v W c . . ",
". . J K L . . . . . . . . . . . . . . . . . . . . . . . . . . . . . . . . . . . . . . . . . . . . . . . . . . . . . . . . . . . . . . . . . v W c . . ",
". . J K L . . . . . . . . . . . . . . . . . . . . . . . . . . . . . . . . . . . . . . . . . . . . . . . . . . . . . . . . . . . . . . . . . v W c . . ",
". . J K L . . . . . . . . . . . . . . . . . . . . . . . . . . . . . . . %.4.9.+ . . . . . . . . . . . . . . . . . . . . . . . . . . . . . . v W c . . ",
". . J K L . . . . . . . . . . . . . . . . . . . . . . . . . . . . + I.J.K.L.M.N.O.z.. . . . . . . . . . . . . . . . . . . . . . . . . . . . v W c . . ",
". . J K L . . . . . . . . . . . . . . . . . . . . . . . . . . . P.Q.U R.S.T.U.S V.W.X.+ . . . . . . . . . . . . . . . . . . . . . . . . . . v W c . . ",
". . J K L . . . . . . . . . . . . . . . . . . . . . . . . . . P.Y.Z.`. .........k. +.+A.. . . . . . . . . . . . . . . . . . . . . . . . . . v W c . . ",
". . J K L . . . . . . . . . . . . . . . . . . . . . . . . . + Q.V.++.............. .6.@+#+. . . . . . . . . . . . . . . . . . . . . . . . . v W c . . ",
". . J K L . . . . . . . . . . . . . . . . . . . . . . . . . I.$+%+.................. .&+*+%.. . . . . . . . . . . . . . . . . . . . . . . . v W c . . ",
". . J K L . . . . . . . . . . . . . . . . . . . . . . . . . =+a. .....................-+;+I.. . . . . . . . . . . . . . . . . . . . . . . . v W c . . ",
". . J K L . . . . . . . . . . . . . . . . . . . . . . . . . E >+......................k.,+'+. . . . . . . . . . . . . . . . . . . . . . . . v W c . . ",
". . J K L . . . . . . . . . . . . . . . . . . . . . . . . . )+!+...................... .~+{+. . . . . . . . . . . . . . . . . . . . . . . . v W c . . ",
". . J K L . . . . . . . . . . . . . . . . . . . . . . . . . E ]+......................l.^+/+. . . . . . . . . . . . . . . . . . . . . . . . v W c . . ",
". . J K L . . . . . . . . . . . . . . . . . . . . . . . . . J.(+ .....................t._+:+. . . . . . . . . . . . . . . . . . . . . . . . v W c . . ",
". . J K L . . . . . . . . . . . . . . . . . . . . . . . . . <+@+[+.................. .}+|+%.. . . . . . . . . . . . . . . . . . . . . . . . v W c . . ",
". . J K L . . . . . . . . . . . . . . . . . . . . . . . . . + 1+2+,.................3+4+5+. . . . . . . . . . . . . . . . . . . . . . . . . v W c . . ",
". . J K L . . . . . . . . . . . . . . . . . . . . . . . . . . 9.6+q.+. .........k.S.7+8+. . . . . . . . . . . . . . . . . . . . . . . . . . v W c . . ",
". . J K L . . . . . . . . . . . . . . . . . . . . . . . . . . . 9.1+@+9+S.0+a+b+c+g.d+e+. . . . . . . . . . . . . . . . . . . . . . . . . . v W c . . ",
". . J K L . . . . . . . . . . . . . . . . . . . . . . . . . . . . + f+g+)+h+i+j+d+k+. . . . . . . . . . . . . . . . . . . . . . . . . . . . v W c . . ",
". . J K L . . . . . . . . . . . . . . . . . . . . . . . . . . . . . . . %.4.9.+ . . . . . . . . . . . . . . . . . . . . . . . . . . . . . . v W c . . ",
". . J K L . . . . . . . . . . . . . . . . . . . . . . . . . . . . . . . . . . . . . . . . . . . . . . . . . . . . . . . . . . . . . . . . . v W c . . ",
". . J K L . . . . . . . . . . . . . . . . . . . . . . . . . . . . . . . . . . . . . . . . . . . . . . . . . . . . . . . . . . . . . . . . . v W c . . ",
". . J K L . . . . . . . . . . . . . . . . . . . . . . . . . . . . . . . . . . . . . . . . . . . . . . . . . P.l+m+n+o+p+q+. . . . . . . . . v W c . . ",
". . J K L . . . . . . . . . . . . . . . . . . . . . . . . . . . . . . . . . . . . . . . . . . . . . . . . r+s+t+u+v+w+x+y+z+$.. . . . . . . v W c . . ",
". . J K L . . . . . . . . . . . . . . . . . . . . . . . . . . . . . . . . . . . . . . . . . . . . . . + A+.+B+++ .....k.` C+p.D+. . . . . . v W c . . ",
". . J K L . . . . . . . . . . . . . . . . . . . . . . . . . . . . . . . . . . . . . . . . . . . . . . E+F+U...............l.G+H+_.. . . . . v W c . . ",
". . J K L . . . . . . . . . . . . . . . . . . . . . . . . . . . . . . . . . . . . . . . . . . . . . k+d.S...................k.I+1++ . . . . v W c . . ",
". . J K L . . . . . . . . . . . . . . . . . . . . . . . . . . . . . . . . . . . . . . . . . . . . . {+J+k.....................0+K+k+. . . . v W c . . ",
". . J K L . . . . . . . . . . . . . . . . . . . . . . . . . . . . . . . . . . . . . . . . . . . . . L+M+......................N+O+5+. . . . v W c . . ",
". . J K L . . . . . . . . . . . . . . . . . . . . . . . . . . . . . . . . . . . . . . . . . . . . . s+7....................... .P+;.. . . . v W c . . ",
". . J K L . . . . . . . . . . . . . . . . . . . . . . . . . . . . . . . . . . . . . . . . . . . . . !.Q+......................b.R+S+. . . . v W c . . ",
". . J K L . . . . . . . . . . . . . . . . . . . . . . . . . . . . . . . . . . . . . . . . . . . . . T+U+ .....................V+W+X+. . . . v W c . . ",
". . J K L . . . . . . . . . . . . . . . . . . . . . . . . . . . . . . . . . . . . . . . . . . . . . Y+Z+,.....................`+ @.@. . . . v W c . . ",
". . J K L . . . . . . . . . . . . . . . . . . . . . . . . . . . . . . . . . . . . . . . . . . . . . %.+@@@ .................t.#@$@. . . . . v W c . . ",
". . J K L . . . . . . . . . . . . . . . . . . . . . . . . . . . . . . . . . . . . . . . . . . . . . . l+%@&@k.............*@w.=@%.. . . . . v W c . . ",
". . -@;@L . . . . . . . . . . . . . . . . . . . . . . . . . . . . . . . . . . . . . . . . . . . . . . . >@M.,@'@t.)@!@,.B+~@{@P.. . . . . . v ]@{ . . ",
". . ^@]@/@. . . . . . . . . . . . . . . . . . . . . . . . . . . . . . . . . . . . . . . . . . . . . . . . (@_@H+:@<@[@}@|@o.+ . . . . . . . 1@2@3@. . ",
". . _ 4@g . . . . . . . . . . . . . . . . . . . . . . . . . . . . . . . . . . . . . . . . . . . . . . . . . . 4.5@6@7@8@+ . . . . . . . . . 9@/ 0@. . ",
". . a@b@c@. . . . . . . . . . . . . . . . . . . . . . . . . . . . . . . . . . . . . . . . . . . . . . . . . . . . . . . . . . . . . . . . + d@e@$ . . ",
". . f@]@g@k . . . . . . . . . . . . . . . . . . . . . . . . . . . . . . . . . . . . . . . . . . . . . . . . . . . . . . . . . . . . . . . L h@i@j@. . ",
". . + k@l@m@+ . . . . . . . . . . . . . . . . . . . . . . . . . . . . . . . . . . . . . . . . . . . . . . . . . . . . . . . . . . . . . + p l@n@. . . ",
". . . b o@1 p@@ . . . . . . . . . . . . . . . . . . . . . . . . . . . . . . . . . . . . . . . . . . . . . . . . . . . . . . . . . . . q@m@' ^@L . . . ",
". . . . r@J s@t@: /@a k k k k k k k k k k k k k k k k k k k k k k k k k k k k k k k k k k k k k k k k k k k k k k k k k k k k k a v u@{ , ; w . . . . ",
". . . . . v v@x , i w@h@h@h@h@h@h@h@h@h@h@h@h@h@h@h@h@h@h@h@h@h@h@h@h@h@h@h@h@h@h@h@h@h@h@h@h@h@h@h@h@h@h@h@h@h@h@h@h@h@h@h@h@h@x@( ! 2@0@d . . . . . ",
". . . . . . + 9@y@z@J A@A@A@A@A@A@A@A@A@A@A@A@A@A@A@A@A@A@A@A@A@A@A@A@A@A@A@A@A@A@A@A@A@A@A@A@A@A@A@A@A@A@A@A@A@A@A@A@A@A@A@A@A@-@B@C@h + . . . . . . ",
". . . . . . . . + + + + + + + + + + + + + + + + + + + + + + + + + + + + + + + + + + + + + + + + + + + + + + + + + + + + + + + + + + + . . . . . . . . ",
". . . . . . . . . . . . . . . . . . . . . . . . . . . . . . . . . . . . . . . . . . . . . . . . . . . . . . . . . . . . . . . . . . . . . . . . . . . ",
". . . . . . . . . . . . . . . . . . . . . . . . . . . . . . . . . . . . . . . . . . . . . . . . . . . . . . . . . . . . . . . . . . . . . . . . . . . "};
