/* XPM */
static char * diceno1_xpm[] = {
"75 75 204 2",
"  	c None",
". 	c #FFFFFF",
"+ 	c #FDFDFD",
"@ 	c #E8E8E8",
"# 	c #C8C8C8",
"$ 	c #B6B6B6",
"% 	c #AFAFAF",
"& 	c #AEAEAE",
"* 	c #B2B2B2",
"= 	c #BEBEBE",
"- 	c #D9D9D9",
"; 	c #F7F7F7",
"> 	c #FEFEFE",
", 	c #E1E1E1",
"' 	c #8A8A8A",
") 	c #434343",
"! 	c #2A2A2A",
"~ 	c #303030",
"{ 	c #363636",
"] 	c #343434",
"^ 	c #2C2C2C",
"/ 	c #656565",
"( 	c #B9B9B9",
"_ 	c #FCFCFC",
": 	c #C2C2C2",
"< 	c #4E4E4E",
"[ 	c #3A3A3A",
"} 	c #888888",
"| 	c #C3C3C3",
"1 	c #DCDCDC",
"2 	c #E3E3E3",
"3 	c #D3D3D3",
"4 	c #A8A8A8",
"5 	c #5D5D5D",
"6 	c #2D2D2D",
"7 	c #F6F6F6",
"8 	c #C9C9C9",
"9 	c #616161",
"0 	c #D0D0D0",
"a 	c #F2F2F2",
"b 	c #949494",
"c 	c #F0F0F0",
"d 	c #606060",
"e 	c #575757",
"f 	c #E0E0E0",
"g 	c #959595",
"h 	c #B5B5B5",
"i 	c #A9A9A9",
"j 	c #2F2F2F",
"k 	c #BFBFBF",
"l 	c #F5F5F5",
"m 	c #676767",
"n 	c #5C5C5C",
"o 	c #F3F3F3",
"p 	c #F8F8F8",
"q 	c #626262",
"r 	c #F9F9F9",
"s 	c #BCBCBC",
"t 	c #2E2E2E",
"u 	c #C5C5C5",
"v 	c #DFDFDF",
"w 	c #353535",
"x 	c #A6A6A6",
"y 	c #EDEDED",
"z 	c #969696",
"A 	c #CCCCCC",
"B 	c #CFCFCF",
"C 	c #5F5F5F",
"D 	c #747474",
"E 	c #DDDDDD",
"F 	c #FBFBFB",
"G 	c #707070",
"H 	c #636363",
"I 	c #FAFAFA",
"J 	c #BDBDBD",
"K 	c #323232",
"L 	c #767676",
"M 	c #5E5E5E",
"N 	c #FDFCFC",
"O 	c #F5E9E9",
"P 	c #EEDADA",
"Q 	c #FDFBFB",
"R 	c #FEFDFD",
"S 	c #E3C3C3",
"T 	c #C87D7D",
"U 	c #C15252",
"V 	c #C14343",
"W 	c #C14444",
"X 	c #C05151",
"Y 	c #C97D7D",
"Z 	c #FCF9F9",
"` 	c #CE9090",
" .	c #C44848",
"..	c #DB4646",
"+.	c #F65E5E",
"@.	c #FB6363",
"#.	c #F55D5D",
"$.	c #DC4747",
"%.	c #CE9191",
"&.	c #FCF8F8",
"*.	c #FEFCFC",
"=.	c #C73E3E",
"-.	c #FF6666",
";.	c #E3C1C1",
">.	c #C54949",
",.	c #C64A4A",
"'.	c #FCFAFA",
").	c #C77777",
"!.	c #DF4949",
"~.	c #DE4949",
"{.	c #C77878",
"].	c #FDFAFA",
"^.	c #F4E6E6",
"/.	c #C14E4E",
"(.	c #F75E5E",
"_.	c #C15050",
":.	c #F3E6E6",
"<.	c #EBD3D3",
"[.	c #C44242",
"}.	c #FC6464",
"|.	c #FD6464",
"1.	c #E9CFCF",
"2.	c #C54040",
"3.	c #FE6565",
"4.	c #C64040",
"5.	c #EFDDDD",
"6.	c #C14646",
"7.	c #FA6262",
"8.	c #C14545",
"9.	c #EEDBDB",
"0.	c #FAF4F4",
"a.	c #C36464",
"b.	c #EC5555",
"c.	c #ED5656",
"d.	c #C46464",
"e.	c #F9F3F3",
"f.	c #D49F9F",
"g.	c #CC3E3E",
"h.	c #D49E9E",
"i.	c #F7EEEE",
"j.	c #C46B6B",
"k.	c #D94444",
"l.	c #DA4545",
"m.	c #C56C6C",
"n.	c #EBD5D5",
"o.	c #C66868",
"p.	c #D24040",
"q.	c #F75F5F",
"r.	c #C76868",
"s.	c #EBD4D4",
"t.	c #F0E0E0",
"u.	c #CA8484",
"v.	c #C14949",
"w.	c #CB3D3D",
"x.	c #DA4848",
"y.	c #DB4848",
"z.	c #DA5151",
"A.	c #C54E4E",
"B.	c #EDD9D9",
"C.	c #DAAEAE",
"D.	c #D29797",
"E.	c #D39898",
"F.	c #E6C2C2",
"G.	c #313131",
"H.	c #757575",
"I.	c #C4C4C4",
"J.	c #D8D8D8",
"K.	c #6A6A6A",
"L.	c #696969",
"M.	c #C1C1C1",
"N.	c #545454",
"O.	c #808080",
"P.	c #EBEBEB",
"Q.	c #414141",
"R.	c #898989",
"S.	c #818181",
"T.	c #4A4A4A",
"U.	c #979797",
"V.	c #DADADA",
"W.	c #CBCBCB",
"X.	c #939393",
"Y.	c #D6D6D6",
"Z.	c #424242",
"`.	c #828282",
" +	c #8D8D8D",
".+	c #4D4D4D",
"++	c #797979",
"@+	c #8C8C8C",
"#+	c #E4E4E4",
"$+	c #B8B8B8",
"%+	c #565656",
"&+	c #8E8E8E",
"*+	c #404040",
"=+	c #6E6E6E",
"-+	c #929292",
";+	c #7F7F7F",
">+	c #292929",
",+	c #CACACA",
"'+	c #D2D2D2",
")+	c #454545",
"!+	c #3D3D3D",
"~+	c #787878",
"{+	c #EFEFEF",
"]+	c #ECECEC",
". . . . . . . . . . . . . . . . . . . . . . . . . . . . . . . . . . . . . . . . . . . . . . . . . . . . . . . . . . . . . . . . . . . . . . . . . . . ",
". . . . . . . . . . . . . . . . . . . . . . . . . . . . . . . . . . . . . . . . . . . . . . . . . . . . . . . . . . . . . . . . . . . . . . . . . . . ",
". . . . . . . . . . . . . . . . . . . . . . . . . . . . . . . . . . . . . . . . . . . . . . . . . . . . . . . . . . . . . . . . . . . . . . . . . . . ",
". . . . . . . . + @ # $ % & & & & & & & & & & & & & & & & & & & & & & & & & & & & & & & & & & & & & & & & & & & & & & & & & & * = - ; . . . . . . . . ",
". . . . . . > , ' ) ! ~ { { { { { { { { { { { { { { { { { { { { { { { { { { { { { { { { { { { { { { { { { { { { { { { { { { { ] ^ ~ / ( _ . . . . . . ",
". . . . . > : < [ } | 1 2 2 2 2 2 2 2 2 2 2 2 2 2 2 2 2 2 2 2 2 2 2 2 2 2 2 2 2 2 2 2 2 2 2 2 2 2 2 2 2 2 2 2 2 2 2 2 2 2 2 2 , 3 4 5 6 ' 7 . . . . . ",
". . . . . 8 ) 9 0 > . . . . . . . . . . . . . . . . . . . . . . . . . . . . . . . . . . . . . . . . . . . . . . . . . . . . . . . . a b ^ ' _ . . . . ",
". . . . c d e f . . . . . . . . . . . . . . . . . . . . . . . . . . . . . . . . . . . . . . . . . . . . . . . . . . . . . . . . . . . + g ! h . . . . ",
". . . > i j k . . . . . . . . . . . . . . . . . . . . . . . . . . . . . . . . . . . . . . . . . . . . . . . . . . . . . . . . . . . . . l m n o . . . ",
". . . p q m r . . . . . . . . . . . . . . . . . . . . . . . . . . . . . . . . . . . . . . . . . . . . . . . . . . . . . . . . . . . . . . s t u . . . ",
". . . v w x > . . . . . . . . . . . . . . . . . . . . . . . . . . . . . . . . . . . . . . . . . . . . . . . . . . . . . . . . . . . . . . y ) z > . . ",
". . . A t B . . . . . . . . . . . . . . . . . . . . . . . . . . . . . . . . . . . . . . . . . . . . . . . . . . . . . . . . . . . . . . . r C D > . . ",
". . . k ~ E . . . . . . . . . . . . . . . . . . . . . . . . . . . . . . . . . . . . . . . . . . . . . . . . . . . . . . . . . . . . . . . F G H I . . ",
". . . J K v . . . . . . . . . . . . . . . . . . . . . . . . . . . . . . . . . . . . . . . . . . . . . . . . . . . . . . . . . . . . . . . _ L M r . . ",
". . . J K v . . . . . . . . . . . . . . . . . . . . . . . . . . . . . . . . . . . . . . . . . . . . . . . . . . . . . . . . . . . . . . . _ L M r . . ",
". . . J K v . . . . . . . . . . . . . . . . . . . . . . . . . . . . . . . . . . . . . . . . . . . . . . . . . . . . . . . . . . . . . . . _ L M r . . ",
". . . J K v . . . . . . . . . . . . . . . . . . . . . . . . . . . . . . . . . . . . . . . . . . . . . . . . . . . . . . . . . . . . . . . _ L M r . . ",
". . . J K v . . . . . . . . . . . . . . . . . . . . . . . . . . . . . . . . . . . . . . . . . . . . . . . . . . . . . . . . . . . . . . . _ L M r . . ",
". . . J K v . . . . . . . . . . . . . . . . . . . . . . . . . . . . . . . . . . . . . . . . . . . . . . . . . . . . . . . . . . . . . . . _ L M r . . ",
". . . J K v . . . . . . . . . . . . . . . . . . . . . . . . . . . . . . . . . . . . . . . . . . . . . . . . . . . . . . . . . . . . . . . _ L M r . . ",
". . . J K v . . . . . . . . . . . . . . . . . . . . . . . . . . . . . . . . . . . . . . . . . . . . . . . . . . . . . . . . . . . . . . . _ L M r . . ",
". . . J K v . . . . . . . . . . . . . . . . . . . . . . . . . . . . . . . . . . . . . . . . . . . . . . . . . . . . . . . . . . . . . . . _ L M r . . ",
". . . J K v . . . . . . . . . . . . . . . . . . . . . . . . . . . . . . . . . . . . . . . . . . . . . . . . . . . . . . . . . . . . . . . _ L M r . . ",
". . . J K v . . . . . . . . . . . . . . . . . . . . . . . . . . . . . . . . . . . . . . . . . . . . . . . . . . . . . . . . . . . . . . . _ L M r . . ",
". . . J K v . . . . . . . . . . . . . . . . . . . . . . . . . . . . . . . . . . . . . . . . . . . . . . . . . . . . . . . . . . . . . . . _ L M r . . ",
". . . J K v . . . . . . . . . . . . . . . . . . . . . . . . . . . . . . . . . . . . . . . . . . . . . . . . . . . . . . . . . . . . . . . _ L M r . . ",
". . . J K v . . . . . . . . . . . . . . . . . . . . . . . . . . . . . . . . . . . . . . . . . . . . . . . . . . . . . . . . . . . . . . . _ L M r . . ",
". . . J K v . . . . . . . . . . . . . . . . . . . . . . . . . . . . . . . . . . . . . . . . . . . . . . . . . . . . . . . . . . . . . . . _ L M r . . ",
". . . J K v . . . . . . . . . . . . . . . . . . . . . . . . . . . . . . . . . . . . . . . . . . . . . . . . . . . . . . . . . . . . . . . _ L M r . . ",
". . . J K v . . . . . . . . . . . . . . . . . . . . . . . . . . . . . . . . . . . . . . . . . . . . . . . . . . . . . . . . . . . . . . . _ L M r . . ",
". . . J K v . . . . . . . . . . . . . . . . . . . . . . . . . . . . . . . . . . . . . . . . . . . . . . . . . . . . . . . . . . . . . . . _ L M r . . ",
". . . J K v . . . . . . . . . . . . . . . . . . . . . . . . . . . . . N O P P O Q . . . . . . . . . . . . . . . . . . . . . . . . . . . . _ L M r . . ",
". . . J K v . . . . . . . . . . . . . . . . . . . . . . . . . . . R S T U V W X Y S R . . . . . . . . . . . . . . . . . . . . . . . . . . _ L M r . . ",
". . . J K v . . . . . . . . . . . . . . . . . . . . . . . . . . Z `  ...+.@.@.#.$. .%.&.. . . . . . . . . . . . . . . . . . . . . . . . . _ L M r . . ",
". . . J K v . . . . . . . . . . . . . . . . . . . . . . . . . *.%.=.#.-.-.-.-.-.-.#.=.%.N . . . . . . . . . . . . . . . . . . . . . . . . _ L M r . . ",
". . . J K v . . . . . . . . . . . . . . . . . . . . . . . . . ;.>.#.-.-.-.-.-.-.-.-.#.,.;.. . . . . . . . . . . . . . . . . . . . . . . . _ L M r . . ",
". . . J K v . . . . . . . . . . . . . . . . . . . . . . . . '.).!.-.-.-.-.-.-.-.-.-.-.~.{.].. . . . . . . . . . . . . . . . . . . . . . . _ L M r . . ",
". . . J K v . . . . . . . . . . . . . . . . . . . . . . . . ^./.+.-.-.-.-.-.-.-.-.-.-.(._.:.. . . . . . . . . . . . . . . . . . . . . . . _ L M r . . ",
". . . J K v . . . . . . . . . . . . . . . . . . . . . . . . <.[.}.-.-.-.-.-.-.-.-.-.-.|.[.<.. . . . . . . . . . . . . . . . . . . . . . . _ L M r . . ",
". . . J K v . . . . . . . . . . . . . . . . . . . . . . . . 1.2.3.-.-.-.-.-.-.-.-.-.-.3.4.1.. . . . . . . . . . . . . . . . . . . . . . . _ L M r . . ",
". . . J K v . . . . . . . . . . . . . . . . . . . . . . . . 5.6.7.-.-.-.-.-.-.-.-.-.-.7.8.9.. . . . . . . . . . . . . . . . . . . . . . . _ L M r . . ",
". . . J K v . . . . . . . . . . . . . . . . . . . . . . . . 0.a.b.-.-.-.-.-.-.-.-.-.-.c.d.e.. . . . . . . . . . . . . . . . . . . . . . . _ L M r . . ",
". . . J K v . . . . . . . . . . . . . . . . . . . . . . . . > f.g.3.-.-.-.-.-.-.-.-.3.g.h.> . . . . . . . . . . . . . . . . . . . . . . . _ L M r . . ",
". . . J K v . . . . . . . . . . . . . . . . . . . . . . . . . i.j.k.3.-.-.-.-.-.-.3.l.m.i.. . . . . . . . . . . . . . . . . . . . . . . . _ L M r . . ",
". . . J K v . . . . . . . . . . . . . . . . . . . . . . . . . . n.o.p.q.3.-.-.-.q.p.r.s.. . . . . . . . . . . . . . . . . . . . . . . . . _ L M r . . ",
". . . J K v . . . . . . . . . . . . . . . . . . . . . . . . . . > t.u.v.w.x.y.z.A.u.t.. . . . . . . . . . . . . . . . . . . . . . . . . . _ L M r . . ",
". . . J K v . . . . . . . . . . . . . . . . . . . . . . . . . . . . N B.C.D.E.F.5.N . . . . . . . . . . . . . . . . . . . . . . . . . . . _ L M r . . ",
". . . J K v . . . . . . . . . . . . . . . . . . . . . . . . . . . . . . > R R > . . . . . . . . . . . . . . . . . . . . . . . . . . . . . _ L M r . . ",
". . . J K v . . . . . . . . . . . . . . . . . . . . . . . . . . . . . . . . . . . . . . . . . . . . . . . . . . . . . . . . . . . . . . . _ L M r . . ",
". . . J K v . . . . . . . . . . . . . . . . . . . . . . . . . . . . . . . . . . . . . . . . . . . . . . . . . . . . . . . . . . . . . . . _ L M r . . ",
". . . J K v . . . . . . . . . . . . . . . . . . . . . . . . . . . . . . . . . . . . . . . . . . . . . . . . . . . . . . . . . . . . . . . _ L M r . . ",
". . . J K v . . . . . . . . . . . . . . . . . . . . . . . . . . . . . . . . . . . . . . . . . . . . . . . . . . . . . . . . . . . . . . . _ L M r . . ",
". . . J K v . . . . . . . . . . . . . . . . . . . . . . . . . . . . . . . . . . . . . . . . . . . . . . . . . . . . . . . . . . . . . . . _ L M r . . ",
". . . J K v . . . . . . . . . . . . . . . . . . . . . . . . . . . . . . . . . . . . . . . . . . . . . . . . . . . . . . . . . . . . . . . _ L M r . . ",
". . . J K v . . . . . . . . . . . . . . . . . . . . . . . . . . . . . . . . . . . . . . . . . . . . . . . . . . . . . . . . . . . . . . . _ L M r . . ",
". . . J K v . . . . . . . . . . . . . . . . . . . . . . . . . . . . . . . . . . . . . . . . . . . . . . . . . . . . . . . . . . . . . . . _ L M r . . ",
". . . J K v . . . . . . . . . . . . . . . . . . . . . . . . . . . . . . . . . . . . . . . . . . . . . . . . . . . . . . . . . . . . . . . _ L M r . . ",
". . . J K v . . . . . . . . . . . . . . . . . . . . . . . . . . . . . . . . . . . . . . . . . . . . . . . . . . . . . . . . . . . . . . . _ L M r . . ",
". . . J K v . . . . . . . . . . . . . . . . . . . . . . . . . . . . . . . . . . . . . . . . . . . . . . . . . . . . . . . . . . . . . . . _ L M r . . ",
". . . J K v . . . . . . . . . . . . . . . . . . . . . . . . . . . . . . . . . . . . . . . . . . . . . . . . . . . . . . . . . . . . . . . _ L M r . . ",
". . . J K v . . . . . . . . . . . . . . . . . . . . . . . . . . . . . . . . . . . . . . . . . . . . . . . . . . . . . . . . . . . . . . . _ L M r . . ",
". . . J K v . . . . . . . . . . . . . . . . . . . . . . . . . . . . . . . . . . . . . . . . . . . . . . . . . . . . . . . . . . . . . . . _ L M r . . ",
". . . J K v . . . . . . . . . . . . . . . . . . . . . . . . . . . . . . . . . . . . . . . . . . . . . . . . . . . . . . . . . . . . . . . _ L M r . . ",
". . . J G.v . . . . . . . . . . . . . . . . . . . . . . . . . . . . . . . . . . . . . . . . . . . . . . . . . . . . . . . . . . . . . . . _ H.C r . . ",
". . . I.j J.. . . . . . . . . . . . . . . . . . . . . . . . . . . . . . . . . . . . . . . . . . . . . . . . . . . . . . . . . . . . . . . I K.L._ . . ",
". . . 3 t M.. . . . . . . . . . . . . . . . . . . . . . . . . . . . . . . . . . . . . . . . . . . . . . . . . . . . . . . . . . . . . . . ; N.O.> . . ",
". . . P.Q.R.> . . . . . . . . . . . . . . . . . . . . . . . . . . . . . . . . . . . . . . . . . . . . . . . . . . . . . . . . . . . . . . E ] i > . . ",
". . . + S.T.P.. . . . . . . . . . . . . . . . . . . . . . . . . . . . . . . . . . . . . . . . . . . . . . . . . . . . . . . . . . . . . > U.w V.. . . ",
". . . . W.~ X.> . . . . . . . . . . . . . . . . . . . . . . . . . . . . . . . . . . . . . . . . . . . . . . . . . . . . . . . . . . . . Y.Z.`.+ . . . ",
". . . . >  +~ i + . . . . . . . . . . . . . . . . . . . . . . . . . . . . . . . . . . . . . . . . . . . . . . . . . . . . . . . . . > f H .+1 . . . . ",
". . . . . a ++6 @+#+_ . . . . . . . . . . . . . . . . . . . . . . . . . . . . . . . . . . . . . . . . . . . . . . . . . . . . . > l $+%+Z.k > . . . . ",
". . . . . . o &+] *+=+@+z z z z z z z z z z z z z z z z z z z z z z z z z z z z z z z z z z z z z z z z z z z z z z z z z z z -+;+e >+q ,+> . . . . . ",
". . . . . . . > '+-+M )+!+!+!+!+!+!+!+!+!+!+!+!+!+!+!+!+!+!+!+!+!+!+!+!+!+!+!+!+!+!+!+!+!+!+!+!+!+!+!+!+!+!+!+!+!+!+!+!+!+!+!+Q.< ~+* a . . . . . . . ",
". . . . . . . . . > 7 {+]+]+]+]+]+]+]+]+]+]+]+]+]+]+]+]+]+]+]+]+]+]+]+]+]+]+]+]+]+]+]+]+]+]+]+]+]+]+]+]+]+]+]+]+]+]+]+]+]+]+]+]+o _ . . . . . . . . . ",
". . . . . . . . . . . . . . . . . . . . . . . . . . . . . . . . . . . . . . . . . . . . . . . . . . . . . . . . . . . . . . . . . . . . . . . . . . . "};
