/* XPM */
static char * diceno6_xpm[] = {
"75 75 386 2",
"  	c None",
". 	c #FFFFFF",
"+ 	c #FBFBFB",
"@ 	c #E4E4E4",
"# 	c #CCCCCC",
"$ 	c #BFBFBF",
"% 	c #BDBDBD",
"& 	c #FEFEFE",
"* 	c #C8C8C8",
"= 	c #757575",
"- 	c #3C3C3C",
"; 	c #282828",
"> 	c #292929",
", 	c #2B2B2B",
"' 	c #F9F9F9",
") 	c #949494",
"! 	c #333333",
"~ 	c #494949",
"{ 	c #939393",
"] 	c #D2D2D2",
"^ 	c #D6D6D6",
"/ 	c #FCFCFC",
"( 	c #8D8D8D",
"_ 	c #272727",
": 	c #868686",
"< 	c #E6E6E6",
"[ 	c #AEAEAE",
"} 	c #2A2A2A",
"| 	c #8F8F8F",
"1 	c #FAFAFA",
"2 	c #EDEDED",
"3 	c #525252",
"4 	c #696969",
"5 	c #F4F4F4",
"6 	c #B1B1B1",
"7 	c #262626",
"8 	c #7A7A7A",
"9 	c #484848",
"0 	c #EFEFEF",
"a 	c #F5F5F5",
"b 	c #535353",
"c 	c #F1F1F1",
"d 	c #434343",
"e 	c #8B8B8B",
"f 	c #FEFDFD",
"g 	c #FAF4F4",
"h 	c #F4E7E7",
"i 	c #F2E4E4",
"j 	c #F6EBEB",
"k 	c #FCFAFA",
"l 	c #FBF7F7",
"m 	c #F5EAEA",
"n 	c #F2E3E3",
"o 	c #F5E9E9",
"p 	c #FBF8F8",
"q 	c #FAF5F5",
"r 	c #F4E8E8",
"s 	c #F0F0F0",
"t 	c #3D3D3D",
"u 	c #F0DEDE",
"v 	c #D09494",
"w 	c #C16262",
"x 	c #BD4A4A",
"y 	c #BE4747",
"z 	c #BC4E4E",
"A 	c #C57373",
"B 	c #DDB3B3",
"C 	c #D6A3A3",
"D 	c #C36B6B",
"E 	c #BD4C4C",
"F 	c #BE4646",
"G 	c #BC4B4B",
"H 	c #C26969",
"I 	c #D5A3A3",
"J 	c #DCB3B3",
"K 	c #D8AAAA",
"L 	c #C35757",
"M 	c #CF3E3E",
"N 	c #EC5555",
"O 	c #F75F5F",
"P 	c #F96060",
"Q 	c #F45C5C",
"R 	c #E24D4D",
"S 	c #C53D3D",
"T 	c #C47272",
"U 	c #EED9D9",
"V 	c #E3C2C2",
"W 	c #C46666",
"X 	c #C93B3B",
"Y 	c #E85151",
"Z 	c #F65E5E",
"` 	c #CA3C3C",
" .	c #E3C3C3",
"..	c #EDD9D9",
"+.	c #D6A6A6",
"@.	c #C34747",
"#.	c #E95252",
"$.	c #FE6565",
"%.	c #FF6666",
"&.	c #FC6363",
"*.	c #D44141",
"=.	c #C46767",
"-.	c #F0DFDF",
";.	c #E4C5C5",
">.	c #C35656",
",.	c #DE4848",
"'.	c #FD6565",
").	c #D7A7A7",
"!.	c #EBD3D3",
"~.	c #C35353",
"{.	c #EA5353",
"].	c #D24040",
"^.	c #C77D7D",
"/.	c #C36666",
"(.	c #DE4949",
"_.	c #F6ECEC",
":.	c #EBD4D4",
"<.	c #C77C7C",
"[.	c #FCF9F9",
"}.	c #FDFCFC",
"|.	c #C98282",
"1.	c #D54242",
"2.	c #F96161",
"3.	c #C24444",
"4.	c #E7CBCB",
"5.	c #D7A6A6",
"6.	c #C93D3D",
"7.	c #C93C3C",
"8.	c #C98383",
"9.	c #FA6161",
"0.	c #C24343",
"a.	c #E7CACA",
"b.	c #BF5353",
"c.	c #F25A5A",
"d.	c #D54343",
"e.	c #CF9191",
"f.	c #C46F6F",
"g.	c #E44E4E",
"h.	c #C57171",
"i.	c #D64343",
"j.	c #CF9090",
"k.	c #C14040",
"l.	c #FB6363",
"m.	c #C26B6B",
"n.	c #BD4F4F",
"o.	c #F55D5D",
"p.	c #BD4E4E",
"q.	c #ECD5D5",
"r.	c #C14141",
"s.	c #E95353",
"t.	c #E8CDCD",
"u.	c #C43E3E",
"v.	c #EE5757",
"w.	c #BF6060",
"x.	c #FCF8F8",
"y.	c #F4E6E6",
"z.	c #BC4646",
"A.	c #F86060",
"B.	c #E8CECE",
"C.	c #C33E3E",
"D.	c #BF5F5F",
"E.	c #EDD8D8",
"F.	c #C14242",
"G.	c #FB6262",
"H.	c #E75252",
"I.	c #C47070",
"J.	c #F7EDED",
"K.	c #BE5252",
"L.	c #F35C5C",
"M.	c #BD5151",
"N.	c #C14343",
"O.	c #FA6262",
"P.	c #E85252",
"Q.	c #F7EEEE",
"R.	c #C05959",
"S.	c #EF5858",
"T.	c #D19696",
"U.	c #FDFBFB",
"V.	c #C77878",
"W.	c #E14B4B",
"X.	c #E14C4C",
"Y.	c #C77777",
"Z.	c #F7EFEF",
"`.	c #C05A5A",
" +	c #D19595",
".+	c #CD8D8D",
"++	c #D03E3E",
"@+	c #C34A4A",
"#+	c #EAD2D2",
"$+	c #DBB0B0",
"%+	c #C63D3D",
"&+	c #FD6464",
"*+	c #C73E3E",
"=+	c #DBAFAF",
"-+	c #CE8E8E",
";+	c #CF3D3D",
">+	c #C34949",
",+	c #EAD1D1",
"'+	c #F0E0E0",
")+	c #C25A5A",
"!+	c #E34D4D",
"~+	c #CD3D3D",
"{+	c #CB8989",
"]+	c #F9F3F3",
"^+	c #C57070",
"/+	c #D64242",
"(+	c #D74343",
"_+	c #F9F2F2",
":+	c #F1E0E0",
"<+	c #C25B5B",
"[+	c #DEB6B6",
"}+	c #C45252",
"|+	c #E04A4A",
"1+	c #CE3D3D",
"2+	c #C67373",
"3+	c #F6EDED",
"4+	c #C36262",
"5+	c #C46262",
"6+	c #DEB7B7",
"7+	c #C45353",
"8+	c #E2BFBF",
"9+	c #C36565",
"0+	c #C83D3D",
"a+	c #F05959",
"b+	c #DC4A4A",
"c+	c #C24646",
"d+	c #CA8686",
"e+	c #ECD7D7",
"f+	c #C57474",
"g+	c #C54040",
"h+	c #DD4848",
"i+	c #E55454",
"j+	c #C24545",
"k+	c #CA8585",
"l+	c #C57575",
"m+	c #BD5959",
"n+	c #BC5252",
"o+	c #CC7676",
"p+	c #DAA2A2",
"q+	c #FAF6F6",
"r+	c #E1BDBD",
"s+	c #C87E7E",
"t+	c #BF5D5D",
"u+	c #C56969",
"v+	c #D89999",
"w+	c #E1BEBE",
"x+	c #FBF6F6",
"y+	c #E6CACA",
"z+	c #FDFAFA",
"A+	c #F8F1F1",
"B+	c #F8F0F0",
"C+	c #F5EBEB",
"D+	c #E0BCBC",
"E+	c #C77B7B",
"F+	c #BE5757",
"G+	c #BE4C4C",
"H+	c #D4A0A0",
"I+	c #F3E5E5",
"J+	c #DCB2B2",
"K+	c #BE5454",
"L+	c #BE4B4B",
"M+	c #C36F6F",
"N+	c #D8A9A9",
"O+	c #CC8B8B",
"P+	c #C06060",
"Q+	c #BD4D4D",
"R+	c #C05F5F",
"S+	c #F1E1E1",
"T+	c #C67979",
"U+	c #C44040",
"V+	c #F75E5E",
"W+	c #F45D5D",
"X+	c #CC3D3D",
"Y+	c #C25C5C",
"Z+	c #F35B5B",
"`+	c #E54F4F",
" @	c #E4C4C4",
".@	c #D09595",
"+@	c #C34D4D",
"@@	c #F55E5E",
"#@	c #ED5656",
"$@	c #C56C6C",
"%@	c #D13F3F",
"&@	c #C34B4B",
"*@	c #D9ADAD",
"=@	c #C46060",
"-@	c #C25656",
";@	c #CA8888",
">@	c #C88181",
",@	c #E75151",
"'@	c #EEDADA",
")@	c #C47171",
"!@	c #C36363",
"~@	c #D9ABAB",
"{@	c #D9AAAA",
"]@	c #FFFEFE",
"^@	c #E8CCCC",
"/@	c #D33F3F",
"(@	c #CC8989",
"_@	c #C63F3F",
":@	c #D5A1A1",
"<@	c #C26161",
"[@	c #E65050",
"}@	c #C26262",
"|@	c #D44242",
"1@	c #F15959",
"2@	c #C05757",
"3@	c #C36A6A",
"4@	c #E6C8C8",
"5@	c #C44141",
"6@	c #C46E6E",
"7@	c #ECD6D6",
"8@	c #F15A5A",
"9@	c #BC4949",
"0@	c #D7A4A4",
"a@	c #D14141",
"b@	c #D24242",
"c@	c #C06161",
"d@	c #BE5151",
"e@	c #BC4141",
"f@	c #D19797",
"g@	c #D84343",
"h@	c #C04040",
"i@	c #C05B5B",
"j@	c #BD4949",
"k@	c #F3E6E6",
"l@	c #D7A5A5",
"m@	c #D14040",
"n@	c #D34141",
"o@	c #C87C7C",
"p@	c #C36969",
"q@	c #E6C9C9",
"r@	c #E9CECE",
"s@	c #F85F5F",
"t@	c #CB8888",
"u@	c #DDB5B5",
"v@	c #C53E3E",
"w@	c #CB3D3D",
"x@	c #C26363",
"y@	c #C45959",
"z@	c #C57272",
"A@	c #D64141",
"B@	c #DAADAD",
"C@	c #C54242",
"D@	c #D9ACAC",
"E@	c #C56E6E",
"F@	c #C44D4D",
"G@	c #DC4747",
"H@	c #E5C6C6",
"I@	c #CC8C8C",
"J@	c #C63E3E",
"K@	c #C73F3F",
"L@	c #C34242",
"M@	c #DB4747",
"N@	c #F05858",
"O@	c #EF5B5B",
"P@	c #CA3D3D",
"Q@	c #C35F5F",
"R@	c #E04B4B",
"S@	c #EC5858",
"T@	c #C73D3D",
"U@	c #C46969",
"V@	c #E5C7C7",
"W@	c #D19999",
"X@	c #C35050",
"Y@	c #EB5555",
"Z@	c #F25C5C",
"`@	c #C34F4F",
" #	c #D19898",
".#	c #E2C1C1",
"+#	c #C88080",
"@#	c #BE5959",
"##	c #C05858",
"$#	c #D48888",
"%#	c #DAABAB",
"&#	c #BE5656",
"*#	c #C45F5F",
"=#	c #D79090",
"-#	c #DCB1B1",
";#	c #EBD5D5",
">#	c #CE9090",
",#	c #C06262",
"'#	c #D17C7C",
")#	c #D8A2A2",
"!#	c #F8EFEF",
"~#	c #909090",
". . . . . . . . . . . . . . . . . . . . . . . . . . . . . . . . . . . . . . . . . . . . . . . . . . . . . . . . . . . . . . . . . . . . . . . . . . . ",
". . . . . . . . . . . . . . . . . . . . . . . . . . . . . . . . . . . . . . . . . . . . . . . . . . . . . . . . . . . . . . . . . . . . . . . . . . . ",
". . . . . . . . + @ # $ % % % % % % % % % % % % % % % % % % % % % % % % % % % % % % % % % % % % % % % % % % % % % % % % % % % % % $ # @ + . . . . . . ",
". . . . . . & * = - ; > , , , , , , , , , , , , , , , , , , , , , , , , , , , , , , , , , , , , , , , , , , , , , , , , , , , , , > ; - = * & . . . . ",
". . . . . ' ) ! ~ { $ ] ^ ^ ^ ^ ^ ^ ^ ^ ^ ^ ^ ^ ^ ^ ^ ^ ^ ^ ^ ^ ^ ^ ^ ^ ^ ^ ^ ^ ^ ^ ^ ^ ^ ^ ^ ^ ^ ^ ^ ^ ^ ^ ^ ^ ^ ^ ^ ^ ^ ^ ^ ^ ^ ] $ { ~ ! ) ' . . . ",
". . . . / ( _ : < & . . . . . . . . . . . . . . . . . . . . . . . . . . . . . . . . . . . . . . . . . . . . . . . . . . . . . . . . . & < : _ ( / . . ",
". . . & [ } | 1 . . . . . . . . . . . . . . . . . . . . . . . . . . . . . . . . . . . . . . . . . . . . . . . . . . . . . . . . . . . . . 1 | } [ & . ",
". . . 2 3 4 5 . . . . . . . . . . . . . . . . . . . . . . . . . . . . . . . . . . . . . . . . . . . . . . . . . . . . . . . . . . . . . . . 5 4 3 2 . ",
". . . 6 7 $ & . . . . . . . . . . . . . . . . . . . . . . . . . . . . . . . . . . . . . . . . . . . . . . . . . . . . . . . . . . . . . . . & $ 7 6 . ",
". . / 8 9 0 . . . . . . . . . . . . . . . . . . . . . . . . . . . . . . . . . . . . . . . . . . . . . . . . . . . . . . . . . . . . . . . . . 0 ~ 8 / ",
". . a b = & . . . . . . . . . . . . . . . . . . . . . . . . . . . . . . . . . . . . . . . . . . . . . . . . . . . . . . . . . . . . . . . . . & = b a ",
". . c d e . . . . . . . . . f g h i j k & . . . . . . . . . . . . . . & l m n o p & . . . . . . . . . . . . . f q r n j k & . . . . . . . . . . e d c ",
". . s t { . . . . . . . & u v w x y z A B q . . . . . . . . . . . & j C D E F G H I m & . . . . . . . . . & u v w x y z A J q . . . . . . . . . { t s ",
". . s t ) . . . . . . f K L M N O P Q R S T U . . . . . . . . . & V W X Y Z P Z Y ` W  .& . . . . . . . f K L M N O P Q R S T ... . . . . . . . ) t s ",
". . s t ) . . . . . & +.@.#.$.%.%.%.%.%.&.*.=.-.. . . . . . . . ;.>.,.'.%.%.%.%.%.'.,.>.;.. . . . . . & ).@.#.$.%.%.%.%.%.&.*.W -.. . . . . . . ) t s ",
". . s t ) . . . . . !.~.{.%.%.%.%.%.%.%.%.$.].^.k . . . . . . j /.,.$.%.%.%.%.%.%.%.$.(./._.. . . . . :.~.{.%.%.%.%.%.%.%.%.$.].<.[.. . . . . . ) t s ",
". . s t ) . . . . }.|.1.$.%.%.%.%.%.%.%.%.%.2.3.4.. . . . . . 5.6.$.%.%.%.%.%.%.%.%.%.$.7.).. . . . }.8.1.$.%.%.%.%.%.%.%.%.%.9.0.a.. . . . . . ) t s ",
". . s t ) . . . . j b.c.%.%.%.%.%.%.%.%.%.%.$.d.e.f . . . . [.f.g.%.%.%.%.%.%.%.%.%.%.%.g.h.[.. . . _.b.c.%.%.%.%.%.%.%.%.%.%.$.i.j.f . . . . . ) t s ",
". . s t ) . . . . :.k.l.%.%.%.%.%.%.%.%.%.%.%.#.m.k . . . . j n.o.%.%.%.%.%.%.%.%.%.%.%.Q p._.. . . q.r.l.%.%.%.%.%.%.%.%.%.%.%.s.m.k . . . . . ) t s ",
". . s t ) . . . . t.u.$.%.%.%.%.%.%.%.%.%.%.%.v.w.x.. . . . y.z.A.%.%.%.%.%.%.%.%.%.%.%.P z.h . . . B.C.$.%.%.%.%.%.%.%.%.%.%.%.v.D.x.. . . . . ) t s ",
". . s t ) . . . . E.F.G.%.%.%.%.%.%.%.%.%.%.%.H.I.k . . . . J.K.L.%.%.%.%.%.%.%.%.%.%.%.Q M.j . . . E.N.O.%.%.%.%.%.%.%.%.%.%.%.P.f.[.. . . . . ) t s ",
". . s t ) . . . . Q.R.S.%.%.%.%.%.%.%.%.%.%.$.].T.& . . . . U.V.W.%.%.%.%.%.%.%.%.%.%.%.X.Y.U.. . . Z.`.S.%.%.%.%.%.%.%.%.%.%.$.]. +& . . . . . ) t s ",
". . s t ) . . . . f .+++$.%.%.%.%.%.%.%.%.%.O @+#+. . . . . . $+%+&.%.%.%.%.%.%.%.%.%.&+*+=+. . . . f -+;+$.%.%.%.%.%.%.%.%.%.O >+,+. . . . . . ) t s ",
". . s t ) . . . . . '+)+!+$.%.%.%.%.%.%.%.&+~+{+}.. . . . . . ]+^+/+$.%.%.%.%.%.%.%.$.(+h._+. . . . . :+<+!+$.%.%.%.%.%.%.%.&+~+{+U.. . . . . . ) t s ",
". . s t ) . . . . . . [+}+|+&+%.%.%.%.$.A.1+2+3+. . . . . . . . :.4+1.G.$.%.%.%.$.l./+5+:.. . . . . . . 6+7+|+&+%.%.%.%.$.A.1+2+3+. . . . . . . ) t s ",
". . s t ) . . . . . . & 8+9+0+R a+L.a+b+c+d+_.. . . . . . . . . . e+f+g+h+S.L.a+i+g+f+e+. . . . . . . . & 8+9+0+R a+L.a+b+j+k+_.. . . . . . . . ) t s ",
". . s t ) . . . . . . . . Q.=+l+m+n+o+p+a.U.. . . . . . . . . . . . q+r+s+t+n+u+v+w+x+. . . . . . . . . . . Q.=+l+m+n+o+p+y+U.. . . . . . . . . ) t s ",
". . s t ) . . . . . . . . . . z+q A+p f . . . . . . . . . . . . . . . . }.x+B+x+& . . . . . . . . . . . . . . . z+q A+p f . . . . . . . . . . . ) t s ",
". . s t ) . . . . . . . . . . . . . . . . . . . . . . . . . . . . . . . . . . . . . . . . . . . . . . . . . . . . . . . . . . . . . . . . . . . ) t s ",
". . s t ) . . . . . . . . . . . . . . . . . . . . . . . . . . . . . . . . . . . . . . . . . . . . . . . . . . . . . . . . . . . . . . . . . . . ) t s ",
". . s t ) . . . . . . . . . . . . . . . . . . . . . . . . . . . . . . . . . . . . . . . . . . . . . . . . . . . . . . . . . . . . . . . . . . . ) t s ",
". . s t ) . . . . . . . . . . . . . . . . . . . . . . . . . . . . . . . . . . . . . . . . . . . . . . . . . . . . . . . . . . . . . . . . . . . ) t s ",
". . s t ) . . . . . . . . . . . . . . . . . . . . . . . . . . . . . . . . . . . . . . . . . . . . . . . . . . . . . . . . . . . . . . . . . . . ) t s ",
". . s t ) . . . . . . . . . . . . . . . . . . . . . . . . . . . . . . . . . . . . . . . . . . . . . . . . . . . . . . . . . . . . . . . . . . . ) t s ",
". . s t ) . . . . . . . . . . . . . . . . . . . . . . . . . . . . . . . . . . . . . . . . . . . . . . . . . . . . . . . . . . . . . . . . . . . ) t s ",
". . s t ) . . . . . . . . . . . . . . . . . . . . . . . . . . . . . . . . . . . . . . . . . . . . . . . . . . . . . . . . . . . . . . . . . . . ) t s ",
". . s t ) . . . . . . . . . . . . . . . . . . . . . . . . . . . . . . . . . . . . . . . . . . . . . . . . . . . . . . . . . . . . . . . . . . . ) t s ",
". . s t ) . . . . . . . . . . . . . . . . . . . . . . . . . . . . . . . . . . . . . . . . . . . . . . . . . . . . . . . . . . . . . . . . . . . ) t s ",
". . s t ) . . . . . . . . . . . . . . . . . . . . . . . . . . . . . . . . . . . . . . . . . . . . . . . . . . . . . . . . . . . . . . . . . . . ) t s ",
". . s t ) . . . . . . . . . . . . . . . . . . . . . . . . . . . . . . . . . . . . . . . . . . . . . . . . . . . . . . . . . . . . . . . . . . . ) t s ",
". . s t ) . . . . . . . . . . . . . . . . . . . . . . . . . . . . . . . . . . . . . . . . . . . . . . . . . . . . . . . . . . . . . . . . . . . ) t s ",
". . s t ) . . . . . . . . . . . . . . . . . . . . . . . . . . . . . . . . . . . . . . . . . . . . . . . . . . . . . . . . . . . . . . . . . . . ) t s ",
". . s t ) . . . . . . . . . . . . . . . . . . . . . . . . . . . . . . . . . . . . . . . . . . . . . . . . . . . . . . . . . . . . . . . . . . . ) t s ",
". . s t ) . . . . . . . . . . . . . . . . . . . . . . . . . . . . . . . . . . . . . . . . . . . . . . . . . . . . . . . . . . . . . . . . . . . ) t s ",
". . s t ) . . . . . . . . . . . . . . . . . . . . . . . . . . . . . . . . . . . . . . . . . . . . . . . . . . . . . . . . . . . . . . . . . . . ) t s ",
". . s t ) . . . . . . . . . . . . . . . . . . . . . . . . . . . . . . . . . . . . . . . . . . . . . . . . . . . . . . . . . . . . . . . . . . . ) t s ",
". . s t ) . . . . . . . . . . . . . . . . . . . . . . . . . . . . . . . . . . . . . . . . . . . . . . . . . . . . . . . . . . . . . . . . . . . ) t s ",
". . s t ) . . . . . . . . . . . . . . . . . . . . . . . . . . . . . . . . . . . . . . . . . . . . . . . . . . . . . . . . . . . . . . . . . . . ) t s ",
". . s t ) . . . . . . . . . . . U._+r 3+p & . . . . . . . . . . . . . . . k B+r Q.[.& . . . . . . . . . . . . . f q m C+g f . . . . . . . . . . ) t s ",
". . s t ) . . . . . . . . . p D+E+F+G+n.H H+I+. . . . . . . . . . . . ]+J+f+K+L+M.M+N+3+. . . . . . . . . . f ,+O+P+Q+Q+R+O+,+f . . . . . . . . ) t s ",
". . s t ) . . . . . . . . S+T+U+(.c.V+W+P.X+Y+J & . . . . . . . . & #+f.%+R Z+V+L.`+6.9+ @& . . . . . . . p .@+@*.v.Z @@#@*.+@.@p . . . . . . . ) t s ",
". . s t ) . . . . . . . I+$@%@O.%.%.%.%.%.$.`+&@*@. . . . . . . . :.=@(+&.%.%.%.%.%.&+h+-@ .. . . . . . k {+*+c.$.%.%.%.%.$.c.%+;@[.. . . . . . ) t s ",
". . s t ) . . . . . . k >@;+&+%.%.%.%.%.%.%.%.,@>.'@. . . . . . ]+)@(+$.%.%.%.%.%.%.%.$.(.!@o . . . . & ~@U+O %.%.%.%.%.%.%.%.O U+{@]@. . . . . ) t s ",
". . s t ) . . . . . . ^@c+A.%.%.%.%.%.%.%.%.%.$./@(@f . . . . . J _@&.%.%.%.%.%.%.%.%.%.$.` :@& . . . A+<@[@%.%.%.%.%.%.%.%.%.%.,@}@A+. . . . . ) t s ",
". . s t ) . . . . . f e.|@$.%.%.%.%.%.%.%.%.%.%.1@2@3+. . . . }.T+(.%.%.%.%.%.%.%.%.%.%.%.P.3@x+. . . 4@U+&.%.%.%.%.%.%.%.%.%.%.&.5@4@. . . . . ) t s ",
". . s t ) . . . . . [.6@P.%.%.%.%.%.%.%.%.%.%.%.G.r.7@. . . . _+`.8@%.%.%.%.%.%.%.%.%.%.%.O 9@h . . . 0@a@$.%.%.%.%.%.%.%.%.%.%.$.b@C . . . . . ) t s ",
". . s t ) . . . . . x.c@v.%.%.%.%.%.%.%.%.%.%.%.$.u.B.. . . . Q.d@Z %.%.%.%.%.%.%.%.%.%.%.O.e@S+. . . f@(+$.%.%.%.%.%.%.%.%.%.%.$.g@.@. . . . . ) t s ",
". . s t ) . . . . . k 6@P.%.%.%.%.%.%.%.%.%.%.%.l.h@q.. . . . ]+i@1@%.%.%.%.%.%.%.%.%.%.%.O j@k@. . . l@b@$.%.%.%.%.%.%.%.%.%.%.$.m@C . . . . . ) t s ",
". . s t ) . . . . . & v n@$.%.%.%.%.%.%.%.%.%.%.8@2@J.. . . . }.o@h+%.%.%.%.%.%.%.%.%.%.%.#.p@l . . . q@5@&.%.%.%.%.%.%.%.%.%.%.&+5@4@. . . . . ) t s ",
". . s t ) . . . . . . r@c+s@%.%.%.%.%.%.%.%.%.$.n@t@f . . . . . u@v@&.%.%.%.%.%.%.%.%.%.$.w@H+& . . . A+x@[@%.%.%.%.%.%.%.%.%.%.,@4+A+. . . . . ) t s ",
". . s t ) . . . . . . U.8.1+&+%.%.%.%.%.%.%.%.,@y@'@. . . . . . g z@A@$.%.%.%.%.%.%.%.$.(.W m . . . . & B@5@Z %.%.%.%.%.%.%.%.O C@D@& . . . . . ) t s ",
". . s t ) . . . . . . . h E@++O.%.%.%.%.%.$.g.F@$+. . . . . . . . e+5+/+&.%.%.%.%.%.&+G@y@H@. . . . . . z+I@J@1@$.%.%.%.%.$.8@K@O+k . . . . . . ) t s ",
". . s t ) . . . . . . . . i ^.L@M@N@o.L.O@P@Q@[+& . . . . . . . . ]@q.z@_@R@8@Z Z+S@T@U@V@]@. . . . . . . [.W@X@].Y@W+o.Z@|@`@ #[.. . . . . . . ) t s ",
". . s t { . . . . . . . . . [..#+#@#p.##$#%#r . . . . . . . . . . . . g 6+T+&#Q+*#=#-#Z.. . . . . . . . . . f ;#>#,#n.n.'#)#;#f . . . . . . . . { t s ",
". . c d e . . . . . . . . . . . }._+j !#}.& . . . . . . . . . . . . . . . U.A+C+A+& & . . . . . . . . . . . . . f x+3+_.x.f . . . . . . . . . . e d c ",
". . a b = & . . . . . . . . . . . . . . . . . . . . . . . . . . . . . . . . . . . . . . . . . . . . . . . . . . . . . . . . . . . . . . . . . & = b a ",
". . / 8 9 0 . . . . . . . . . . . . . . . . . . . . . . . . . . . . . . . . . . . . . . . . . . . . . . . . . . . . . . . . . . . . . . . . . 0 ~ 8 / ",
". . . 6 7 $ & . . . . . . . . . . . . . . . . . . . . . . . . . . . . . . . . . . . . . . . . . . . . . . . . . . . . . . . . . . . . . . . & $ 7 6 . ",
". . . 2 3 4 5 . . . . . . . . . . . . . . . . . . . . . . . . . . . . . . . . . . . . . . . . . . . . . . . . . . . . . . . . . . . . . . . 5 4 3 2 . ",
". . . & [ } ~#1 . . . . . . . . . . . . . . . . . . . . . . . . . . . . . . . . . . . . . . . . . . . . . . . . . . . . . . . . . . . . . 1 ~#} [ & . ",
". . . . / ( _ : < & . . . . . . . . . . . . . . . . . . . . . . . . . . . . . . . . . . . . . . . . . . . . . . . . . . . . . . . . . & < : _ ( / . . ",
". . . . . ' ) ! ~ { $ ] ^ ^ ^ ^ ^ ^ ^ ^ ^ ^ ^ ^ ^ ^ ^ ^ ^ ^ ^ ^ ^ ^ ^ ^ ^ ^ ^ ^ ^ ^ ^ ^ ^ ^ ^ ^ ^ ^ ^ ^ ^ ^ ^ ^ ^ ^ ^ ^ ^ ^ ^ ^ ^ ] $ { ~ ! ) ' . . . ",
". . . . . . & * = - ; > , , , , , , , , , , , , , , , , , , , , , , , , , , , , , , , , , , , , , , , , , , , , , , , , , , , , , > ; - = * & . . . . ",
". . . . . . . . + @ # $ % % % % % % % % % % % % % % % % % % % % % % % % % % % % % % % % % % % % % % % % % % % % % % % % % % % % % $ # @ + . . . . . . ",
". . . . . . . . . . . . . . . . . . . . . . . . . . . . . . . . . . . . . . . . . . . . . . . . . . . . . . . . . . . . . . . . . . . . . . . . . . . "};
