/* XPM */
static char * diceno2_xpm[] = {
"75 75 281 2",
"  	c None",
". 	c #FFFFFF",
"+ 	c #F7F7F7",
"@ 	c #EDEDED",
"# 	c #E8E8E8",
"$ 	c #EBEBEB",
"% 	c #F3F3F3",
"& 	c #FEFEFE",
"* 	c #E2E2E2",
"= 	c #9E9E9E",
"- 	c #636363",
"; 	c #404040",
"> 	c #353535",
", 	c #343434",
"' 	c #3B3B3B",
") 	c #545454",
"! 	c #8C8C8C",
"~ 	c #CDCDCD",
"{ 	c #FDFDFD",
"] 	c #ADADAD",
"^ 	c #484848",
"/ 	c #333333",
"( 	c #676767",
"_ 	c #909090",
": 	c #A2A2A2",
"< 	c #A6A6A6",
"[ 	c #A4A4A4",
"} 	c #989898",
"| 	c #767676",
"1 	c #444444",
"2 	c #303030",
"3 	c #8B8B8B",
"4 	c #F2F2F2",
"5 	c #9C9C9C",
"6 	c #2D2D2D",
"7 	c #727272",
"8 	c #D2D2D2",
"9 	c #FAFAFA",
"0 	c #E6E6E6",
"a 	c #8F8F8F",
"b 	c #313131",
"c 	c #777777",
"d 	c #F1F1F1",
"e 	c #B8B8B8",
"f 	c #2F2F2F",
"g 	c #828282",
"h 	c #F5F5F5",
"i 	c #8A8A8A",
"j 	c #EFEFEF",
"k 	c #585858",
"l 	c #656565",
"m 	c #F0F0F0",
"n 	c #929292",
"o 	c #C8C8C8",
"p 	c #B2B2B2",
"q 	c #2B2B2B",
"r 	c #BFBFBF",
"s 	c #EAEAEA",
"t 	c #4B4B4B",
"u 	c #7C7C7C",
"v 	c #FCFCFC",
"w 	c #797979",
"x 	c #8D8D8D",
"y 	c #414141",
"z 	c #E9E9E9",
"A 	c #7E7E7E",
"B 	c #BBBBBB",
"C 	c #292929",
"D 	c #CFCFCF",
"E 	c #393939",
"F 	c #999999",
"G 	c #FBF8F8",
"H 	c #F6EBEB",
"I 	c #F4E7E7",
"J 	c #F7EDED",
"K 	c #FEFDFD",
"L 	c #D1D1D1",
"M 	c #2A2A2A",
"N 	c #C2C2C2",
"O 	c #F4E8E8",
"P 	c #D6A3A3",
"Q 	c #C56E6E",
"R 	c #BE4E4E",
"S 	c #BD4747",
"T 	c #BF5454",
"U 	c #CA7E7E",
"V 	c #DFB9B9",
"W 	c #D8D8D8",
"X 	c #2C2C2C",
"Y 	c #BCBCBC",
"Z 	c #A3A3A3",
"` 	c #E2BFBF",
" .	c #C56565",
"..	c #CB3D3D",
"+.	c #E85151",
"@.	c #F65E5E",
"#.	c #F96161",
"$.	c #F35B5B",
"%.	c #DF4A4A",
"&.	c #C54040",
"*.	c #C77A7A",
"=.	c #F2E2E2",
"-.	c #C45454",
";.	c #E24C4C",
">.	c #FE6565",
",.	c #FF6666",
"'.	c #FB6262",
").	c #D03E3E",
"!.	c #E14B4B",
"~.	c #CE3D3D",
"{.	c #CB8888",
"].	c #FFFEFE",
"^.	c #D5A2A2",
"/.	c #CC3E3E",
"(.	c #C24A4A",
"_.	c #ECD6D6",
":.	c #FCF8F8",
"<.	c #C46C6C",
"[.	c #E75151",
"}.	c #CF4040",
"|.	c #E34E4E",
"1.	c #CB8383",
"2.	c #F96060",
"3.	c #C87A7A",
"4.	c #F7EEEE",
"5.	c #BF5555",
"6.	c #F35C5C",
"7.	c #DE4A4A",
"8.	c #CF8C8C",
"9.	c #C93C3C",
"0.	c #DBB0B0",
"a.	c #ED5656",
"b.	c #C45C5C",
"c.	c #C77979",
"d.	c #F75F5F",
"e.	c #C74141",
"f.	c #D7A6A6",
"g.	c #C56F6F",
"h.	c #CF3E3E",
"i.	c #C64141",
"j.	c #CC8C8C",
"k.	c #FDFBFB",
"l.	c #CF3F3F",
"m.	c #E24D4D",
"n.	c #E75050",
"o.	c #E45151",
"p.	c #D24B4B",
"q.	c #C35B5B",
"r.	c #CB8484",
"s.	c #C97C7C",
"t.	c #D59999",
"u.	c #E6C5C5",
"v.	c #F3E6E6",
"w.	c #F7EFEF",
"x.	c #EFDCDC",
"y.	c #EBD3D3",
"z.	c #F0DEDE",
"A.	c #F9F2F2",
"B.	c #CF9191",
"C.	c #C05959",
"D.	c #C04343",
"E.	c #C24040",
"F.	c #BF4444",
"G.	c #C05E5E",
"H.	c #D29999",
"I.	c #DCB3B3",
"J.	c #C45B5B",
"K.	c #D14040",
"L.	c #F05959",
"M.	c #FC6363",
"N.	c #FA6262",
"O.	c #CD3E3E",
"P.	c #C46464",
"Q.	c #E5C6C6",
"R.	c #C55050",
"S.	c #DE4949",
"T.	c #E8CDCD",
"U.	c #F5EAEA",
"V.	c #C36262",
"W.	c #E34D4D",
"X.	c #DA4545",
"Y.	c #C57070",
"Z.	c #FAF6F6",
"`.	c #D7A7A7",
" +	c #CB3F3F",
".+	c #C54141",
"++	c #E4C3C3",
"@+	c #FCFAFA",
"#+	c #C57373",
"$+	c #E44E4E",
"%+	c #DA4747",
"&+	c #CE8D8D",
"*+	c #FEFCFC",
"=+	c #FAF5F5",
"-+	c #C05A5A",
";+	c #F25B5B",
">+	c #EA5454",
",+	c #C26B6B",
"'+	c #FDFAFA",
")+	c #F9F3F3",
"!+	c #C05858",
"~+	c #F45D5D",
"{+	c #C06464",
"]+	c #FBF7F7",
"^+	c #C46969",
"/+	c #EC5555",
"(+	c #C97E7E",
"_+	c #CF9292",
":+	c #D44242",
"<+	c #DAABAB",
"[+	c #EAD2D2",
"}+	c #C34C4C",
"|+	c #F3E5E5",
"1+	c #CF9393",
"2+	c #C73D3D",
"3+	c #F55D5D",
"4+	c #C64343",
"5+	c #D7A8A8",
"6+	c #CA8686",
"7+	c #EB5454",
"8+	c #FD6464",
"9+	c #E54F4F",
"0+	c #C64747",
"a+	c #CF9494",
"b+	c #FDFCFC",
"c+	c #373737",
"d+	c #9D9D9D",
"e+	c #FCF9F9",
"f+	c #C25E5E",
"g+	c #C43C3C",
"h+	c #D24242",
"i+	c #D94747",
"j+	c #D94949",
"k+	c #D15252",
"l+	c #C36666",
"m+	c #DDB5B5",
"n+	c #D5D5D5",
"o+	c #EEEEEE",
"p+	c #434343",
"q+	c #898989",
"r+	c #E3C2C2",
"s+	c #D6A2A2",
"t+	c #D49A9A",
"u+	c #EFDADA",
"v+	c #C4C4C4",
"w+	c #282828",
"x+	c #CACACA",
"y+	c #F9F9F9",
"z+	c #686868",
"A+	c #616161",
"B+	c #9F9F9F",
"C+	c #363636",
"D+	c #E1E1E1",
"E+	c #D7D7D7",
"F+	c #F6F6F6",
"G+	c #606060",
"H+	c #F8F8F8",
"I+	c #DEDEDE",
"J+	c #3E3E3E",
"K+	c #B3B3B3",
"L+	c #AFAFAF",
"M+	c #AAAAAA",
"N+	c #4A4A4A",
"O+	c #6B6B6B",
"P+	c #F4F4F4",
"Q+	c #C0C0C0",
"R+	c #525252",
"S+	c #4E4E4E",
"T+	c #D4D4D4",
"U+	c #818181",
"V+	c #5D5D5D",
"W+	c #DADADA",
"X+	c #D9D9D9",
"Y+	c #747474",
"Z+	c #B5B5B5",
"`+	c #2E2E2E",
" @	c #505050",
".@	c #9B9B9B",
"+@	c #DDDDDD",
"@@	c #C7C7C7",
"#@	c #C3C3C3",
". . . . . . . . . . . . . . . . . . . . . . . . . . . . . . . . . . . . . . . . . . . . . . . . . . . . . . . . . . . . . . . . . . . . . . . . . . . ",
". . . . . . . . . . . . . . . . . . . . . . . . . . . . . . . . . . . . . . . . . . . . . . . . . . . . . . . . . . . . . . . . . . . . . . . . . . . ",
". . . . . . . . . + @ # # # # # # # # # # # # # # # # # # # # # # # # # # # # # # # # # # # # # # # # # # # # # # # # # # # # # $ % & . . . . . . . . ",
". . . . . . & * = - ; > , , , , , , , , , , , , , , , , , , , , , , , , , , , , , , , , , , , , , , , , , , , , , , , , , , , , ' ) ! ~ { . . . . . . ",
". . . . . { ] ^ / ( _ : < < < < < < < < < < < < < < < < < < < < < < < < < < < < < < < < < < < < < < < < < < < < < < < < < < < [ } | 1 2 3 4 . . . . . ",
". . . . & 5 6 7 8 9 . . . . . . . . . . . . . . . . . . . . . . . . . . . . . . . . . . . . . . . . . . . . . . . . . . . . . . . { 0 a b c d . . . . ",
". . . & e f g h . . . . . . . . . . . . . . . . . . . . . . . . . . . . . . . . . . . . . . . . . . . . . . . . . . . . . . . . . . . & ] 2 i { . . . ",
". . . j k l m . . . . . . . . . . . . . . . . . . . . . . . . . . . . . . . . . . . . . . . . . . . . . . . . . . . . . . . . . . . . . & n f o . . . ",
". . . p q r . . . . . . . . . . . . . . . . . . . . . . . . . . . . . . . . . . . . . . . . . . . . . . . . . . . . . . . . . . . . . . . s t u v . . ",
". . { w ) h . . . . . . . . . . . . . . . . . . . . . . . . . . . . . . . . . . . . . . . . . . . . . . . . . . . . . . . . . . . . . . . & x y z . . ",
". . m t A & . . . . . . . . . . . . . . . . . . . . . . . . . . . . . . . . . . . . . . . . . . . . . . . . . . . . . . . . . . . . . . . . B C D . . ",
". . s E F . . . . . . . . . . . . G H I J K . . . . . . . . . . . . . . . . . . . . . . . . . . . . . . . . . . . . . . . . . . . . . . . . L M N . . ",
". . # / : . . . . . . . . . & O P Q R S T U V G . . . . . . . . . . . . . . . . . . . . . . . . . . . . . . . . . . . . . . . . . . . . . . W X Y . . ",
". . # / Z . . . . . . . . & `  ...+.@.#.$.%.&.*.=.. . . . . . . . . . . . . . . . . . . . . . . . . . . . . . . . . . . . . . . . . . . . . W X Y . . ",
". . # / Z . . . . . . . & ` -.;.>.,.,.,.,.,.'.).Q O . . . . . . . . . . . . . . . . . . . . . . . . . . . . . . . . . . . . . . . . . . . . W X Y . . ",
". . # / Z . . . . . . . O  .!.>.,.,.,.,.,.,.,.>.~.{.K . . . . . . . . . . . . . . . . . . . . . . . . . . . . . . . . . . . . . . . . . . . W X Y . . ",
". . # / Z . . . . . . ].^./.>.,.,.,.,.,.,.,.,.,.@.(._.. . . . . . . . . . . . . . . . . . . . . . . . . . . . . . . . . . . . . . . . . . . W X Y . . ",
". . # / Z . . . . . . :.<.[.,.,.,.,.,.,.,.,.,.,.>.}.P & . . . . . . . . . . . . . . . . . . . . . . . . . . . . . . . . . . . . . . . . . . W X Y . . ",
". . # / Z . . . . . . H R @.,.,.,.,.,.,.,.,.,.,.,.|.1.& . . . . . . . . . . . . . . . . . . . . . . . . . . . . . . . . . . . . . . . . . . W X Y . . ",
". . # / Z . . . . . . I S 2.,.,.,.,.,.,.,.,.,.,.,.[.3.& . . . . . . . . . . . . . . . . . . . . . . . . . . . . . . . . . . . . . . . . . . W X Y . . ",
". . # / Z . . . . . . 4.5.6.,.,.,.,.,.,.,.,.,.,.,.7.8.& . . . . . . . . . . . . . . . . . . . . . . . . . . . . . . . . . . . . . . . . . . W X Y . . ",
". . # / Z . . . . . . K U %.,.,.,.,.,.,.,.,.,.,.>.9.0.& . . . . . . . . . . . . . . . . . . . . . . . . . . . . . . . . . . . . . . . . . . W X Y . . ",
". . # / Z . . . . . . . V &.'.,.,.,.,.,.,.,.,.,.a.b.I . . . . . . . . . . . . . . . . . . . . . . . . . . . . . . . . . . . . . . . . . . . W X Y . . ",
". . # / Z . . . . . . . G c.).>.,.,.,.,.,.,.,.d.e.f.& . . . . . . . . . . . . . . . . . . . . . . . . . . . . . . . . . . . . . . . . . . . W X Y . . ",
". . # / Z . . . . . . . . =.g.h.@.>.,.,.,.>.a.i.j.k.. . . . . . . . . . . . . . . . . . . . . . . . . . . . . . . . . . . . . . . . . . . . W X Y . . ",
". . # / Z . . . . . . . . . O {.(.l.m.n.o.p.q.f.k.. . . . . . . . . . . . . . . . . . . . . . . . . . . . . . . . . . . . . . . . . . . . . W X Y . . ",
". . # / Z . . . . . . . . . . K _.^.r.s.t.u.v.& . . . . . . . . . . . . . . . . . . . . . . . . . . . . . . . . . . . . . . . . . . . . . . W X Y . . ",
". . # / Z . . . . . . . . . . . . & & & & & . . . . . . . . . . . . . . . . . . . . . . . . . . . . . . . . . . . . . . . . . . . . . . . . W X Y . . ",
". . # / Z . . . . . . . . . . . . . . . . . . . . . . . . . . . . . . . . . . . . . . . . . . . . . . . . . . . . . . . . . . . . . . . . . W X Y . . ",
". . # / Z . . . . . . . . . . . . . . . . . . . . . . . . . . . . . . . . . . . . . . . . . . . . . . . . . . . . . . . . . . . . . . . . . W X Y . . ",
". . # / Z . . . . . . . . . . . . . . . . . . . . . . . . . . . . . . . . . . . . . . . . . . . . . . . . . . . . . . . . . . . . . . . . . W X Y . . ",
". . # / Z . . . . . . . . . . . . . . . . . . . . . . . . . . . . . . . . . . . . . . . . . . . . . . . . . . . . . . . . . . . . . . . . . W X Y . . ",
". . # / Z . . . . . . . . . . . . . . . . . . . . . . . . . . . . . . . . . . . . . . . . . . . . . . . . . . . . . . . . . . . . . . . . . W X Y . . ",
". . # / Z . . . . . . . . . . . . . . . . . . . . . . . . . . . . . . . . . . . . . . . . . . . . . . . . . . . . . . . . . . . . . . . . . W X Y . . ",
". . # / Z . . . . . . . . . . . . . . . . . . . . . . . . . . . . . . . . . . . . . . . . . . . . . . . . . . . . . . . . . . . . . . . . . W X Y . . ",
". . # / Z . . . . . . . . . . . . . . . . . . . . . . . . . . . . . . . . . . . . . . . . . . . . . . . . . . . . . . . . . . . . . . . . . W X Y . . ",
". . # / Z . . . . . . . . . . . . . . . . . . . . . . . . . . . . . . . . . . . . . . . . . . . . . . . . . . . . . . . . . . . . . . . . . W X Y . . ",
". . # / Z . . . . . . . . . . . . . . . . . . . . . . . . . . . . . . . . . . . . . . . . . . . . . . . . . . . . . . . . . . . . . . . . . W X Y . . ",
". . # / Z . . . . . . . . . . . . . . . . . . . . . . . . . . . . . . . . . . . . . . . . . . . . . . . . . . . . . . . . . . . . . . . . . W X Y . . ",
". . # / Z . . . . . . . . . . . . . . . . . . . . . . . . . . . . . . . . . . . . . . . . . . . . . . . . . . . . . . . . . . . . . . . . . W X Y . . ",
". . # / Z . . . . . . . . . . . . . . . . . . . . . . . . . . . . . . . . . . . . . . . . . . . . . . . . . . . . . . . . . . . . . . . . . W X Y . . ",
". . # / Z . . . . . . . . . . . . . . . . . . . . . . . . . . . . . . . . . . . . . . . . . . . . . . . . . . . . . . . . . . . . . . . . . W X Y . . ",
". . # / Z . . . . . . . . . . . . . . . . . . . . . . . . . . . . . . . . . . . . . . . . . . . . . . . . . . . . . . . . . . . . . . . . . W X Y . . ",
". . # / Z . . . . . . . . . . . . . . . . . . . . . . . . . . . . . . . . . . . . . . . . . . . . . . . . . . . . . . . . . . . . . . . . . W X Y . . ",
". . # / Z . . . . . . . . . . . . . . . . . . . . . . . . . . . . . . . . . . . . . . . . . . . . . . . . . . . . . . . . . . . . . . . . . W X Y . . ",
". . # / Z . . . . . . . . . . . . . . . . . . . . . . . . . . . . . . . . . . . . . . . . . . . . . . . . . . . . . . . . . . . . . . . . . W X Y . . ",
". . # / Z . . . . . . . . . . . . . . . . . . . . . . . . . . . . . . . . . . . . . . . . . . . . . . . . . . . . . . . . . . . . . . . . . W X Y . . ",
". . # / Z . . . . . . . . . . . . . . . . . . . . . . . . . . . . . . . . . . . . . . . . . . . . . . . . . . . . . . . . . . . . . . . . . W X Y . . ",
". . # / Z . . . . . . . . . . . . . . . . . . . . . . . . . . . . . . . . . . . . . . . . . . . . . . . . . . . . . . . . . . . . . . . . . W X Y . . ",
". . # / Z . . . . . . . . . . . . . . . . . . . . . . . . . . . . . . . . . . . . . . . . . . . . . . . . . . . & w.x.y.z.A.& . . . . . . . W X Y . . ",
". . # / Z . . . . . . . . . . . . . . . . . . . . . . . . . . . . . . . . . . . . . . . . . . . . . . . . . . x.B.C.D.E.F.G.H.v.. . . . . . W X Y . . ",
". . # / Z . . . . . . . . . . . . . . . . . . . . . . . . . . . . . . . . . . . . . . . . . . . . . . . . & I.J.K.L.'.M.N.a.O.P.Q.& . . . . W X Y . . ",
". . # / Z . . . . . . . . . . . . . . . . . . . . . . . . . . . . . . . . . . . . . . . . . . . . . . . . V R.[.,.,.,.,.,.,.>.S.J.T.. . . . W X Y . . ",
". . # / Z . . . . . . . . . . . . . . . . . . . . . . . . . . . . . . . . . . . . . . . . . . . . . . . U.V.W.,.,.,.,.,.,.,.,.>.X.Y.Z.. . . W X Y . . ",
". . # / Z . . . . . . . . . . . . . . . . . . . . . . . . . . . . . . . . . . . . . . . . . . . . . . . `. +>.,.,.,.,.,.,.,.,.,.M..+++. . . W X Y . . ",
". . # / Z . . . . . . . . . . . . . . . . . . . . . . . . . . . . . . . . . . . . . . . . . . . . . . @+#+$+,.,.,.,.,.,.,.,.,.,.,.%+&+*+. . W X Y . . ",
". . # / Z . . . . . . . . . . . . . . . . . . . . . . . . . . . . . . . . . . . . . . . . . . . . . . =+-+;+,.,.,.,.,.,.,.,.,.,.,.>+,+'+. . W X Y . . ",
". . # / Z . . . . . . . . . . . . . . . . . . . . . . . . . . . . . . . . . . . . . . . . . . . . . . )+!+~+,.,.,.,.,.,.,.,.,.,.,.a.{+@+. . W X Y . . ",
". . # / Z . . . . . . . . . . . . . . . . . . . . . . . . . . . . . . . . . . . . . . . . . . . . . . ]+^+/+,.,.,.,.,.,.,.,.,.,.,.|.(+k.. . W X Y . . ",
". . # / Z . . . . . . . . . . . . . . . . . . . . . . . . . . . . . . . . . . . . . . . . . . . . . . & _+:+,.,.,.,.,.,.,.,.,.,.>./.<+& . . W X Y . . ",
". . # / Z . . . . . . . . . . . . . . . . . . . . . . . . . . . . . . . . . . . . . . . . . . . . . . . [+}+$.,.,.,.,.,.,.,.,.,.a.J.|+. . . W X Y . . ",
". . # / Z . . . . . . . . . . . . . . . . . . . . . . . . . . . . . . . . . . . . . . . . . . . . . . . K 1+2+2.,.,.,.,.,.,.,.3+4+5+& . . . W X Y . . ",
". . # / Z . . . . . . . . . . . . . . . . . . . . . . . . . . . . . . . . . . . . . . . . . . . . . . . . Z.6+e.7+8+,.,.,.M.9+0+a+b+. . . . W X Y . . ",
". . z c+d+. . . . . . . . . . . . . . . . . . . . . . . . . . . . . . . . . . . . . . . . . . . . . . . . . e+5+f+g+h+i+j+k+l+m+K . . . . . n+q r . . ",
". . o+p+q+& . . . . . . . . . . . . . . . . . . . . . . . . . . . . . . . . . . . . . . . . . . . . . . . . . . H r+s+t+<+u+A.. . . . . . . v+w+x+. . ",
". . y+z+A+y+. . . . . . . . . . . . . . . . . . . . . . . . . . . . . . . . . . . . . . . . . . . . . . . . . . . . & & & . . . . . . . . . B+C+D+. . ",
". . . B+, E+. . . . . . . . . . . . . . . . . . . . . . . . . . . . . . . . . . . . . . . . . . . . . . . . . . . . . . . . . . . . . . . F+G+l H+. . ",
". . . I+J+g { . . . . . . . . . . . . . . . . . . . . . . . . . . . . . . . . . . . . . . . . . . . . . . . . . . . . . . . . . . . . . . K+q L+. . . ",
". . . & } 6 M+& . . . . . . . . . . . . . . . . . . . . . . . . . . . . . . . . . . . . . . . . . . . . . . . . . . . . . . . . . . . . L N+O+h . . . ",
". . . . h w , = P+. . . . . . . . . . . . . . . . . . . . . . . . . . . . . . . . . . . . . . . . . . . . . . . . . . . . . . . . . v Q+R+S+T+. . . . ",
". . . . . j U+q V+Z x+W W+W+W+W+W+W+W+W+W+W+W+W+W+W+W+W+W+W+W+W+W+W+W+W+W+W+W+W+W+W+W+W+W+W+W+W+W+W+W+W+W+W+W+W+W+W+W+W+W+W+W+X+L p Y+2 G+D . . . . . ",
". . . . . . 9 Z+l / M 6 `+`+`+`+`+`+`+`+`+`+`+`+`+`+`+`+`+`+`+`+`+`+`+`+`+`+`+`+`+`+`+`+`+`+`+`+`+`+`+`+`+`+`+`+`+`+`+`+`+`+`+`+q 6  @.@@ & . . . . . ",
". . . . . . . . H++@@@Y Y Y Y Y Y Y Y Y Y Y Y Y Y Y Y Y Y Y Y Y Y Y Y Y Y Y Y Y Y Y Y Y Y Y Y Y Y Y Y Y Y Y Y Y Y Y Y Y Y Y Y Y #@n+d & . . . . . . . ",
". . . . . . . . . . . . . . . . . . . . . . . . . . . . . . . . . . . . . . . . . . . . . . . . . . . . . . . . . . . . . . . . . . . . . . . . . . . ",
". . . . . . . . . . . . . . . . . . . . . . . . . . . . . . . . . . . . . . . . . . . . . . . . . . . . . . . . . . . . . . . . . . . . . . . . . . . "};
