/* XPM */
static char * c1_xpm[] = {
"25 25 484 2",
"  	c #EDFFFF",
". 	c #F1FFFF",
"+ 	c #FCFFFF",
"@ 	c #FFFDFD",
"# 	c #FFFCF8",
"$ 	c #FFFCF6",
"% 	c #FFFEF6",
"& 	c #FFFFF8",
"* 	c #FFFFFA",
"= 	c #FFFFFD",
"- 	c #FFFDFF",
"; 	c #FFF9FF",
"> 	c #FFFBFF",
", 	c #FFFEFF",
"' 	c #FCFBFF",
") 	c #FDFCFF",
"! 	c #F6FFFF",
"~ 	c #F4FFFF",
"{ 	c #F2FEFC",
"] 	c #F9F9F9",
"^ 	c #FFF8FB",
"/ 	c #FFFAFC",
"( 	c #F2FFFF",
"_ 	c #F5FFFF",
": 	c #FBFFFF",
"< 	c #FFFEFA",
"[ 	c #FFFFF6",
"} 	c #FEFEFC",
"| 	c #FDFBFC",
"1 	c #FDFBFE",
"2 	c #FAFAFC",
"3 	c #F8F9FB",
"4 	c #F9FDFC",
"5 	c #FEFFFF",
"6 	c #FFFCFF",
"7 	c #FFFAFF",
"8 	c #F5FAFD",
"9 	c #F1FDFD",
"0 	c #EFFFFC",
"a 	c #F3FFFD",
"b 	c #FCFEFD",
"c 	c #FFFBFC",
"d 	c #FEFEFF",
"e 	c #F9FFFF",
"f 	c #F9FFFB",
"g 	c #FBFFF8",
"h 	c #FCFFF8",
"i 	c #FEFFF8",
"j 	c #F9FCF5",
"k 	c #F8FAF5",
"l 	c #FAFFFB",
"m 	c #FBFFFD",
"n 	c #F8FFFD",
"o 	c #F7FFFB",
"p 	c #F4FFF9",
"q 	c #FBFFFA",
"r 	c #FFFAFE",
"s 	c #F8FFFF",
"t 	c #F7FFFF",
"u 	c #FAFFFE",
"v 	c #F9FBFA",
"w 	c #FFFDFE",
"x 	c #FCFFFB",
"y 	c #FCFFFA",
"z 	c #FEFFFB",
"A 	c #FDFFFA",
"B 	c #F7FCF6",
"C 	c #F8FDF7",
"D 	c #F7FFF6",
"E 	c #F5FFF3",
"F 	c #F2FFEE",
"G 	c #F5FDEE",
"H 	c #FFFBF8",
"I 	c #FDFFFE",
"J 	c #F9FFFD",
"K 	c #F8FEFC",
"L 	c #F5F9F8",
"M 	c #FEFEFE",
"N 	c #FFFAFD",
"O 	c #FFFCFB",
"P 	c #FFFFFB",
"Q 	c #F6FDF6",
"R 	c #FFFDF7",
"S 	c #FFFEF4",
"T 	c #FFFFF1",
"U 	c #FFFFED",
"V 	c #F9FFF8",
"W 	c #F9FFF9",
"X 	c #F7F7F5",
"Y 	c #FAF9F7",
"Z 	c #FDFCFA",
"` 	c #FEFDFB",
" .	c #FFF9FD",
"..	c #FFFBFD",
"+.	c #FEFFFD",
"@.	c #F9FBF8",
"#.	c #FAF6F5",
"$.	c #FBEDED",
"%.	c #FDE5E5",
"&.	c #FEE0DE",
"*.	c #FFE3DB",
"=.	c #FFE9DC",
"-.	c #FFEFE1",
";.	c #FFF8ED",
">.	c #FEF7EF",
",.	c #FFF7F1",
"'.	c #FFFCFA",
").	c #FBFCF7",
"!.	c #FFFEFB",
"~.	c #E6D3D9",
"{.	c #C8A4AE",
"].	c #C697A1",
"^.	c #D39AA3",
"/.	c #DC9FA4",
"(.	c #E4A6A7",
"_.	c #ECAFAE",
":.	c #F5B9B9",
"<.	c #EEB3B5",
"[.	c #F3BCBF",
"}.	c #FFD6D8",
"|.	c #FFEEEC",
"1.	c #FFF8F3",
"2.	c #FAFBF3",
"3.	c #F3FFF3",
"4.	c #F6FFF9",
"5.	c #F9FFFA",
"6.	c #E5D4DA",
"7.	c #AB949C",
"8.	c #876772",
"9.	c #A17781",
"0.	c #CD98A2",
"a.	c #DB99A3",
"b.	c #D98992",
"c.	c #D68188",
"d.	c #CB747A",
"e.	c #BD666C",
"f.	c #C16A72",
"g.	c #DC8F95",
"h.	c #F9BDBF",
"i.	c #FFDDDB",
"j.	c #FFF4EB",
"k.	c #F8FFF7",
"l.	c #FCF7F1",
"m.	c #F1F9EC",
"n.	c #FCFFF4",
"o.	c #FFFFF4",
"p.	c #FFF0EB",
"q.	c #FFE9EC",
"r.	c #F1CED5",
"s.	c #A4868E",
"t.	c #78676D",
"u.	c #918F90",
"v.	c #898584",
"w.	c #AF9B9C",
"x.	c #C99CA1",
"y.	c #CF7F8C",
"z.	c #C56873",
"A.	c #B2585A",
"B.	c #A94D4E",
"C.	c #AC434A",
"D.	c #BD525C",
"E.	c #DA7481",
"F.	c #E69099",
"G.	c #E2AAAB",
"H.	c #F8DBD7",
"I.	c #FFF8EF",
"J.	c #FFF6F1",
"K.	c #FFF5EE",
"L.	c #FFF8EC",
"M.	c #FFF5E9",
"N.	c #F6E2D7",
"O.	c #D9B6B2",
"P.	c #CA9398",
"Q.	c #B77E87",
"R.	c #93656F",
"S.	c #886F73",
"T.	c #676863",
"U.	c #727972",
"V.	c #8A807E",
"W.	c #896567",
"X.	c #954955",
"Y.	c #7F232E",
"Z.	c #782925",
"`.	c #88332E",
" +	c #8A2024",
".+	c #870F19",
"++	c #A32435",
"@+	c #A73242",
"#+	c #943A44",
"$+	c #A26165",
"%+	c #EEC8C7",
"&+	c #FFD3D5",
"*+	c #DFADAC",
"=+	c #CCA39D",
"-+	c #A1766F",
";+	c #A8736D",
">+	c #C58482",
",+	c #E7969C",
"'+	c #F8A7B0",
")+	c #FAB7BE",
"!+	c #DBADB0",
"~+	c #6E5956",
"{+	c #635650",
"]+	c #644F4A",
"^+	c #673D3E",
"/+	c #6D242D",
"(+	c #5D0E13",
"_+	c #652A1C",
":+	c #672817",
"<+	c #751A15",
"[+	c #7E0B12",
"}+	c #951021",
"|+	c #920D20",
"1+	c #7E071A",
"2+	c #811C2C",
"3+	c #AC636E",
"4+	c #EBAAAE",
"5+	c #A36364",
"6+	c #CD908D",
"7+	c #E1A09C",
"8+	c #F9B0AA",
"9+	c #FEAAA8",
"0+	c #F99B9C",
"a+	c #F9969B",
"b+	c #EA8E93",
"c+	c #ED9B9F",
"d+	c #CF888C",
"e+	c #AC6C6D",
"f+	c #743234",
"g+	c #651D21",
"h+	c #5E0910",
"i+	c #7A2425",
"j+	c #6A2015",
"k+	c #5F1306",
"l+	c #741914",
"m+	c #7A1115",
"n+	c #7E0A15",
"o+	c #790414",
"p+	c #760A1A",
"q+	c #710E20",
"r+	c #CD7B89",
"s+	c #DA9EA0",
"t+	c #925253",
"u+	c #D79191",
"v+	c #F2A4A0",
"w+	c #EC9792",
"x+	c #EB9189",
"y+	c #FE9B95",
"z+	c #FF9D9A",
"A+	c #FF9598",
"B+	c #F26C75",
"C+	c #F05F6E",
"D+	c #D03D4F",
"E+	c #AD2030",
"F+	c #A3212D",
"G+	c #800B11",
"H+	c #810E11",
"I+	c #880D12",
"J+	c #881115",
"K+	c #831A1E",
"L+	c #660C0C",
"M+	c #641A19",
"N+	c #5D1D1D",
"O+	c #6A2D32",
"P+	c #83474F",
"Q+	c #EDB1BB",
"R+	c #D9A9A9",
"S+	c #6F3534",
"T+	c #944646",
"U+	c #DE7E7F",
"V+	c #FF9998",
"W+	c #FF9692",
"X+	c #FB827A",
"Y+	c #D5564F",
"Z+	c #CE4340",
"`+	c #BC2125",
" @	c #C41A25",
".@	c #C41421",
"+@	c #BD111F",
"@@	c #AC0C16",
"#@	c #9F1316",
"$@	c #870004",
"%@	c #990815",
"&@	c #920B19",
"*@	c #6E070B",
"=@	c #4F0806",
"-@	c #744942",
";@	c #664B42",
">@	c #7A625E",
",@	c #C4ACAA",
"'@	c #FFE4E9",
")@	c #F6DAD6",
"!@	c #7D504D",
"~@	c #671114",
"{@	c #B84147",
"]@	c #E9535C",
"^@	c #D33237",
"/@	c #C42623",
"(@	c #BA231C",
"_@	c #B6281E",
":@	c #AE2016",
"<@	c #A6110A",
"[@	c #A90E0A",
"}@	c #AD0A0B",
"|@	c #9F0000",
"1@	c #AA0C09",
"2@	c #9F090A",
"3@	c #930A14",
"4@	c #820E19",
"5@	c #6A1518",
"6@	c #4B1612",
"7@	c #675146",
"8@	c #625E52",
"9@	c #8A8C81",
"0@	c #D4D7D0",
"a@	c #F2F4F1",
"b@	c #E9D2CC",
"c@	c #BE9792",
"d@	c #7E3234",
"e@	c #7D0E15",
"f@	c #980410",
"g@	c #A7010D",
"h@	c #AF0E14",
"i@	c #9B0707",
"j@	c #860A00",
"k@	c #811103",
"l@	c #7D0B00",
"m@	c #820900",
"n@	c #950E0A",
"o@	c #980A08",
"p@	c #970907",
"q@	c #A11F1F",
"r@	c #9D343B",
"s@	c #A7565D",
"t@	c #B67E7F",
"u@	c #6F504B",
"v@	c #524940",
"w@	c #6A7064",
"x@	c #B2BCB3",
"y@	c #CCD9D0",
"z@	c #E6F5EE",
"A@	c #FFDED9",
"B@	c #EFC7C5",
"C@	c #BB8B89",
"D@	c #884044",
"E@	c #841623",
"F@	c #920F21",
"G@	c #930B1F",
"H@	c #800814",
"I@	c #651111",
"J@	c #6B2A24",
"K@	c #601F19",
"L@	c #5C120F",
"M@	c #73171A",
"N@	c #8C292E",
"O@	c #AB5153",
"P@	c #BF777A",
"Q@	c #D1A4A7",
"R@	c #D9BFC2",
"S@	c #D9C7C7",
"T@	c #BFB5B3",
"U@	c #AEAAA7",
"V@	c #B7B9B4",
"W@	c #CBCDCA",
"X@	c #D2D7D3",
"Y@	c #F2F6F5",
"Z@	c #FFECE8",
"`@	c #F3DAD5",
" #	c #D4BDB7",
".#	c #B48E8D",
"+#	c #934A55",
"@#	c #751729",
"##	c #6E071C",
"$#	c #6B1323",
"%#	c #673538",
"&#	c #917470",
"*#	c #674B47",
"=#	c #5B3534",
"-#	c #9D646A",
";#	c #C1848B",
">#	c #D5A3A6",
",#	c #E1BFC0",
"'#	c #CCC0C0",
")#	c #CECECE",
"!#	c #D2D2D2",
"~#	c #CBCBCB",
"{#	c #C4C4C4",
"]#	c #C9C9C9",
"^#	c #D5D5D5",
"/#	c #DFDFDF",
"(#	c #FAFAFA",
"_#	c #EFEFE5",
":#	c #DADCD1",
"<#	c #CDC2BC",
"[#	c #C69FA2",
"}#	c #B57C85",
"|#	c #8A4B56",
"1#	c #501D24",
"2#	c #614C49",
"3#	c #7F7B72",
"4#	c #59564D",
"5#	c #7C716B",
"6#	c #D4B8B7",
"7#	c #DDBFBF",
"8#	c #DCC7C4",
"9#	c #DDCFCC",
"0#	c #D3CFCE",
"a#	c #CACACA",
"b#	c #CDCDCD",
"c#	c #D0D0D0",
"d#	c #E4E4E4",
"e#	c #F3F3F3",
"f#	c #F6FFF8",
"g#	c #F4FFF7",
"h#	c #EFFCF2",
"i#	c #E2E5DE",
"j#	c #DDCDCD",
"k#	c #E0C3C7",
"l#	c #B5959A",
"m#	c #674E51",
"n#	c #504D48",
"o#	c #4A544B",
"p#	c #5C665D",
"q#	c #A8ADA6",
"r#	c #DAD2CF",
"s#	c #D0C6C4",
"t#	c #D0CDC8",
"u#	c #C9C8C4",
"v#	c #CFCFCD",
"w#	c #C7C7C7",
"x#	c #D3D3D3",
"y#	c #DEDEDE",
"z#	c #E6E6E6",
"A#	c #FFFFFF",
"B#	c #F4FFFC",
"C#	c #F2FEFA",
"D#	c #F1EFF0",
"E#	c #EEE5E8",
"F#	c #DFD4D8",
"G#	c #BBB5B7",
"H#	c #898B8A",
"I#	c #808986",
"J#	c #ACB5B2",
"K#	c #CCD5D2",
"L#	c #C7C9C8",
"M#	c #D6D8D7",
"N#	c #D1D3D2",
"O#	c #D6D6D6",
"P#	c #DADADA",
"Q#	c #E3E3E3",
"R#	c #EFEFEF",
"S#	c #FDFDFD",
"T#	c #F2FBFA",
"U#	c #F8FEFE",
"V#	c #F6F7F9",
"W#	c #E7E8EA",
"X#	c #E0E1E3",
"Y#	c #EEF2F3",
"Z#	c #E7EBEC",
"`#	c #DEE2E3",
" $	c #E6EAEB",
".$	c #E3E4E6",
"+$	c #EAEBED",
"@$	c #F1F1F1",
"#$	c #F6F6F6",
"$$	c #FCFCFC",
"%$	c #FAF8FD",
"&$	c #F3F2F7",
"*$	c #F2F6F9",
"=$	c #F7FBFE",
"-$	c #FFF6FE",
";$	c #FCF1F9",
">$	c #FAF3FA",
",$	c #FCF5FC",
"'$	c #FFF5FF",
")$	c #FFF7FF",
"!$	c #FFF8FF",
"~$	c #FCFAFF",
"{$	c #F8F8FA",
"]$	c #FFF8FD",
"^$	c #FBFBFB",
"/$	c #F0FFFF",
"($	c #F4FFFE",
"_$	c #FAFEFD",
"  . + @ # $ % & * = - ; > - , ' - ) ! ~ . { ] ^ / ",
"( _ : = < [ [ & * } | 1 2 3 4 5 6 7 8 9 0 a b , c ",
"- d : e f g h i j k l m n o p q r 7 - : s t u v w ",
"7 > , 5 x q q y z A B C D E F G H > , I J u K L M ",
"7 7 ; ; N O P x Q q P R S T U T V f W k X Y Z ` w ",
"- > ; ;  ...P +.@.#.$.%.&.*.=.-.;.>.,.H # '.H ).} ",
"s : = = !.P = = 6 ~.{.].^./.(._.:.<.[.}.|.1.2.3.4.",
"J f 5.y * * O N 6.7.8.9.0.a.b.c.d.e.f.g.h.i.j.[ k.",
"l.[ m.n.o.p.q.r.s.t.u.v.w.x.y.z.A.B.C.D.E.F.G.H.I.",
"J.K.L.M.N.O.P.Q.R.S.T.U.V.W.X.Y.Z.`. +.+++@+#+$+%+",
"&+*+=+-+;+>+,+'+)+!+~+{+]+^+/+(+_+:+<+[+}+|+1+2+3+",
"4+5+6+7+8+9+0+a+b+c+d+e+f+g+h+i+j+k+l+m+n+o+p+q+r+",
"s+t+u+v+w+x+y+z+A+B+C+D+E+F+G+H+I+J+K+L+M+N+O+P+Q+",
"R+S+T+U+V+W+X+Y+Z+`+ @.@+@@@#@$@%@&@*@=@-@;@>@,@'@",
")@!@~@{@]@^@/@(@_@:@<@[@}@|@1@2@3@4@5@6@7@8@9@0@a@",
"b@c@d@e@f@g@h@i@j@k@l@m@n@o@p@q@r@s@t@u@v@w@x@y@z@",
"A@B@C@D@E@F@G@H@I@J@K@L@M@N@O@P@Q@R@S@T@U@V@W@X@Y@",
"Z@`@ #.#+#@###$#%#&#*#=#-#;#>#,#'#)#!#~#{#]#^#/#(#",
"[ _#:#<#[#}#|#1#2#3#4#5#6#7#8#9#0#a#]#b#c#^#d#e#M ",
"f#g#h#i#j#k#l#m#n#o#p#q#r#s#t#u#v#w#w#x#y#z#e#A#A#",
"B#C#t e D#E#F#G#H#I#J#K#L#~#M#N#O#P#Q#R#] S#A#A#A#",
"e T#U#+ + 5 5 V#W#X#Y#Z#`# $.$+$@$#$$$A#A#A#A#M A#",
"%$- > ; &$*$8 =$6 -$;$>$, , ,$- , A#M $$S#M A#A#A#",
"7 > '$7 5 s _ s )$7 !$> ~${$> ]$, ^$^$A#A#A#A#A#M ",
"6 - 7 - e ( /$($6 r 7 - : _$6 - , A#A#A#A#A#A#A#A#"};
