/* XPM */
static char * h1_xpm[] = {
"28 25 681 2",
"  	c None",
". 	c #FFF8FF",
"+ 	c #FBFBFE",
"@ 	c #F0FDFF",
"# 	c #E8FCFF",
"$ 	c #EEFFFE",
"% 	c #F8FCF4",
"& 	c #FEFAE8",
"* 	c #F6DDC7",
"= 	c #F8BBA1",
"- 	c #F7B397",
"; 	c #F4CAAF",
"> 	c #F6E1C7",
", 	c #FBF2DC",
"' 	c #FFFCEE",
") 	c #F5F6F3",
"! 	c #FBFFFE",
"~ 	c #F8FEFF",
"{ 	c #F5FDFF",
"] 	c #F5FEFF",
"^ 	c #F9FDFE",
"/ 	c #FFFDFE",
"( 	c #FFFEF8",
"_ 	c #FFFBF2",
": 	c #FDFAF0",
"< 	c #FBFBF3",
"[ 	c #FBFEF8",
"} 	c #F9FFFB",
"| 	c #FEFAFF",
"1 	c #F5F5FC",
"2 	c #F8FFFF",
"3 	c #F1FCFB",
"4 	c #F1FCF6",
"5 	c #FCFBEE",
"6 	c #F2E2CE",
"7 	c #B8876E",
"8 	c #CE8D6F",
"9 	c #C98360",
"0 	c #B67654",
"a 	c #BB8966",
"b 	c #D3B18D",
"c 	c #E3CEB0",
"d 	c #FDF1E1",
"e 	c #FFF7EE",
"f 	c #FDF9F7",
"g 	c #FAF9FA",
"h 	c #FCFDFD",
"i 	c #FAFBFE",
"j 	c #F5F4F7",
"k 	c #FEFAF8",
"l 	c #FFFDF8",
"m 	c #FFFEF6",
"n 	c #FEFEF5",
"o 	c #FDFEF6",
"p 	c #FAFEF9",
"q 	c #F8FFFA",
"r 	c #FEFAFD",
"s 	c #FFFDFD",
"t 	c #FCFBF8",
"u 	c #F9F8F0",
"v 	c #FCF9ED",
"w 	c #EADAC8",
"x 	c #B79A83",
"y 	c #B4876B",
"z 	c #C18A68",
"A 	c #D0926B",
"B 	c #D49568",
"C 	c #C98C5A",
"D 	c #BA814B",
"E 	c #B37E4B",
"F 	c #D1A07A",
"G 	c #E6BDA1",
"H 	c #F8DEC8",
"I 	c #FFF1E4",
"J 	c #FFF9F2",
"K 	c #FFFBF9",
"L 	c #FFFCFC",
"M 	c #FFFCF9",
"N 	c #FFFDF9",
"O 	c #FEFDF6",
"P 	c #FBFDF7",
"Q 	c #F9FDFA",
"R 	c #F6FFFB",
"S 	c #FDFCFB",
"T 	c #FDFAF7",
"U 	c #FBF3EB",
"V 	c #FDF7EB",
"W 	c #ECDCCD",
"X 	c #B49886",
"Y 	c #A58672",
"Z 	c #CCA993",
"` 	c #CFAA8C",
" .	c #CDA07B",
"..	c #CC9466",
"+.	c #D39258",
"@.	c #DB904D",
"#.	c #DA8943",
"$.	c #BD6C2F",
"%.	c #B86D3A",
"&.	c #C3845D",
"*.	c #E0B397",
"=.	c #F9E1CF",
"-.	c #FFF5ED",
";.	c #FFF5F1",
">.	c #FFF8F6",
",.	c #FFFBF8",
"'.	c #FFFCF8",
").	c #FFFEFA",
"!.	c #FEFFFC",
"~.	c #FCFFFE",
"{.	c #F5FDFD",
"].	c #FDFEFC",
"^.	c #FDFAF4",
"/.	c #FDF7EC",
"(.	c #F0DBCF",
"_.	c #BA9285",
":.	c #A0776C",
"<.	c #CEADA1",
"[.	c #E1CCC1",
"}.	c #E8D6C5",
"|.	c #E5CCB2",
"1.	c #DAB087",
"2.	c #D99A60",
"3.	c #E89049",
"4.	c #F68E3F",
"5.	c #F3883C",
"6.	c #E27D3B",
"7.	c #C7713C",
"8.	c #B47049",
"9.	c #B78870",
"0.	c #DBBDB2",
"a.	c #FCF0EC",
"b.	c #FFF9F8",
"c.	c #FFFBFB",
"d.	c #FEFBF9",
"e.	c #FEFDFB",
"f.	c #FDFFFE",
"g.	c #F6FBFA",
"h.	c #FBFDF8",
"i.	c #FFFAF3",
"j.	c #F2D9D0",
"k.	c #BE8D84",
"l.	c #965A51",
"m.	c #AB7874",
"n.	c #DEBCBC",
"o.	c #F7EFF3",
"p.	c #E3E2E1",
"q.	c #E6E0D5",
"r.	c #EAD0B3",
"s.	c #D89D6D",
"t.	c #D77B39",
"u.	c #F48236",
"v.	c #FD8435",
"w.	c #F8873F",
"x.	c #E7874E",
"y.	c #C97E55",
"z.	c #A8735B",
"A.	c #9C776F",
"B.	c #9D8888",
"C.	c #EEE1E5",
"D.	c #FDF5FA",
"E.	c #FFFCFE",
"F.	c #FFFCFD",
"G.	c #FFFFFD",
"H.	c #FEFEFC",
"I.	c #FEF5EB",
"J.	c #F0DDD3",
"K.	c #B88377",
"L.	c #9D5348",
"M.	c #A5534C",
"N.	c #AD6767",
"O.	c #E3B4BA",
"P.	c #FDF0FC",
"Q.	c #F2F3FB",
"R.	c #EAE9E8",
"S.	c #DBC3B2",
"T.	c #CC916C",
"U.	c #D9773F",
"V.	c #F47C38",
"W.	c #F47E33",
"X.	c #F38845",
"Y.	c #E78C5A",
"Z.	c #C88361",
"`.	c #A07160",
" +	c #866968",
".+	c #7E6E75",
"++	c #7B717D",
"@+	c #B2ABB6",
"#+	c #E8E2E9",
"$+	c #FCF9FC",
"%+	c #FFFCFB",
"&+	c #FDF8F4",
"*+	c #F3D9C5",
"=+	c #C18B78",
"-+	c #9B4C37",
";+	c #A3412E",
">+	c #B3493B",
",+	c #B0524D",
"'+	c #EFA8AB",
")+	c #FEEBF5",
"!+	c #F8EAF4",
"~+	c #EAD8DA",
"{+	c #CAA498",
"]+	c #BB7556",
"^+	c #D26939",
"/+	c #E86F36",
"(+	c #E1783D",
"_+	c #D9814F",
":+	c #C17958",
"<+	c #AC7867",
"[+	c #AA8B89",
"}+	c #A1919C",
"|+	c #847F90",
"1+	c #6A697C",
"2+	c #656373",
"3+	c #8F8B96",
"4+	c #C8C2C7",
"5+	c #EDE6E6",
"6+	c #FCF9F5",
"7+	c #FFFBF6",
"8+	c #C18268",
"9+	c #974B30",
"0+	c #923115",
"a+	c #A9351B",
"b+	c #B43922",
"c+	c #AE3C2D",
"d+	c #D7766F",
"e+	c #F3BEBF",
"f+	c #FDD7D7",
"g+	c #DDAAA5",
"h+	c #B07060",
"i+	c #BC6446",
"j+	c #D46135",
"k+	c #DC6635",
"l+	c #CB764D",
"m+	c #B07053",
"n+	c #AA796A",
"o+	c #BA9B9B",
"p+	c #C8BBC8",
"q+	c #C1C0D7",
"r+	c #AFB6D2",
"s+	c #A3ABC6",
"t+	c #84899E",
"u+	c #6F707E",
"v+	c #6F6B72",
"w+	c #999192",
"x+	c #D8D0CE",
"y+	c #F9F1EC",
"z+	c #9F5137",
"A+	c #913A1E",
"B+	c #9B3416",
"C+	c #A73114",
"D+	c #AF3115",
"E+	c #AF321C",
"F+	c #B43F2E",
"G+	c #C35F52",
"H+	c #DA8275",
"I+	c #BF6756",
"J+	c #B0523A",
"K+	c #C65C3B",
"L+	c #D1592F",
"M+	c #D16339",
"N+	c #AB6B54",
"O+	c #9F786F",
"P+	c #B39A9C",
"Q+	c #CCC2D1",
"R+	c #CED2ED",
"S+	c #C5D1F3",
"T+	c #C2D3F7",
"U+	c #BAC9EA",
"V+	c #B1BCD6",
"W+	c #ABB0C1",
"X+	c #898993",
"Y+	c #7B757A",
"Z+	c #AFA8A8",
"`+	c #E9E2E0",
" @	c #DC9B8D",
".@	c #A85D4D",
"+@	c #8D3926",
"@@	c #93331D",
"#@	c #9C311A",
"$@	c #A7341D",
"%@	c #AC341D",
"&@	c #B23823",
"*@	c #B53C25",
"=@	c #B74028",
"-@	c #BE4A2E",
";@	c #C35130",
">@	c #C6552F",
",@	c #BD613F",
"'@	c #946860",
")@	c #A9969C",
"!@	c #CBC3D3",
"~@	c #D2D8F2",
"{@	c #C5D5F9",
"]@	c #BED3FC",
"^@	c #C2DAFF",
"/@	c #C0D4F9",
"(@	c #C1CFED",
"_@	c #BDC5DA",
":@	c #A0A4B2",
"<@	c #A6A7B0",
"[@	c #D8D9DE",
"}@	c #ECECF0",
"|@	c #FEE4EC",
"1@	c #E4BBC0",
"2@	c #A67170",
"3@	c #834541",
"4@	c #873C31",
"5@	c #9B3F2F",
"6@	c #9D2E19",
"7@	c #B7351E",
"8@	c #B62C13",
"9@	c #C33A20",
"0@	c #C04025",
"a@	c #B34225",
"b@	c #AF4D2E",
"c@	c #974F3A",
"d@	c #AF9596",
"e@	c #C3BFCE",
"f@	c #D4D9F1",
"g@	c #CDDCFC",
"h@	c #C3DBFE",
"i@	c #C1DCFF",
"j@	c #BFDBFF",
"k@	c #C7DDFF",
"l@	c #CCDEFB",
"m@	c #C4D1E8",
"n@	c #9BA4B6",
"o@	c #A3ABB8",
"p@	c #E4EDF3",
"q@	c #F5FCFE",
"r@	c #FDF5FF",
"s@	c #E7DCEF",
"t@	c #B7ABC3",
"u@	c #A896A7",
"v@	c #86646C",
"w@	c #753837",
"x@	c #90362D",
"y@	c #A02515",
"z@	c #B32814",
"A@	c #BB2E1A",
"B@	c #B43522",
"C@	c #A23D2B",
"D@	c #9C5240",
"E@	c #A3746A",
"F@	c #DACDD6",
"G@	c #DADDF1",
"H@	c #D5DFF9",
"I@	c #C8DBFC",
"J@	c #C5DFFE",
"K@	c #C4E2FF",
"L@	c #BDDCFF",
"M@	c #C5DDFD",
"N@	c #BAD0EE",
"O@	c #BECEE8",
"P@	c #A6B5CA",
"Q@	c #ACBBCC",
"R@	c #E3F3F7",
"S@	c #F1FFFF",
"T@	c #F5F6FF",
"U@	c #E4EAF5",
"V@	c #B3BDDD",
"W@	c #BEC7E2",
"X@	c #C1BED2",
"Y@	c #A68D9A",
"Z@	c #945F67",
"`@	c #8E393D",
" #	c #9C3537",
".#	c #922828",
"+#	c #913333",
"@#	c #904748",
"##	c #A37171",
"$#	c #DFC5CA",
"%#	c #DBDCEB",
"&#	c #D7E2F0",
"*#	c #D6E2EB",
"=#	c #D1DEE7",
"-#	c #CDDDEA",
";#	c #C8DAEF",
">#	c #CFE2FA",
",#	c #CBE1FF",
"'#	c #CEE4FE",
")#	c #C2D7F2",
"!#	c #95A8BD",
"~#	c #A5B4C4",
"{#	c #E9F3F7",
"]#	c #F3FDFF",
"^#	c #F9FBFF",
"/#	c #E2E9F5",
"(#	c #B6C4DE",
"_#	c #C3D5EE",
":#	c #CBDBF2",
"<#	c #CACEE6",
"[#	c #BBAFC8",
"}#	c #957490",
"|#	c #875875",
"1#	c #723E5A",
"2#	c #73435E",
"3#	c #987189",
"4#	c #CAAFC3",
"5#	c #E6DBED",
"6#	c #D9E6F6",
"7#	c #D4E3E5",
"8#	c #D5DDCA",
"9#	c #CFD2B4",
"0#	c #C3C2A6",
"a#	c #A9A89E",
"b#	c #CED1DB",
"c#	c #D6E5FF",
"d#	c #CAE2FD",
"e#	c #BED8F1",
"f#	c #9CB1C4",
"g#	c #A9B5C1",
"h#	c #EDEEF5",
"i#	c #FCF7FD",
"j#	c #F7FDFF",
"k#	c #E1ECF5",
"l#	c #B7C9DF",
"m#	c #C2D9EF",
"n#	c #C8E1F7",
"o#	c #D2E4FB",
"p#	c #D5DCF8",
"q#	c #D6CCEB",
"r#	c #B19CC1",
"s#	c #8F759A",
"t#	c #977FA1",
"u#	c #C1AECB",
"v#	c #E0D5EF",
"w#	c #E6E3F8",
"x#	c #DDE5F0",
"y#	c #BAC2B6",
"z#	c #B8B692",
"A#	c #B2A877",
"B#	c #B0A170",
"C#	c #95886D",
"D#	c #C4BEBD",
"E#	c #DAE4FA",
"F#	c #CEE3FD",
"G#	c #C2DDF5",
"H#	c #9DB4C5",
"I#	c #ACB9C4",
"J#	c #F0F0F7",
"K#	c #FBF4FC",
"L#	c #F6FEFF",
"M#	c #DCEAF4",
"N#	c #B5CADC",
"O#	c #C5DFF2",
"P#	c #CCE6FB",
"Q#	c #D3E9FE",
"R#	c #D8E5FF",
"S#	c #DCDBF9",
"T#	c #D7CCEF",
"U#	c #CBBCE0",
"V#	c #C7BBDC",
"W#	c #D2CCE8",
"X#	c #DDDEF7",
"Y#	c #E2E6F6",
"Z#	c #DAD9D9",
"`#	c #A69E88",
" $	c #B2A374",
".$	c #B7A266",
"+$	c #BCA46B",
"@$	c #9C8866",
"#$	c #D4C8C0",
"$$	c #DDE3F3",
"%$	c #D1E2F9",
"&$	c #C5DDF2",
"*$	c #9BB2C1",
"=$	c #ACBBC6",
"-$	c #F1F5F9",
";$	c #FAF8FF",
">$	c #F2FEFF",
",$	c #DEEFF5",
"'$	c #BBD2E0",
")$	c #C8E3F3",
"!$	c #CAE6F8",
"~$	c #D2EBFD",
"{$	c #D8ECFF",
"]$	c #DCE4FD",
"^$	c #DDDFFD",
"/$	c #D6D6F7",
"($	c #CFD1F0",
"_$	c #D2D9F4",
":$	c #D9E6FC",
"<$	c #E3EDF9",
"[$	c #E2D5CC",
"}$	c #A8916F",
"|$	c #B99C64",
"1$	c #B79753",
"2$	c #B19252",
"3$	c #957B53",
"4$	c #DAC8BC",
"5$	c #E4E4EF",
"6$	c #DBE8FB",
"7$	c #CDE3F2",
"8$	c #9EB4C0",
"9$	c #A7B9C3",
"0$	c #EBF4F8",
"a$	c #F8FAFF",
"b$	c #F4FFFF",
"c$	c #DEEDF1",
"d$	c #AEC2CE",
"e$	c #BDD6E3",
"f$	c #CEE8F7",
"g$	c #DAF3FF",
"h$	c #D6EBFF",
"i$	c #DDEDFF",
"j$	c #DAE7FF",
"k$	c #D1DCFA",
"l$	c #C9D7F3",
"m$	c #CCDFF8",
"n$	c #D4ECFE",
"o$	c #E1F0FB",
"p$	c #F1E4D7",
"q$	c #9D7F58",
"r$	c #967538",
"s$	c #9D7934",
"t$	c #A48141",
"u$	c #997B52",
"v$	c #D5C2B4",
"w$	c #DFDCE3",
"x$	c #CBD4E1",
"y$	c #B3C5CF",
"z$	c #91A5AD",
"A$	c #A6B8BF",
"B$	c #EAF4F6",
"C$	c #F4FCFD",
"D$	c #E8F1F4",
"E$	c #B9C7D0",
"F$	c #B3C4D0",
"G$	c #BBCEDD",
"H$	c #CFE3F5",
"I$	c #D0E5F9",
"J$	c #D4E5FD",
"K$	c #D6E7FF",
"L$	c #D1E3FC",
"M$	c #C7DEF8",
"N$	c #C7E0F8",
"O$	c #CEEBFE",
"P$	c #DDF0FB",
"Q$	c #E7D9CF",
"R$	c #9B7F5D",
"S$	c #8C7039",
"T$	c #896C2C",
"U$	c #816429",
"V$	c #876E4A",
"W$	c #C8B8A9",
"X$	c #BAB6BC",
"Y$	c #989EA7",
"Z$	c #8B999F",
"`$	c #A2B3B4",
" %	c #D5E4E5",
".%	c #F5FDFE",
"+%	c #F0F4FD",
"@%	c #EBF1F4",
"#%	c #F7FCFE",
"$%	c #E9F0F5",
"%%	c #C8CFD9",
"&%	c #ABB4C3",
"*%	c #B7C2D4",
"=%	c #CCDAEB",
"-%	c #DCEBFD",
";%	c #D3E4FB",
">%	c #C8DCF4",
",%	c #C5DDF5",
"'%	c #CDE7FC",
")%	c #D5F0FF",
"!%	c #DDF0FD",
"~%	c #EDE4E2",
"{%	c #93826A",
"]%	c #726136",
"^%	c #796733",
"/%	c #766434",
"(%	c #76664A",
"_%	c #998D85",
":%	c #A6A2A9",
"<%	c #BBBFC6",
"[%	c #D6E0E0",
"}%	c #E6F3EF",
"|%	c #F3FDF9",
"1%	c #FAFFFE",
"2%	c #FDFFFF",
"3%	c #F9F9FB",
"4%	c #FDFCFF",
"5%	c #FDFBFE",
"6%	c #F6F4FA",
"7%	c #DEDEE9",
"8%	c #C5C6D7",
"9%	c #B5BACD",
"0%	c #C1CCE0",
"a%	c #C4D4E9",
"b%	c #C9DCF2",
"c%	c #CBDFF6",
"d%	c #CDE2F9",
"e%	c #D1E6FC",
"f%	c #DBEAFC",
"g%	c #CACAD3",
"h%	c #89857C",
"i%	c #686548",
"j%	c #7C7852",
"k%	c #97926E",
"l%	c #B2AC9A",
"m%	c #D2CCCB",
"n%	c #EBE9F3",
"o%	c #F1F3F9",
"p%	c #F7FCFA",
"q%	c #FAFFF8",
"r%	c #FCFFF8",
"s%	c #FEFFFD",
"t%	c #FFFEFF",
"u%	c #FFFEFD",
"v%	c #FEFAFE",
"w%	c #FFFAFF",
"x%	c #F4F0F9",
"y%	c #DAD9EA",
"z%	c #ADB5C6",
"A%	c #B0BDCE",
"B%	c #BCCCDE",
"C%	c #CBDBEE",
"D%	c #CCDCEF",
"E%	c #BCC8DD",
"F%	c #A9B2C6",
"G%	c #9499AA",
"H%	c #92979A",
"I%	c #A1A998",
"J%	c #C2CAB0",
"K%	c #E2E6D0",
"L%	c #F3F4ED",
"M%	c #FAFAFD",
"N%	c #FBFAFF",
"O%	c #FDFDFF",
"P%	c #FEFFFB",
"Q%	c #FEFFF4",
"R%	c #FEFFF3",
"S%	c #FFFFF9",
"T%	c #FFFEFE",
"U%	c #F6F6F2",
"V%	c #FFFEFC",
"W%	c #FFF7FE",
"X%	c #FFF4FD",
"Y%	c #FFF8FE",
"Z%	c #F9F6FD",
"`%	c #E4E9EF",
" &	c #CAD5E3",
".&	c #AAB8C6",
"+&	c #96A4B2",
"@&	c #939DAD",
"#&	c #9CA1B2",
"$&	c #A4A7BA",
"%&	c #B9BED5",
"&&	c #D4DCE7",
"*&	c #E8F1EB",
"=&	c #EEF9EB",
"-&	c #F3FEEF",
";&	c #F8FFFC",
">&	c #F8FCFF",
",&	c #FDFDFE",
"'&	c #FEFDF0",
")&	c #FFFDEF",
"!&	c #FAFDF8",
"~&	c #FCFEF9",
"{&	c #FFFAFE",
"]&	c #FFF7FF",
"^&	c #FFFCFF",
"/&	c #FAFFFF",
"(&	c #F2FBFC",
"_&	c #E2EEF3",
":&	c #C7D3DC",
"<&	c #BDC2CD",
"[&	c #D1CFDD",
"}&	c #EDEAF5",
"|&	c #F7F6FC",
"1&	c #F9FCFF",
"2&	c #FAFFFC",
"3&	c #F8FFF6",
"4&	c #F7FFF7",
"5&	c #F8FFFE",
"6&	c #FEFCFF",
"7&	c #FFFFF2",
"8&	c #FFFFFA",
". + @ # $ % & * = - ; > , ' ) ! ~ { ] ~ ^ / ( _ : < [ } ",
"| 1 2 3 4 5 6 7 8 9 0 a b c d e f g h i j k l m n o p q ",
"r s t u v w x y z A B C D E F G H I J K L M N m O P Q R ",
"S T U V W X Y Z `  ...+.@.#.$.%.&.*.=.-.;.>.,.'.).!.~.{.",
"].^./.(._.:.<.[.}.|.1.2.3.4.5.6.7.8.9.0.a.b.c.c.d.e.f.g.",
"h.i.j.k.l.m.n.o.p.q.r.s.t.u.v.w.x.y.z.A.B.C.D.E.F.s G.H.",
"I.J.K.L.M.N.O.P.Q.R.S.T.U.V.W.X.Y.Z.`. +.+++@+#+$+%+M &+",
"*+=+-+;+>+,+'+)+!+~+{+]+^+/+(+_+:+<+[+}+|+1+2+3+4+5+6+7+",
"8+9+0+a+b+c+d+e+f+g+h+i+j+k+l+m+n+o+p+q+r+s+t+u+v+w+x+y+",
"z+A+B+C+D+E+F+G+H+I+J+K+L+M+N+O+P+Q+R+S+T+U+V+W+X+Y+Z+`+",
" @.@+@@@#@$@%@&@*@=@-@;@>@,@'@)@!@~@{@]@^@/@(@_@:@<@[@}@",
"|@1@2@3@4@5@6@7@8@9@0@a@b@c@d@e@f@g@h@i@j@k@l@m@n@o@p@q@",
"r@s@t@u@v@w@x@y@z@A@B@C@D@E@F@G@H@I@J@K@L@M@N@O@P@Q@R@S@",
"T@U@V@W@X@Y@Z@`@ #.#+#@###$#%#&#*#=#-#;#>#,#'#)#!#~#{#]#",
"^#/#(#_#:#<#[#}#|#1#2#3#4#5#6#7#8#9#0#a#b#c#d#e#f#g#h#i#",
"j#k#l#m#n#o#p#q#r#s#t#u#v#w#x#y#z#A#B#C#D#E#F#G#H#I#J#K#",
"L#M#N#O#P#Q#R#S#T#U#V#W#X#Y#Z#`# $.$+$@$#$$$%$&$*$=$-$;$",
">$,$'$)$!$~${$]$^$/$($_$:$<$[$}$|$1$2$3$4$5$6$7$8$9$0$a$",
"b$c$d$e$f$g$h$i$j$k$l$m$n$o$p$q$r$s$t$u$v$w$x$y$z$A$B$~ ",
"C$D$E$F$G$H$I$J$K$L$M$N$O$P$Q$R$S$T$U$V$W$X$Y$Z$`$ %.%+%",
"@%#%$%%%&%*%=%-%;%>%,%'%)%!%~%{%]%^%/%(%_%:%<%[%}%|%1%2%",
"3%4%5%6%7%8%9%0%a%b%c%d%e%f%g%h%i%j%k%l%m%n%o%p%q%r%s%t%",
"u%/ v%w%| x%y%z%A%B%C%D%E%F%G%H%I%J%K%L%M%N%O%P%Q%R%S%T%",
"U%V%E.W%X%Y%Z%`% &.&+&@&#&$&%&&&*&=&-&;&>&4%,&O '&)&( T%",
"!&~&%+{&]&]&^&/&(&_&:&<&[&}&|&1&2&3&4&5&1&6&E.( 7&7&8&t%"};
