/* XPM */
static char * hotel_xpm[] = {
"30 29 798 2",
"  	c None",
". 	c #FDFEF5",
"+ 	c #FEFDFA",
"@ 	c #FEFDFC",
"# 	c #FDFEEE",
"$ 	c #FAFBF4",
"% 	c #F9FDFE",
"& 	c #FBF8FD",
"* 	c #FEFBFE",
"= 	c #F9F8F1",
"- 	c #F2F1DA",
"; 	c #F3EFD5",
"> 	c #EBE9D3",
", 	c #E9E6C7",
"' 	c #E7E4C3",
") 	c #EDE9BF",
"! 	c #E7E4C2",
"~ 	c #EAE1CD",
"{ 	c #F0E9D8",
"] 	c #F4ECE0",
"^ 	c #FAFAED",
"/ 	c #FEF9FE",
"( 	c #FCFAFD",
"_ 	c #F6FCFD",
": 	c #F3FAFC",
"< 	c #FBFDF2",
"[ 	c #FBFCEF",
"} 	c #FDFDF9",
"| 	c #FEFDFE",
"1 	c #F8FDFB",
"2 	c #FDFDFE",
"3 	c #FBFCF7",
"4 	c #EDE9DD",
"5 	c #EAE5CD",
"6 	c #F4F2D1",
"7 	c #F7F4D4",
"8 	c #F8F8D4",
"9 	c #F3F0C5",
"0 	c #ECE6BC",
"a 	c #F6F2C4",
"b 	c #F4EEC2",
"c 	c #F0ECC0",
"d 	c #F5F0C9",
"e 	c #F4EFCF",
"f 	c #EFE7CE",
"g 	c #E5E0C4",
"h 	c #F4F2E0",
"i 	c #FDFBF9",
"j 	c #F9F6FD",
"k 	c #F7F8FD",
"l 	c #F5FCFD",
"m 	c #F9FDFC",
"n 	c #F8F9F7",
"o 	c #FDFDFB",
"p 	c #F6F3E7",
"q 	c #EFE8C2",
"r 	c #F5F1C8",
"s 	c #F8F3C7",
"t 	c #E1D7B6",
"u 	c #D8CFA9",
"v 	c #B7AD8A",
"w 	c #A69F77",
"x 	c #9B8E6E",
"y 	c #958264",
"z 	c #9E9570",
"A 	c #A49D6D",
"B 	c #B5AA7F",
"C 	c #C8BB96",
"D 	c #E1D7AE",
"E 	c #F6F1C9",
"F 	c #ECE7C4",
"G 	c #E5E0C8",
"H 	c #F9F8F4",
"I 	c #FEFDFD",
"J 	c #FCFCFD",
"K 	c #FAFDFE",
"L 	c #FDFBFD",
"M 	c #F4F1F3",
"N 	c #EFEAD1",
"O 	c #F7F2C1",
"P 	c #E1DB99",
"Q 	c #CABD84",
"R 	c #B9AA8E",
"S 	c #92886F",
"T 	c #645345",
"U 	c #594C3A",
"V 	c #6B5B52",
"W 	c #7D675B",
"X 	c #8A796B",
"Y 	c #7C6D5A",
"Z 	c #83735F",
"` 	c #9B8C71",
" .	c #AA997D",
"..	c #BDB189",
"+.	c #EDE6B9",
"@.	c #F3EEC4",
"#.	c #E3DFC5",
"$.	c #F2EBE1",
"%.	c #FCFCFC",
"&.	c #FEFDFB",
"*.	c #F4EFE6",
"=.	c #F2ECD1",
"-.	c #E9E5B2",
";.	c #CAC185",
">.	c #A69968",
",.	c #7A6854",
"'.	c #423133",
").	c #413848",
"!.	c #7C768D",
"~.	c #9B93A8",
"{.	c #B3AAC7",
"].	c #BAADCC",
"^.	c #C2BDD5",
"/.	c #CABED6",
"(.	c #C6B5BF",
"_.	c #AC9EA4",
":.	c #93837B",
"<.	c #90826F",
"[.	c #B0A389",
"}.	c #D3CAA0",
"|.	c #F1ECBD",
"1.	c #ECE7C0",
"2.	c #ECEEDA",
"3.	c #F7FDFE",
"4.	c #FBFDFE",
"5.	c #FCFBEC",
"6.	c #F1EBC3",
"7.	c #F2EFB7",
"8.	c #B3AC69",
"9.	c #A9A06E",
"0.	c #513F35",
"a.	c #3C2E35",
"b.	c #514860",
"c.	c #626189",
"d.	c #6E6F9A",
"e.	c #7E80AD",
"f.	c #8B8AB8",
"g.	c #9690C3",
"h.	c #A59ECF",
"i.	c #AFAAD0",
"j.	c #B6B1D0",
"k.	c #BDB9D1",
"l.	c #C6C2CD",
"m.	c #C6BAC4",
"n.	c #72645A",
"o.	c #938966",
"p.	c #CAC08D",
"q.	c #ECE6AF",
"r.	c #EDE6C0",
"s.	c #F7F5E1",
"t.	c #FEFDF9",
"u.	c #F8FBFC",
"v.	c #F8F7EA",
"w.	c #F3EDC3",
"x.	c #F0EDA9",
"y.	c #BAB467",
"z.	c #96905C",
"A.	c #3A3128",
"B.	c #251D39",
"C.	c #352F56",
"D.	c #393A6A",
"E.	c #3E3D72",
"F.	c #4B5080",
"G.	c #50598B",
"H.	c #686D9E",
"I.	c #70729F",
"J.	c #7F7FAF",
"K.	c #9392BE",
"L.	c #C4C5E1",
"M.	c #C4C7E4",
"N.	c #BBBCD4",
"O.	c #C4BAD6",
"P.	c #B4ADBD",
"Q.	c #71615C",
"R.	c #8C8355",
"S.	c #BBB471",
"T.	c #F1ECB4",
"U.	c #EEE6BB",
"V.	c #FDF7EB",
"W.	c #FDFDF8",
"X.	c #F8F4D5",
"Y.	c #F8F4BB",
"Z.	c #C6C173",
"`.	c #A8A059",
" +	c #3C3023",
".+	c #1D1225",
"++	c #181452",
"@+	c #191856",
"#+	c #25295D",
"$+	c #1F2450",
"%+	c #2A2D61",
"&+	c #333569",
"*+	c #797EA9",
"=+	c #C0CBE0",
"-+	c #78789E",
";+	c #7E7FA5",
">+	c #EDF4FC",
",+	c #E7EDF5",
"'+	c #999CBD",
")+	c #ACACD1",
"!+	c #B7AFD2",
"~+	c #AFA5AC",
"{+	c #574D37",
"]+	c #898251",
"^+	c #C2BA80",
"/+	c #EAE0B5",
"(+	c #F6F1D5",
"_+	c #FDFDF2",
":+	c #FBF9E8",
"<+	c #EEE9B4",
"[+	c #E9E4A5",
"}+	c #A49A5E",
"|+	c #6A5B3E",
"1+	c #110719",
"2+	c #120F42",
"3+	c #040A4D",
"4+	c #091756",
"5+	c #070E47",
"6+	c #161946",
"7+	c #1A234C",
"8+	c #7D81A6",
"9+	c #BAC2DF",
"0+	c #878EA8",
"a+	c #C4C7DD",
"b+	c #9596B1",
"c+	c #A9AFC8",
"d+	c #D8DFF8",
"e+	c #898EAD",
"f+	c #8B8BB8",
"g+	c #9C9EC7",
"h+	c #A9A8CA",
"i+	c #807981",
"j+	c #665245",
"k+	c #9F8D6A",
"l+	c #D9CEA0",
"m+	c #EAE1BC",
"n+	c #FAF9E3",
"o+	c #FEFAFE",
"p+	c #F1EDD1",
"q+	c #E8E2A9",
"r+	c #C6BE77",
"s+	c #8B8055",
"t+	c #2D222C",
"u+	c #140939",
"v+	c #0F094C",
"w+	c #050D51",
"x+	c #06154B",
"y+	c #051149",
"z+	c #20245C",
"A+	c #8E91B9",
"B+	c #ABAED5",
"C+	c #444467",
"D+	c #373759",
"E+	c #535474",
"F+	c #AEADC5",
"G+	c #A6A4C4",
"H+	c #8F8CB2",
"I+	c #706B94",
"J+	c #6A709E",
"K+	c #868AB4",
"L+	c #8D8FB9",
"M+	c #A9A2BF",
"N+	c #4C3D45",
"O+	c #94877C",
"P+	c #A9997A",
"Q+	c #EDE4B8",
"R+	c #F3EFD3",
"S+	c #FDFCF4",
"T+	c #DDD4AC",
"U+	c #DCD686",
"V+	c #B0AA51",
"W+	c #5D4E53",
"X+	c #130C3B",
"Y+	c #0D0D56",
"Z+	c #0B155A",
"`+	c #040F47",
" @	c #051448",
".@	c #2F3C73",
"+@	c #9CA8D3",
"@@	c #8F94BB",
"#@	c #2F3262",
"$@	c #7B799A",
"%@	c #C8CAEB",
"&@	c #6F769C",
"*@	c #2C2F5D",
"=@	c #9A9DBC",
"-@	c #B6B6CF",
";@	c #524E76",
">@	c #5B5C83",
",@	c #6B6B9A",
"'@	c #8483B4",
")@	c #8A82B3",
"!@	c #6C6284",
"~@	c #695B56",
"{@	c #917C5D",
"]@	c #D7CEA4",
"^@	c #DED3B4",
"/@	c #F7F5E0",
"(@	c #D2C79D",
"_@	c #C2BB73",
":@	c #A69F4E",
"<@	c #372949",
"[@	c #0B0B51",
"}@	c #091357",
"|@	c #091753",
"1@	c #09164B",
"2@	c #2D4683",
"3@	c #A8B8E0",
"4@	c #5F73A4",
"5@	c #3C406D",
"6@	c #9799BD",
"7@	c #D4D5F7",
"8@	c #D5D7F7",
"9@	c #C6D4F5",
"0@	c #95A3C8",
"a@	c #2E365F",
"b@	c #727498",
"c@	c #BDB0CB",
"d@	c #5F5D8C",
"e@	c #4A4B7A",
"f@	c #56557E",
"g@	c #7370A0",
"h@	c #706E96",
"i@	c #50414A",
"j@	c #92825F",
"k@	c #A5906B",
"l@	c #B3A281",
"m@	c #F1E9D6",
"n@	c #C8BB90",
"o@	c #AAA254",
"p@	c #9A9246",
"q@	c #201840",
"r@	c #141464",
"s@	c #061359",
"t@	c #0A1C61",
"u@	c #576CA3",
"v@	c #A7C2EB",
"w@	c #455A95",
"x@	c #314880",
"y@	c #B7C4DF",
"z@	c #D3D9F8",
"A@	c #D2D4F4",
"B@	c #D2D6F7",
"C@	c #CBD9F8",
"D@	c #CBDAF5",
"E@	c #AAB1D3",
"F@	c #494A6D",
"G@	c #615A7E",
"H@	c #B5B8DC",
"I@	c #5C5F91",
"J@	c #3D3E69",
"K@	c #5A5A89",
"L@	c #62628D",
"M@	c #423640",
"N@	c #938067",
"O@	c #806F41",
"P@	c #8E7860",
"Q@	c #E8DBCF",
"R@	c #C5B684",
"S@	c #A19651",
"T@	c #8F8950",
"U@	c #0F154B",
"V@	c #0A1971",
"W@	c #0F3084",
"X@	c #486BBC",
"Y@	c #9BB6EB",
"Z@	c #49609D",
"`@	c #6174A0",
" #	c #B0D5EE",
".#	c #C8E0FA",
"+#	c #CFDAF7",
"@#	c #DADEF9",
"##	c #D0D7F4",
"$#	c #CFDBF7",
"%#	c #CEDBF6",
"&#	c #C8D6F1",
"*#	c #CCD1EB",
"=#	c #62638D",
"-#	c #40426C",
";#	c #9EA2D0",
">#	c #6C6F9D",
",#	c #35356A",
"'#	c #515181",
")#	c #3A2C33",
"!#	c #84755C",
"~#	c #795E38",
"{#	c #86694E",
"]#	c #E2D3CE",
"^#	c #BBAD7D",
"/#	c #A39A52",
"(#	c #878058",
"_#	c #151E60",
":#	c #031F7C",
"<#	c #0D328E",
"[#	c #4170C6",
"}#	c #2343A4",
"|#	c #4861A8",
"1#	c #CEEBFC",
"2#	c #C4E9FD",
"3#	c #C8EBFC",
"4#	c #CEDFF9",
"5#	c #D0DEFB",
"6#	c #D5DFF7",
"7#	c #CFDAF5",
"8#	c #CDD9F3",
"9#	c #C9DCEE",
"0#	c #CBD8F2",
"a#	c #C7D1F0",
"b#	c #3F4273",
"c#	c #2D3063",
"d#	c #4C5281",
"e#	c #1F1955",
"f#	c #373463",
"g#	c #2D1E2B",
"h#	c #826D57",
"i#	c #806442",
"j#	c #836647",
"k#	c #E3D4CE",
"l#	c #BEAF81",
"m#	c #9D8F51",
"n#	c #7F7855",
"o#	c #1D2A6D",
"p#	c #042685",
"q#	c #06399A",
"r#	c #0741A7",
"s#	c #063BAF",
"t#	c #5E83C8",
"u#	c #D0F4FD",
"v#	c #C2E7FE",
"w#	c #C3E8FC",
"x#	c #C8E3FC",
"y#	c #CFE3FF",
"z#	c #D1E3FC",
"A#	c #CEDFF5",
"B#	c #CFDFF5",
"C#	c #CFDEF9",
"D#	c #CBDBF3",
"E#	c #C3D0F2",
"F#	c #3E4C7E",
"G#	c #060939",
"H#	c #0D0938",
"I#	c #160F4C",
"J#	c #221A4C",
"K#	c #301F2B",
"L#	c #886F56",
"M#	c #7D6140",
"N#	c #765B44",
"O#	c #E9D9D7",
"P#	c #C2B287",
"Q#	c #A6985A",
"R#	c #95856C",
"S#	c #263470",
"T#	c #09318F",
"U#	c #0646AF",
"V#	c #054BB9",
"W#	c #0B46C9",
"X#	c #5C85D2",
"Y#	c #CDEFFC",
"Z#	c #CCEDFA",
"`#	c #C9ECFE",
" $	c #C5E3FF",
".$	c #C8E9FE",
"+$	c #D1DFFC",
"@$	c #CCDAF7",
"#$	c #CFDFFB",
"$$	c #C9DBEF",
"%$	c #C3CFF1",
"&$	c #3F4C82",
"*$	c #060C41",
"=$	c #060B3C",
"-$	c #080E3C",
";$	c #110A42",
">$	c #352422",
",$	c #8F7357",
"'$	c #755A3A",
")$	c #826648",
"!$	c #EAD9DD",
"~$	c #BEAE8B",
"{$	c #B5A56F",
"]$	c #B6A589",
"^$	c #57608F",
"/$	c #113B94",
"($	c #0346B6",
"_$	c #054DC7",
":$	c #0E50D9",
"<$	c #5F8ADF",
"[$	c #CEF6FE",
"}$	c #CFEDF3",
"|$	c #C0E4FD",
"1$	c #5882B4",
"2$	c #446BAA",
"3$	c #6C86BB",
"4$	c #BED8F4",
"5$	c #CFDEF8",
"6$	c #CDDCF7",
"7$	c #C9D8F4",
"8$	c #414E84",
"9$	c #050C4B",
"0$	c #051040",
"a$	c #040535",
"b$	c #0F0A30",
"c$	c #55473D",
"d$	c #9D8467",
"e$	c #735A3A",
"f$	c #917C68",
"g$	c #EDE4E1",
"h$	c #C0B290",
"i$	c #B29F6F",
"j$	c #B5A57E",
"k$	c #9998B1",
"l$	c #143D94",
"m$	c #0752C2",
"n$	c #0858CE",
"o$	c #0556DE",
"p$	c #5892E5",
"q$	c #D5F7FA",
"r$	c #CFECEF",
"s$	c #CEF1FE",
"t$	c #C5EEFF",
"u$	c #184E9F",
"v$	c #144390",
"w$	c #355FA7",
"x$	c #B2D7F8",
"y$	c #D2E3FB",
"z$	c #D0DBF7",
"A$	c #C5CCEC",
"B$	c #3B467E",
"C$	c #07114F",
"D$	c #050A37",
"E$	c #060730",
"F$	c #070221",
"G$	c #8F857D",
"H$	c #A49267",
"I$	c #5B4724",
"J$	c #BAA79A",
"K$	c #F7F2F1",
"L$	c #D7CBAA",
"M$	c #A08A5F",
"N$	c #A78F68",
"O$	c #C8C5C9",
"P$	c #3A5DAB",
"Q$	c #074ACB",
"R$	c #0762D8",
"S$	c #0E67E4",
"T$	c #5898E6",
"U$	c #D6F8FC",
"V$	c #F2F9F2",
"W$	c #D5F8FD",
"X$	c #C9F8FF",
"Y$	c #1A5ABA",
"Z$	c #0B4DB0",
"`$	c #3462B8",
" %	c #B3D5FA",
".%	c #D0DEFC",
"+%	c #D2DDFB",
"@%	c #CAD1F1",
"#%	c #424D86",
"$%	c #050E53",
"%%	c #070F3D",
"&%	c #040526",
"*%	c #2E2836",
"=%	c #CDBCAD",
"-%	c #776736",
";%	c #64552C",
">%	c #DBD0C2",
",%	c #F8FCF8",
"'%	c #F4ECDF",
")%	c #A48C63",
"!%	c #96805C",
"~%	c #B9B6A0",
"{%	c #8BA6D3",
"]%	c #0E4CBD",
"^%	c #0655CE",
"/%	c #1372EC",
"(%	c #4FA6EF",
"_%	c #D1F9FE",
":%	c #E2FAFD",
"<%	c #D8F7FD",
"[%	c #BFFAFF",
"}%	c #2869CA",
"|%	c #0E56BF",
"1%	c #3565C3",
"2%	c #B9DDFD",
"3%	c #CEE2FE",
"4%	c #DCE5FE",
"5%	c #CECFEF",
"6%	c #3E4683",
"7%	c #061559",
"8%	c #070D35",
"9%	c #0F0F2C",
"0%	c #908D90",
"a%	c #AD9D83",
"b%	c #635125",
"c%	c #968A56",
"d%	c #F3EAE3",
"e%	c #F8FAF7",
"f%	c #C4B3A3",
"g%	c #8B7851",
"h%	c #988950",
"i%	c #DDD9C2",
"j%	c #5A74B1",
"k%	c #165AC0",
"l%	c #0965E7",
"m%	c #3AABF8",
"n%	c #67D7F8",
"o%	c #7EE6F8",
"p%	c #84E6F8",
"q%	c #6DD4FA",
"r%	c #1B74D4",
"s%	c #0E57C4",
"t%	c #285DBB",
"u%	c #6F98E2",
"v%	c #6F91D0",
"w%	c #6F8AC1",
"x%	c #676CA0",
"y%	c #212966",
"z%	c #0C1451",
"A%	c #070A2B",
"B%	c #695D59",
"C%	c #CCCBB1",
"D%	c #6D5B3D",
"E%	c #6C5943",
"F%	c #D4C7BA",
"G%	c #FEFAF8",
"H%	c #F8FAFB",
"I%	c #FEFCFD",
"J%	c #EAE0DB",
"K%	c #AC9578",
"L%	c #88783D",
"M%	c #AFA46B",
"N%	c #B9D0D4",
"O%	c #5A86BA",
"P%	c #115CBF",
"Q%	c #1483EF",
"R%	c #168CEB",
"S%	c #1996EE",
"T%	c #1A94F0",
"U%	c #1A86EF",
"V%	c #0A60D9",
"W%	c #0551C4",
"X%	c #0549BE",
"Y%	c #0339AD",
"Z%	c #043094",
"`%	c #08247C",
" &	c #051968",
".&	c #051453",
"+&	c #14143A",
"@&	c #49403E",
"#&	c #D0CBB0",
"$&	c #8A835B",
"%&	c #615233",
"&&	c #9E8A7D",
"*&	c #F8F3F4",
"=&	c #F5FDFE",
"-&	c #FEFAF9",
";&	c #E0D2CA",
">&	c #8D786A",
",&	c #817146",
"'&	c #B8BB89",
")&	c #D2E3C3",
"!&	c #648BB0",
"~&	c #2C63AF",
"{&	c #137AE9",
"]&	c #137FF0",
"^&	c #1280F3",
"/&	c #0A68E3",
"(&	c #0660E3",
"_&	c #0457DC",
":&	c #0344C5",
"<&	c #063CB0",
"[&	c #052E96",
"}&	c #032687",
"|&	c #071C65",
"1&	c #101946",
"2&	c #726C71",
"3&	c #C6C3A9",
"4&	c #7F774A",
"5&	c #5E532A",
"6&	c #9B926D",
"7&	c #E8DDD1",
"8&	c #FDFEF4",
"9&	c #F8F8EE",
"0&	c #C7B6B8",
"a&	c #8B7F6D",
"b&	c #8A824F",
"c&	c #BBB573",
"d&	c #DCDFC2",
"e&	c #AABED8",
"f&	c #3D66B8",
"g&	c #1360CA",
"h&	c #0E61D1",
"i&	c #105DD4",
"j&	c #054FC7",
"k&	c #0347BE",
"l&	c #043DAE",
"m&	c #0B3B9A",
"n&	c #052878",
"o&	c #061857",
"p&	c #334270",
"q&	c #818296",
"r&	c #E2DCC4",
"s&	c #8B8259",
"t&	c #625B2A",
"u&	c #80794E",
"v&	c #DED9C1",
"w&	c #FCFAF2",
"x&	c #FEFCFE",
"y&	c #F8FDFE",
"z&	c #FBFEF6",
"A&	c #FDFDEA",
"B&	c #FDFEF1",
"C&	c #F7EDF9",
"D&	c #D3CEE2",
"E&	c #95877C",
"F&	c #7E714A",
"G&	c #969057",
"H&	c #C5BB9F",
"I&	c #D1D8D7",
"J&	c #A4BDC5",
"K&	c #6F85A4",
"L&	c #5072A1",
"M&	c #3B579F",
"N&	c #3C54A0",
"O&	c #40549C",
"P&	c #475687",
"Q&	c #767685",
"R&	c #B4AEA1",
"S&	c #D9D5B0",
"T&	c #C6BC98",
"U&	c #6B5C43",
"V&	c #615337",
"W&	c #938766",
"X&	c #D0CDAD",
"Y&	c #F9F7E8",
"Z&	c #FDFAFB",
"`&	c #FDF8FE",
" *	c #E9E9FA",
".*	c #D0C6D9",
"+*	c #B1A399",
"@*	c #897E51",
"#*	c #827945",
"$*	c #9B926A",
"%*	c #B9B098",
"&*	c #CFCFC2",
"**	c #DBDBCA",
"=*	c #D6D2C8",
"-*	c #D2D1C4",
";*	c #CEC9BA",
">*	c #DBD3BA",
",*	c #CEC4A9",
"'*	c #BAA986",
")*	c #98835B",
"!*	c #70573C",
"~*	c #88725B",
"{*	c #A4957E",
"]*	c #DCD2C2",
"^*	c #F8F8E7",
"/*	c #FDFEF3",
"(*	c #FDF8FD",
"_*	c #E7E8F7",
":*	c #E1D6E3",
"<*	c #CDC8B1",
"[*	c #B0A981",
"}*	c #8F7C4E",
"|*	c #877045",
"1*	c #80703D",
"2*	c #7C6C41",
"3*	c #817345",
"4*	c #7F6F42",
"5*	c #776637",
"6*	c #7A6141",
"7*	c #836746",
"8*	c #795C45",
"9*	c #91775A",
"0*	c #9B8A8F",
"a*	c #C8B6BD",
"b*	c #E7D7D6",
"c*	c #FBF4F3",
"d*	c #FBFDEF",
"e*	c #FDFCF0",
"f*	c #F5F9F6",
"g*	c #EAEDF7",
"h*	c #E1E0E6",
"i*	c #DCE3D0",
"j*	c #D6CDAB",
"k*	c #BEAD8A",
"l*	c #9F8E5D",
"m*	c #84724B",
"n*	c #7C644B",
"o*	c #6A5442",
"p*	c #6B5342",
"q*	c #7C6456",
"r*	c #A08976",
"s*	c #BDA895",
"t*	c #D2C5AF",
"u*	c #E1D2C9",
"v*	c #F7E9F2",
"w*	c #FDF7FD",
". + @ . # $ % & * = - ; > , ' ) ! ! ~ { ] ^ * / ( _ : < [ } ",
"@ @ | @ 1 1 2 3 4 5 6 7 8 9 0 a b c d e f g h i j k l m n o ",
"| | @ | | | p q r s t u v w x y z A B C D E F G H I J | K | ",
"| | @ | L M N O P Q R S T U V W X Y Z `  ...+.@.#.$.%.| | | ",
"% 2 | &.*.=.-.;.>.,.'.).!.~.{.].^./.(._.:.<.[.}.|.1.2.I | | ",
"3.4.o 5.6.7.8.9.0.a.b.c.d.e.f.g.h.i.j.k.l.m.n.o.p.q.r.s.t.| ",
"u.4.v.w.x.y.z.A.B.C.D.E.F.G.H.I.J.K.L.M.N.O.P.Q.R.S.T.U.V.I ",
"2 W.X.Y.Z.`. +.+++@+#+$+%+&+*+=+-+;+>+,+'+)+!+~+{+]+^+/+(+_+",
"@ :+<+[+}+|+1+2+3+4+5+6+7+8+9+0+a+b+c+d+e+f+g+h+i+j+k+l+m+n+",
"o+p+q+r+s+t+u+v+w+x+y+z+A+B+C+D+E+F+G+H+I+J+K+L+M+N+O+P+Q+R+",
"S+T+U+V+W+X+Y+Z+`+ @.@+@@@#@$@%@&@*@=@-@;@>@,@'@)@!@~@{@]@^@",
"/@(@_@:@<@[@}@|@1@2@3@4@5@6@7@8@9@0@a@b@c@d@e@f@g@h@i@j@k@l@",
"m@n@o@p@q@r@s@t@u@v@w@x@y@z@A@B@C@D@E@F@G@H@I@J@K@L@M@N@O@P@",
"Q@R@S@T@U@V@W@X@Y@Z@`@ #.#+#@###$#%#&#*#=#-#;#>#,#'#)#!#~#{#",
"]#^#/#(#_#:#<#[#}#|#1#2#3#4#5#6#7#8#9#0#a#b#c#d#e#f#g#h#i#j#",
"k#l#m#n#o#p#q#r#s#t#u#v#w#x#y#z#A#B#C#D#E#F#G#H#I#J#K#L#M#N#",
"O#P#Q#R#S#T#U#V#W#X#Y#Z#`#`# $.$+$@$#$$$%$&$*$=$-$;$>$,$'$)$",
"!$~${$]$^$/$($_$:$<$[$}$`#|$1$2$3$4$5$6$7$8$9$0$a$b$c$d$e$f$",
"g$h$i$j$k$l$m$n$o$p$q$r$s$t$u$v$w$x$y$z$A$B$C$D$E$F$G$H$I$J$",
"K$L$M$N$O$P$Q$R$S$T$U$V$W$X$Y$Z$`$ %.%+%@%#%$%%%&%*%=%-%;%>%",
",%'%)%!%~%{%]%^%/%(%_%:%<%[%}%|%1%2%3%4%5%6%7%8%9%0%a%b%c%d%",
"e%+ f%g%h%i%j%k%l%m%n%o%p%q%r%s%t%u%v%w%x%y%z%A%B%C%D%E%F%G%",
"H%I%J%K%L%M%N%O%P%Q%R%S%T%U%V%W%X%Y%Z%`% &.&+&@&#&$&%&&&*&| ",
"=&K -&;&>&,&'&)&!&~&{&]&^&/&(&_&:&<&[&}&|&1&2&3&4&5&6&7&/ * ",
"=&=&8&9&0&a&b&c&d&e&f&g&h&i&j&k&l&m&n&o&p&q&r&s&t&u&v&w&o+x&",
"y&z&A&B&C&D&E&F&G&H&I&J&K&L&M&N&O&P&Q&R&S&T&U&V&W&X&Y&Z&| `&",
"| . A&B&o+ *.*+*@*#*$*%*&***=*-*;*>*,*'*)*!*~*{*]*^*J | | * ",
"| | . /*%.(*_*:*<*[*}*|*1*2*3*4*5*6*7*8*9*0*a*b*c*| | | | | ",
"/ | | @ d*e*f*g*h*i*j*k*l*m*n*o*p*q*r*s*t*u*v*w*/ | / | | | "};
