/* XPM */
static char *H7Y6ZhjU[] = {
/* columns rows colors chars-per-pixel */
"100 100 46 1 ",
"  c #030303",
". c #050505",
"X c #0A0A0A",
"o c #0E0E0E",
"O c #121212",
"+ c #171717",
"@ c #191919",
"# c #1C1C1C",
"$ c #232323",
"% c #2F2F2F",
"& c #333333",
"* c #3C3C3C",
"= c #404040",
"- c #454545",
"; c #484848",
": c #4C4C4C",
"> c #5A5A5A",
", c #5E5E5E",
"< c #626262",
"1 c #737373",
"2 c #747474",
"3 c #787878",
"4 c #7F7F7F",
"5 c #808080",
"6 c #848484",
"7 c #898989",
"8 c #8F8F8F",
"9 c #939393",
"0 c #969696",
"q c #9B9B9B",
"w c #9D9D9D",
"e c #AEAEAE",
"r c #B7B7B7",
"t c #B8B8B8",
"y c #BEBEBE",
"u c #C0C0C0",
"i c #C4C4C4",
"p c #D9D9D9",
"a c #DEDEDE",
"s c #E2E2E2",
"d c #E6E6E6",
"f c #ECECEC",
"g c #F5F5F5",
"h c #F7F7F7",
"j c #FAFAFA",
"k c #FFFFFF",
/* pixels */
"kkkkkkkkkkkkkkkkkkkkkkkkkkkkkjkhy,X                              o,yjjkkkkkkkkkkkkkkkkkkkkkkkkkkkkkk",
"kkkkkkkkkkkkkkkkkkkkkkkkkkkkjjj9.                                 .X0jjkkkkkkkkkkkkkkkkkkkkkkkkkkkkk",
"kkkkkkkkkkkkkkkkkkkkkkkkkkkkkh9X                                    o8jkkkkkkkkkkkkkkkkkkkkkkkkkkkkk",
"kkkkkkkkkkkkkkkkkkkkkkkkkjkkh0X. .                                   o8jjkkkkkkkkkkkkkkkkkkkkkkkkkkk",
"kkkkkkkkkkkkkkkkkkkkkkkkkjjj8X.                                 ....  .9jkjkkkkkkkkkkkkkkkkkkkkkkkkk",
"kkkkkkkkkkkkkkkkkkkkkkkkkjj9X..                   ..  ..        . ..   .9hkkkkkkkkkkkkkkkkkkkkkkkkkk",
"kkkkkkkkkkkkkkkkkkkkkkkkkh8o  .   X7yttttyyttttyttttttyttttyyttt7X      X8jkkkkkkkkkkkkkkkkkkkkkkkkk",
"kkkkkkkkkkkkkkkkkkkkkjjkh9o   .  X8jkkkkkkkkkkkkkkkkkkkkkkkkkkkkh8.      o9hjkkkkkkkkkkkkkkkkkkkkkkk",
"kkkkkkkkkkkkkkkkkkkkkjjj9o      o0jkkkkkkkkkkkkkkkkkkkkkkkkkkkkkjj9o      .9jjkkkkkkkkkkkkkkkkkkkkkk",
"kkkkkkkkkkkkkkkkkkkkkjh0 ..    .0jjkkkkkkkkkkkkkkkkkkkkkkkkkkkkkkjj9X     . 9jkkkkkkkkkkkkkkkkkkkkkk",
"kkkkkkkkkkkkkkkkkkjkkh9X  .   X8jjkkkkkkkkkkkkkkkkkkkkkkkkkkkkkkjjkj8X.     o8jjkkkkkkkkkkkkkkkkkkkk",
"kkkkkkkkkkkkkkkkkkjkj9o    . X9jkkkkkkkkkkkkkkkkkkkkkkkkkkkkkkkkkkkjj9X      o0hkjkkkkkkkkkkkkkkkkkk",
"kkkkkkkkkkkkkkkkkkhj8X..    o0jjkkkkkkkkkkkkkkkkkkkkkkkkkkkkkkkkkkkkkh9X      .9jkkkkkkkkkkkkkkkkkkk",
"kkkkkkkkkkkkkkkkkkh9. .    .9jjkkkkkkkkkkkkkkkkkkkkkkkkkkkkkkkkkkkkkjjj0X.     .9hkkkkkkkkkkkkkkkkkk",
"kkkkkkkkkkkkkkkjkh8o.. . .X9jkkkkkkkkkkkkkkkkkkkkkkkkkkkkkkkkkkkkkkkkkkj9.      o9jjkjkkkkkkkkkkkkkk",
"kkkkkkkkkkkkkkjkj9O..    X9hjkkkkkkkkkkkkkkkkkkkkkkkkkkkkkkkkkkkkkkkkkkjh9.      o9hkkkkkkkkkkkkkkkk",
"kkkkkkkkkkkkkkjj8. .    X0jkkkkkkkkkkkkkkkkkkkkkkkkkkkkkkkkkkkkkkkkkkkkkjj0o.     .8jkkkkkkkkkkkkkkk",
"kkkkkkkkkkkkkkj0.      X9jjkkkkkkkkkkkkkkkkkkkkkkkkkkkkkkkkkkkkkkkkkkkkjkjj9X.    . 0jjkkkkkkkkkkkkk",
"kkkkkkkkkkjjjh8o.   ..o9jkkkkkkkkkkkkkkkkkkkkkkkkkkkkkkkkkkkkkkkkkkkkkkkkkkj8X      X9hkkkkkkkkkkkkk",
"kkkkkkkkkkkjj9O .    .8jjkkkkkkkkkkkkkkkkkkkkkkkkkkkkkkkkkkkkkkkkkkkkkkkkkkjh8X.     o9jjkkkkkkkkkkk",
"kkkkkkkkkkkh9.   .  o9jjkkkkkkkkkkkkkkkkkkkkkkkkkkkkkkkkkkkkkkkkkkkkkkkkkkkhjk9o      .7jkkkkkkkkkkk",
"kkkkkkkjjkh9.     ..9kkkkkkkkkkkkkkkkkkkkkkkkkkkkkkkkkkkkkkkkkkkkkkkkkkkkkkkkkj9X      X9jjkjkkkkkkk",
"kkkkkkkjjj9O      o9jkkkkkkkkkkkkkkkkkkkkkkkkkkkkkkkkkkkkkkkkkkkkkkkkkkkkkkkkkjj9.      o9hkkkkkkkkk",
"kkkkkkkjk9o..    X9hjkkkkkkkkkkkkkkkkkkkkkkkkkkkkkkkkkkkkkkkkkkkkkkkkkkkkkkkkkkjh9X      X9jkkkkkkkk",
"kkkkkkkh9.      X9hjkkkkkkkkkkkkkkkkkkkkkkkkkkkkkkkkkkkkkkkkkkkkkkkkkkkkkkkkkkjjjj9o.  .  .8jkkkkkkk",
"kkkkjjh9.. .  .o0jkkkkkkkkkkkkkkkkkkkkkkkkkkkkkkkkkkkkkkkkkkkkkkkkkkkkkkkkkkkkkkkkj9X     .X9jjjkkkk",
"kkkkjj8O .    X9kjkkkkkkkkkkkkkkkkkkkkkkkkkkkkkkkkkkkkkkkkkkkkkkkkkkkkkkkkkkkkkkkkjj9X      o8jkkkkk",
"kkkjh8o .    X8hkkkkkkkkkkkkkkkkkkkkkkkkkkkkkkkkkkkkkkkkkkkkkkkkkkkkkkkkkkkkkkkkkkjjh8X     .o8jkkkk",
"kjjj8X  .. .o9kjjkkkkkkkkkkkkkkkkkkkkkkkkkkkkkkkkkkkkkkkkkkkkkkkkkkkkkkkkkkkkkkkkkkkkj9o.     X8kjkk",
"jjj9X.     X0jkkkkkkkkkkkkkkkkkkkkkkkkkkkkkkkkkkkkkkkkkkkkkkkkkkkkkkkkkkkkkkkkkkkkkkkjj9.      .0hjk",
"jh9oX.    X9kjkkkkkkkkkkkkkkkkkkkkkkkkkkkkkkkkkkkkkkkkkkkkkkkkkkkkkkkkkkkkkkkkkkkkkkkkkh9X.     o8jj",
"j9X      X8hjjkkkkkkkkkkkkkkkkkkkkkkkkkkkkkkkkkkkkkkkkkkkkkkkkkkkkkkkkkkkkkkkkkkkkkkkjjjj8X      X9j",
"u       o9jkkkkkkkkkkkkkkkkkkkkkkkkkkkkkkkkkkkkkkkkkkkkkkkkkkkkkkkkkkkkkkkkkkkkkkkkkkkkkkj9o      .y",
",      X0jkkkkkkkkkkkkkkkkkkkkkkkkkkkkkkkkkkkkkkkkkkkkkkkkkkkkkkkkkkkkkkkkkkkkkkkkkkkkkkkjh9.     .,",
"o     X9jjkkkkkkkkkkkkkkkkkkkkkkkkkkkkkkkkkkkkkkkkkkkkkkkkkkkkkkkkkkkkkkkkkkkkkkkkkkkkkkkkjj9o .   X",
"     .7jkkkkkkkkkkkkkkkkkkkkkkkkkkkkkkkkkkkkkkkkkkkkkkkkkkkkkkkkkkkkkkkkkkkkkkkkkkkkkkkkkjkkj6.     ",
"      tkkkkkkkkkkkkkkkkkkkkkkkkkkkkkkkkkkkkkkkkkkkkkkkkkkkkkkkkkkkkkkkkkkkkkkkkkkkkkkkkkkkkkkt      ",
"      tkkkkkkkkkkkkkkkkkkkkkkkkkkkkkkkkkkkkkkkkkkkkkkkkkkkkkkkkkkkkkkkkkkkkkkkkkkkkkkkkkkkkkkr      ",
"      tkkkkkkkkkkkkkkkkkkkkkkkkkkkkkkkkkkkkkkkkkkkkkkkkkkkkkkkkkkkkkkkkkkkkkkkkkkkkkkkkkkkkkkt      ",
"     .tkkkkkkkkkkkkkkkkkkkkkkkkkkkkkkkkkkkkkkkkkkkkkkkkkkkkkkkkkkkkkkkkkkkkkkkkkkkkkkkkkkkkkky      ",
"      tkkkkkkkkkkkkkkkkkkkkkkkkkkkkkkkkkkkkkkkkkkkkkkkkkkkkkkkkkkkkkkkkkkkkkkkkkkkkkkkkkkkkkkt.     ",
"      tkkkkkkkkkkkkkkkkkkkkkkkkkkkkkkkkkkkkkkkkkkkkkkkkkkkkkkkkkkkkkkkkkkkkkkkkkkkkkkkkkkkkkkt      ",
"      tkkjjkkkjkkkkkkkkkkjjkkkjkkkkkkjjkjkkjkjjkkjkkkjkkkkkkkkkkkjjkkkjkkjkkkjkkkkkkkjjkjkkjky      ",
"     .8yyytttytytyttttytyytttytyttytyyttyytyyyttyttyyttttyttttytyytttytyyttyytttttytyyttyytyt7      ",
"                                                                                                    ",
"                                                                                                    ",
"..                                                                                                 X",
"9X                                                                                              . .0",
"jwo                                                                                              oqj",
"jjq$##.     o@@@#@@@@@#@@@@@##@@@@@@@@@@@#@@@#@@@@@@##@@@@#@@@@@#@@@@@#@@@@@#@@@@@@@@@@o     .@#$qjk",
"kkjssa*     1sssssssssssssssssssssssssssssasssasssssssssssssssssssssssssssssassssssssas1     *assjkk",
"jjkkkj-     4jkkkjkkkkkkkkkkjkkkkkkkkkkkkkkkkkkkkkkkjkkkkkkkkkkkkkkjkkkkkkkkkkkkkkkkkkk3     =jkkkkj",
"jkjjkj;     5kkkkkkkkkkkkkkkkkkkkkkkkkkkkkkkkkkkkkkkkkkkkkkkkkkkkkkkkkkkkkkkkkkkkkkkkjk3     =jjjkjk",
"kkkkkj=     4kkkkkkkkkkjkkkkkjkkkkjkkkkjjkkkkkkkkkkkkkkkkkjjkkkjkkkkkkkjkkkkkjkjkjkkkkj4     -kkkkkk",
"kkkkkj-     4kkkkkkkkjkkjkkkkjkjkkkkjkkkkjkkkkkkkkkkkkkkkkkkkkkkkjjkkjkkkkkkkjkkkkkkkkk4     =jkkkkk",
"kkkkkj=     3jkkkkkkkkjkkkjkkkkkkkjkkkkjjjkkkkkkkkkkkkkkkjkjjkjkkkkkkkkkjkjkkkjjkjkkkkk3     =jkkkkk",
"kkkkkj=     3jkkkkkkjw---=-=-=-==-=--=-->akkkkkkkkkkkkkkkjs,=---=--=--=--=-=--qjjjkkkkk4     =jkkkkk",
"kkkkkj-     4kkkkkjjqo                 ..*pjjkkkkkkkkjkjka=..                 X0kjkkkkj4     -jkkkkk",
"kkkkkj-     3kkkkkjqX                    .*ajjkkkkkkkkkka* .                   X0kkkkkk4     -jkkkkk",
"kkkkkj=     4kkkkkio                      .>kkkkkkkkkkjk> ..                    Oukkkkj4     =kkkkkk",
"kkkkkj-     4kkkkkrX                       -kjkkkkkkkkkj-                       Xtkkkkj4     -jkkkkk",
"kkkkkj-     3kkkkkt.               .       =kkkkkkkkkkkj=                       .tjkkkk4     -jkkkkk",
"kkkkkj=     3kkkkkr.    o345455544554=     -jkkkkkkkkkkk-     =555554455552O    .tjkkkj4     =jkkkkk",
"kkkkkj-     4kkkkkt.    +fjkkkkjkkkkj4     =kkkkkkkkkkkk=    .4kkkkjkkkkkkf@    Xtkjkkk4     -jkkkkk",
"kkkkkj-     3kkkkkr.    +fkjkkkkkkkkk4     =kkkkkkkkkkkj=.    5kkkkkkkkkkkf@     tkkkkj4     -jkkkkk",
"kkkkkj=     3kkkkkt.    +fkkkkkkkkkkk4     -jkkkkkkkkkkk-     5jkkkkkkkkkkf+    .tjkkkk4     =jkkkkk",
"kkkkkk-     4jkkkktX    @fkkkkkkkkkkk4     =kkkkkkkkkkkj=     4kkkkkkkkkkkf@    .tkkkkk3     -jkkkkk",
"kkkkkj=     4kkkkkt.    +fkkkkkkkkkkk4     -jkkkkkkkkkkk=     4jkkkkkkkkkkh@    .tjkkkk4     -jkkkkk",
"kkkkkj=     3kkkkktX    @fkjkkkkkkkkk4     -kkkkkkkkkkkj=.    5jkkkkkkkkkkf@    Xtkkkkk4     -jkkkkk",
"kkkkkj=     4kkkkkt.    +fkkkkkkkkkkj4     =jkkkkkkkkkkk-     5kkkkkkkkkkkh@    .tjkkkk4     =jkkkkk",
"kkkkkk-     4jkkkjtX    @fkkkkkkkkkkk4     -kjkkkkkkkkkk=     5kkkkkkkkkkkf@    Xtkkkkj3     -kkkkkk",
"kkkkkj=     4kkkkkt.    @fkkkkkkkkkkk5     =kkkkkkkkkkkj=     5jkkkkkkkkkkf@    .tkkkkk4     =jkkkkk",
"kkkkkj-     4kkkkktX    @fkkkkkkkkkkk4     -kjkkkkkkkkkk=     4kkkkkkkkkkkf#    .tjkkkk4     -jkkkkk",
"kkkkkj-     3kkkkkt.    @fkkkkkkkkkkk4     -kkkkkkkkkkkj-     4jkkkkkkkkkkf@    .tkkkkk3     =jkkkkk",
"kkkkkj=     3kkkkkt.    @afffffffhfff2.    =jkkkkkkkkkkk=     5jkkkkkkkkkkh@    .tjkkkk4     -jkkkkk",
"kkkkkj-     4kkkkkr.     +@@##@@#@@@@o     -jkkkkkkkkkkk=     5kkkkkkkkkkkf@    .ykjkkk4     -jkkkkk",
"kkkkkj-     3kkkkkr.                       =jkkkkkkkkkkj-     5kkkkkkkkkkkf@.   .ykkkkj3     -jkkkkk",
"kkkkkj=     3kkkkjt.                       -kkkkkkkkkkkk=     5jkkkkkkkkkkf@    .tjkkkk4     =jkkkkk",
"kkkkkj-     4jkkkkd*                      owkjkkkkkkkkkj-     4kkkkkkkkkkkf@    .tkkkkk4     -kkkkkk",
"kkkkkj-     4kkkkkjd%                  . o0hkjkkkkkkkkkk-     4jkkkkkkkkkkh+    .tkjkkk3     =jkkkkk",
"kkkkkj=     3kkkkkjjs*XXX..X..X...X.X..oOwjjjjkkkkkkkkkk=     5jkkkkkkkkkkf@    .ykkkkj3     -jkkkkk",
"kkkkkj-     4kkkkkkjksttttrrtttttrttttttijkjkkkkkkkkkkkj=     5kkkkkkkkkkkh#    .tjkkkk4     =jkkkkk",
"kkkkkj-     4jkkkkkkkkkkkkkkkjkkjkjkkkjkkkkkkkkkkkkkkkkk-     5kkkkkkkkkkkf@    .tkkkkk4     -jkkkkk",
"kkkkkj=     4kkkkkkkkkkkkkjkkkkkkkkkkkkkkkkkkkkkkkkkkkkk=     5jkkkkkkkkkkf@    .tjkkkk3     -jkkkkk",
"kkkkkj-     4kkkkkkkkkkkkkkkkkkkkkkkkkkkkkkkkkkkkkkkkkkj-     4kkkkkkkkkkkf@    Xtkkkkk4     -jkkkkk",
"kkkkkj-     3kkkkkkkkkkkkkkkkkkkkkkkkkkkkkkkkkkkkkkkkkkk-     4jkkkkkkkkkkf@    .tjkkkk4     =jkkkkk",
"kkkkkj=     3kkkkkkkkkkkkkkkkkkkkkkkkkkkkkkkkkkkkkkkkkkk=     5jkkkkkkkkkkh+    .tkkkjk3     -kkkkkk",
"kkkkkj-     4kkkkkkkkkkkkkkkkkkkkkkkkkkkkkkkkkkkkkkkkkkk=     5kkkkkkkkkkkf@    Xtkkkkk4     =jkkkkk",
"kkkkkj-     3kkkkkkkkkkkkkkkkkkkkkkkkkkkkkkkkkkkkkkkkkkj=.    5kkkkkkkkkkkf@.   .tjkkkj4     -jkkkkk",
"kkkkkj=     3kkkkkkkkkkkkkkkkkkkkkkkkkkkkkkkkkkkkkkkkkkk-     5jkkkkkkkkkkf+    .tkkkkk4     =jkkkkk",
"kkkkkk-     4jkkkkkkkkkkkkkkkkkkkkkkkkkkkkkkkkkkkkkkkkkj=     4kkkkkkkkkkkf@    .tjkkkj4     -jkkkkk",
"kkkkkj=     4kkkkkkkkkkkkkkkkkkkkkkkkkkkkkkkkkkkkkkkkkkk=     4jkkkkkkkkkkh@    .ykjkkk4     -jkkkkk",
"kkkkkj=     5kkkkkkkkkkkkkkkkkkkkkkkkkkkkkkkkkkkkkkkkkkj=     5kkkkkkkkkkkh@    Xtkkkkk4     -jkkkkk",
"kkkkkj=     ,ttttytttttyttttttyttttytttttytttttyttttttut&    .<rttttrytrtteO    X7ytttt,     =jkkkkk",
"kkkkkk-     ..    ..    ..     .    ..    ..    ..  ....        ..    ..  ..    .            -kkkkkk",
"kkkkkj=                                                                                      =jkkkkk",
"kkkkjj:..                                                                                   .:kjkkkk",
"kkkkjhi$ .                                                                                  $ukjkkkk",
"kkkkjjju@.                                                                                 +ukjjkkkk",
"kkkkkkkku@                                                                                @ujkkjkkkk"
};
