/* XPM */
static char * c3_xpm[] = {
"25 25 453 2",
"  	c #FEF5FF",
". 	c #FFFBFF",
"+ 	c #FFFCFF",
"@ 	c #FFFDFF",
"# 	c #FEFBFF",
"$ 	c #FEFFFF",
"% 	c #FCFFFF",
"& 	c #F9FFFF",
"* 	c #F8FFFF",
"= 	c #F0F9F6",
"- 	c #F8FEFC",
"; 	c #FFFFFD",
"> 	c #FFFCFC",
", 	c #FFFAFC",
"' 	c #FFF8FF",
") 	c #FFF8FE",
"! 	c #FFFEFC",
"~ 	c #F8FBF2",
"{ 	c #FFFFF1",
"] 	c #FFFFED",
"^ 	c #FFFDFA",
"/ 	c #FFFAFF",
"( 	c #FFFEFF",
"_ 	c #FFFFFF",
": 	c #FCFCFC",
"< 	c #FBFBF9",
"[ 	c #FCFDFF",
"} 	c #FAFEFF",
"| 	c #FBFFFF",
"1 	c #FAFFFC",
"2 	c #FEFFFD",
"3 	c #FFFCFD",
"4 	c #FCFFFD",
"5 	c #FBFDEF",
"6 	c #FFFFF0",
"7 	c #FFFEF8",
"8 	c #FFF8FB",
"9 	c #F5FFF8",
"0 	c #F5FFF4",
"a 	c #F6FFF0",
"b 	c #FBFFF0",
"c 	c #FFFFF3",
"d 	c #FFFFF6",
"e 	c #FFFFFB",
"f 	c #F4F5F7",
"g 	c #F8FCFD",
"h 	c #F9FFFB",
"i 	c #FBFFFB",
"j 	c #F9FEFA",
"k 	c #F9FCF5",
"l 	c #FFFFF4",
"m 	c #FCF7F4",
"n 	c #EFFFF5",
"o 	c #F0FFF2",
"p 	c #F6FFF1",
"q 	c #FCFFF1",
"r 	c #FFFCF9",
"s 	c #FFFDFD",
"t 	c #F8FFFA",
"u 	c #F6FFF9",
"v 	c #F2FDF7",
"w 	c #F7FFFF",
"x 	c #FCFFF6",
"y 	c #FBF8F1",
"z 	c #FCF8F7",
"A 	c #FBF9FC",
"B 	c #FEFEFF",
"C 	c #F4FFFF",
"D 	c #F6FFFF",
"E 	c #FFF7F8",
"F 	c #FFF6F6",
"G 	c #FFF9F8",
"H 	c #FFFEFB",
"I 	c #F6F8F5",
"J 	c #F0F7F0",
"K 	c #F9FFFA",
"L 	c #F9FFF8",
"M 	c #F5FFF3",
"N 	c #F4FEFF",
"O 	c #EEF3EC",
"P 	c #FDFDFF",
"Q 	c #F8FEFE",
"R 	c #FEFDFF",
"S 	c #FFFCFA",
"T 	c #FFFCF8",
"U 	c #F6F5F3",
"V 	c #FBFDFC",
"W 	c #F9FEFF",
"X 	c #F5FDFF",
"Y 	c #F4FDF8",
"Z 	c #F4FFEF",
"` 	c #F6FFF3",
" .	c #F4FFFB",
"..	c #EDEFEA",
"+.	c #FBFBF1",
"@.	c #F9F7EB",
"#.	c #F8F4F1",
"$.	c #FDFBFC",
"%.	c #FDFBEC",
"&.	c #FFFEF2",
"*.	c #FFFCFB",
"=.	c #FDF8FE",
"-.	c #FBFCF7",
";.	c #ECF1EB",
">.	c #F3FBFD",
",.	c #EEF8FF",
"'.	c #E8F3FF",
").	c #E1E8FF",
"!.	c #DBE2F5",
"~.	c #E4E8F3",
"{.	c #EEF3EF",
"].	c #F0F6EC",
"^.	c #F0F6F2",
"/.	c #EBECF0",
"(.	c #FFFCF1",
"_.	c #FFFBF5",
":.	c #FDFCFA",
"<.	c #FEFBEA",
"[.	c #FDF9FA",
"}.	c #FDFBFE",
"|.	c #E5ECE5",
"1.	c #C9D5D1",
"2.	c #93A1A4",
"3.	c #6C7C89",
"4.	c #4D5B76",
"5.	c #485373",
"6.	c #5C6380",
"7.	c #84899D",
"8.	c #A3A3AB",
"9.	c #A1A3A0",
"0.	c #959792",
"a.	c #A7A9A4",
"b.	c #777576",
"c.	c #D3CECA",
"d.	c #FAF4DE",
"e.	c #FFFEE4",
"f.	c #FFFDEA",
"g.	c #FAF4E8",
"h.	c #FFFAF4",
"i.	c #FBFAF8",
"j.	c #F5F5F3",
"k.	c #F8FAF5",
"l.	c #FAFFF8",
"m.	c #AEB8B0",
"n.	c #9FAEAB",
"o.	c #AFBEC5",
"p.	c #485A68",
"q.	c #35455E",
"r.	c #42506D",
"s.	c #5F6885",
"t.	c #9096B0",
"u.	c #9C9DAF",
"v.	c #9E9FA4",
"w.	c #55554D",
"x.	c #747064",
"y.	c #2B2219",
"z.	c #6C644F",
"A.	c #E9E1B2",
"B.	c #FEF7C0",
"C.	c #F7EFC1",
"D.	c #F9F0D1",
"E.	c #FFFBEC",
"F.	c #FBF9FA",
"G.	c #FFFCF5",
"H.	c #F1EFDA",
"I.	c #D9D9B7",
"J.	c #E2E4B5",
"K.	c #AEB07E",
"L.	c #8D915F",
"M.	c #AAB185",
"N.	c #646E49",
"O.	c #404B2D",
"P.	c #46523A",
"Q.	c #3B4733",
"R.	c #363C2E",
"S.	c #40433A",
"T.	c #41423C",
"U.	c #3F3D31",
"V.	c #403C1F",
"W.	c #7D7753",
"X.	c #2A2000",
"Y.	c #453B06",
"Z.	c #D2CB73",
"`.	c #E5DF7F",
" +	c #EDE497",
".+	c #EAE0AB",
"++	c #F9EDD7",
"@+	c #FFFEF4",
"#+	c #F2EDD0",
"$+	c #DFDA9A",
"%+	c #DFDA7C",
"&+	c #E4DE66",
"*+	c #C3BC37",
"=+	c #BEB631",
"-+	c #A9A220",
";+	c #A9A327",
">+	c #A8A62D",
",+	c #ADAE36",
"'+	c #9B9F2E",
")+	c #9D9F3A",
"!+	c #979945",
"~+	c #999857",
"{+	c #8C8A4F",
"]+	c #8B8642",
"^+	c #BBB36A",
"/+	c #A0974A",
"(+	c #C6BE5C",
"_+	c #E2DF54",
":+	c #EEEC5B",
"<+	c #FBF482",
"[+	c #95893F",
"}+	c #D7C9AE",
"|+	c #FFF7DC",
"1+	c #BCB483",
"2+	c #ACA348",
"3+	c #E5DB58",
"4+	c #DFD32F",
"5+	c #D9CA15",
"6+	c #E9D620",
"7+	c #EDDA26",
"8+	c #ECDB2B",
"9+	c #EADD2F",
"0+	c #E1D92C",
"a+	c #E1DC36",
"b+	c #F2EE57",
"c+	c #CEC947",
"d+	c #B4AD43",
"e+	c #958C2D",
"f+	c #E7DF7A",
"g+	c #CAC35B",
"h+	c #9B9229",
"i+	c #F1E96C",
"j+	c #E2E036",
"k+	c #EEEC41",
"l+	c #E5DD58",
"m+	c #655903",
"n+	c #C7B69C",
"o+	c #F1E5B5",
"p+	c #948743",
"q+	c #7A6C03",
"r+	c #B6A71A",
"s+	c #DDC91C",
"t+	c #E9D214",
"u+	c #D6BB00",
"v+	c #E7CB08",
"w+	c #E7CB0F",
"x+	c #F6DE24",
"y+	c #EEDA23",
"z+	c #D5C414",
"A+	c #AA9B00",
"B+	c #796B00",
"C+	c #A49212",
"D+	c #D4C64C",
"E+	c #F5EB6F",
"F+	c #8F870A",
"G+	c #665B00",
"H+	c #E1D751",
"I+	c #DEDB2A",
"J+	c #E3E02F",
"K+	c #D0C841",
"L+	c #6E620E",
"M+	c #D8C6B2",
"N+	c #E3D99E",
"O+	c #92853F",
"P+	c #A99A3D",
"Q+	c #B6A531",
"R+	c #C5B225",
"S+	c #D6BF23",
"T+	c #D9C01B",
"U+	c #E8CD26",
"V+	c #E3CA27",
"W+	c #E7CF2F",
"X+	c #E1CD2E",
"Y+	c #E7D537",
"Z+	c #CFBF22",
"`+	c #BEAE11",
" @	c #DECE31",
".@	c #FAEC57",
"+@	c #E9E055",
"@@	c #7B7100",
"#@	c #675900",
"$@	c #B2A62C",
"%@	c #D9D130",
"&@	c #E2DA39",
"*@	c #C2B83F",
"=@	c #756720",
"-@	c #E5D2C4",
";@	c #C8C38C",
">@	c #403903",
",@	c #433904",
"'@	c #55490F",
")@	c #574805",
"!@	c #68580B",
"~@	c #7B6B13",
"{@	c #897A1B",
"]@	c #A09432",
"^@	c #A39735",
"/@	c #A29632",
"(@	c #B1A537",
"_@	c #ACA21E",
":@	c #D9CF30",
"<@	c #F2EA2F",
"[@	c #E8E22C",
"}@	c #D1C83D",
"|@	c #968920",
"1@	c #887526",
"2@	c #A4903A",
"3@	c #F6E66D",
"4@	c #E4D65B",
"5@	c #7D6D15",
"6@	c #695725",
"7@	c #E8D5CF",
"8@	c #CDCCA0",
"9@	c #66643D",
"0@	c #363114",
"a@	c #2A240C",
"b@	c #1F1800",
"c@	c #382F10",
"d@	c #261F00",
"e@	c #2D2700",
"f@	c #2E2800",
"g@	c #373200",
"h@	c #352F00",
"i@	c #3A3200",
"j@	c #403800",
"k@	c #B4AC2D",
"l@	c #F1ED4C",
"m@	c #E8E347",
"n@	c #D9D164",
"o@	c #84782C",
"p@	c #907F4B",
"q@	c #9F8B56",
"r@	c #8C7C2E",
"s@	c #675A0B",
"t@	c #2F2000",
"u@	c #77684B",
"v@	c #F1E1E1",
"w@	c #E7EACF",
"x@	c #888A72",
"y@	c #343621",
"z@	c #272816",
"A@	c #363523",
"B@	c #34311E",
"C@	c #2F2D16",
"D@	c #363217",
"E@	c #3E3A1D",
"F@	c #484325",
"G@	c #544E2C",
"H@	c #655E34",
"I@	c #807945",
"J@	c #9F9758",
"K@	c #B1A95E",
"L@	c #B4AE64",
"M@	c #9C9662",
"N@	c #69643E",
"O@	c #4B4427",
"P@	c #61573C",
"Q@	c #837A59",
"R@	c #9E9878",
"S@	c #CAC2AF",
"T@	c #F4EBE2",
"U@	c #FFFAFB",
"V@	c #CBCFC0",
"W@	c #919587",
"X@	c #6F7365",
"Y@	c #66685D",
"Z@	c #626459",
"`@	c #5E5E52",
" #	c #5D5B4F",
".#	c #625E52",
"+#	c #5B5847",
"@#	c #56513D",
"##	c #4F4933",
"$#	c #464026",
"%#	c #3B3417",
"&#	c #302A0A",
"*#	c #292205",
"=#	c #433E28",
"-#	c #6A6754",
";#	c #A7A495",
">#	c #DBD7CB",
",#	c #F4F0E7",
"'#	c #FAF5EF",
")#	c #FAF5F2",
"!#	c #FCF6F6",
"~#	c #FFFBFD",
"{#	c #F8FBF0",
"]#	c #FDFFF5",
"^#	c #FDFFF7",
"/#	c #F9FAF4",
"(#	c #FEFFF9",
"_#	c #FFFEF9",
":#	c #FBFBF3",
"<#	c #FDFAF1",
"[#	c #F6F2E7",
"}#	c #F2EFE0",
"|#	c #F5EFDF",
"1#	c #EFEAD6",
"2#	c #E1DBC5",
"3#	c #D6D0B6",
"4#	c #D4CEB6",
"5#	c #EAE7D4",
"6#	c #FBF9EA",
"7#	c #FFFCF7",
"8#	c #FFFEFD",
"9#	c #FFFAFE",
"0#	c #F7FAF3",
"a#	c #FBFDF8",
"b#	c #FCFCFA",
"c#	c #FAFAF8",
"d#	c #FEFDFB",
"e#	c #FEFAF7",
"f#	c #FAF7F2",
"g#	c #FAF7EE",
"h#	c #FFFBF0",
"i#	c #FFFDF1",
"j#	c #FFFAE7",
"k#	c #FFFCE9",
"l#	c #FCFAED",
"m#	c #F8F6EA",
"n#	c #FDFAF5",
"o#	c #FDF9F6",
"p#	c #FCF8F9",
"q#	c #FBF7F8",
"r#	c #F9F9F7",
"s#	c #F6F6F6",
"t#	c #FEFEFE",
"u#	c #FDFCFF",
"v#	c #FFFBF8",
"w#	c #FEFBF6",
"x#	c #FFFEF5",
"y#	c #FFFEF3",
"z#	c #FEFCF0",
"A#	c #FFFDF4",
"B#	c #FAFAF0",
"C#	c #FFFFFA",
"D#	c #FFFDFE",
"E#	c #FAF9FF",
"F#	c #F7F4FB",
"G#	c #FDFBFF",
"H#	c #FBFBFB",
"I#	c #FBFAF5",
"J#	c #FFFEFA",
"K#	c #FEFCFF",
"L#	c #FAF8FB",
"M#	c #FAFAFC",
"N#	c #F7F6FB",
"O#	c #FEFEFC",
"P#	c #FAFAFA",
"Q#	c #FDFDFD",
"R#	c #FCFBFF",
"S#	c #FBFCFF",
"T#	c #FCFCFE",
"  . + @ # $ % & * = - ; > , ' ) ! ~ { ] ^ ) / ' / ",
"( ( _ : < : [ } | | 1 2 ; 3 . / _ 4 5 6 7 8 . ' + ",
"9 0 a b c d e ( f g h i i j [ % | | k l d m @ @ @ ",
"n o p q c l r s 3 _ 4 t h u v * w & 4 x d y z A B ",
"C D % _ > E F G H e I J K L M t w N | O d d ; ( P ",
"Q | R / ' / S T U V W X X Y Z `  .* | ..+.@.#.$.P ",
"%.&.*.=.. ( -.;.>.,.'.).!.~.{.].^.| /._ d (._.H :.",
"<.c ^ [.}.V |.1.2.3.4.5.6.7.8.9.0.a.b.c.d.e.f.g.h.",
"i.; ; j.k.l.m.n.o.p.q.r.s.t.u.v.w.x.y.z.A.B.C.D.E.",
"F.G.H.I.J.K.L.M.N.O.P.Q.R.S.T.U.V.W.X.Y.Z.`. +.+++",
"@+#+$+%+&+*+=+-+;+>+,+'+)+!+~+{+]+^+/+(+_+:+<+[+}+",
"|+1+2+3+4+5+6+7+8+9+0+a+b+c+d+e+f+g+h+i+j+k+l+m+n+",
"o+p+q+r+s+t+u+v+w+x+y+z+A+B+C+D+E+F+G+H+I+J+K+L+M+",
"N+O+P+Q+R+S+T+U+V+W+X+Y+Z+`+ @.@+@@@#@$@%@&@*@=@-@",
";@>@,@'@)@!@~@{@]@^@/@(@_@:@<@[@}@|@1@2@3@4@5@6@7@",
"8@9@0@a@b@c@d@e@f@g@h@i@j@k@l@m@n@o@p@q@r@s@t@u@v@",
"w@x@y@z@A@B@C@D@E@F@G@H@I@J@K@L@M@N@O@P@Q@R@S@T@U@",
"b V@W@X@Y@Z@`@ #.#+#@###$#%#&#*#=#-#;#>#,#'#)#!#~#",
"{#]#^#~ /#(#_#:#<#[#}#|#1#2#3#4#5#6#c &.y 7#8#( 9#",
"k 0#k.a#b#c#i.d#e#f#g#h#i#<.j#k#6 l#m#g#n#o#p#q#9#",
"; r#s#t#_ P u#_ ( ( ; v#w#x#y#z#A#B#:#C#e d#D#( @ ",
": _ _ _ ( ( R E#F#G#@ H#d#; e _#I#_#e J#! ( K#L#( ",
"_ _ _ M#N#u#( ( ( ( ( $ _ _ t#b#; e O#P#t#_ _ R ( ",
"Q#: _ _ ( R R#u#( R#S#$ $ [ $ $ t#_ _ _ B T#u#( ( ",
"; ; ; _ _ _ ( ( $ $ $ $ % % % % $ $ $ $ $ $ $ $ $ "};
