/* XPM */
static char *GqCFIL18[] = {
/* columns rows colors chars-per-pixel */
"59 100 250 2 ",
"   c #154F1B",
".  c #095C11",
"X  c #145D15",
"o  c #1C5B1D",
"O  c #016302",
"+  c #046804",
"@  c #0D630C",
"#  c #066A08",
"$  c #0B6C0C",
"%  c #14620A",
"&  c #116E0E",
"*  c #047504",
"=  c #0A7606",
"-  c #027E02",
";  c #0A7B03",
":  c #06740A",
">  c #0C750C",
",  c #047C0A",
"<  c #0B7B0B",
"1  c #107503",
"2  c #117801",
"3  c #12740C",
"4  c #107B0E",
"5  c #0C6513",
"6  c #0E6E12",
"7  c #0D6F18",
"8  c #136513",
"9  c #186513",
"0  c #136C15",
"q  c #186C15",
"w  c #15671A",
"e  c #1B641B",
"r  c #156C1B",
"t  c #1B6C1B",
"y  c #077713",
"u  c #0D7512",
"i  c #0D7B12",
"p  c #097A17",
"a  c #0E7419",
"s  c #147414",
"d  c #197515",
"f  c #137A14",
"g  c #197914",
"h  c #15741A",
"j  c #1B731B",
"k  c #157D1A",
"l  c #1B791C",
"z  c #266817",
"x  c #226C1E",
"c  c #22731F",
"v  c #245B23",
"b  c #2E5132",
"n  c #176521",
"m  c #1C6421",
"M  c #1E6D23",
"N  c #1D7221",
"B  c #226323",
"V  c #226C23",
"C  c #286A26",
"Z  c #226428",
"A  c #2B662F",
"S  c #236C29",
"D  c #2A6E2C",
"F  c #237424",
"G  c #237C23",
"H  c #2B742B",
"J  c #277828",
"K  c #2C7B2B",
"L  c #347529",
"P  c #2F6D30",
"I  c #326D33",
"U  c #2E7130",
"Y  c #2C7B31",
"T  c #347333",
"R  c #337934",
"E  c #347638",
"W  c #39763B",
"Q  c #367839",
"!  c #3E7B3E",
"~  c #40793B",
"^  c #3D7C42",
"/  c #437646",
"(  c #447B4A",
")  c #576656",
"_  c #4E7C51",
"`  c #69796B",
"'  c #6C7D74",
"]  c #008101",
"[  c #098205",
"{  c #008901",
"}  c #098905",
"|  c #02830A",
" . c #0B810B",
".. c #06880C",
"X. c #11820C",
"o. c #009200",
"O. c #0B8110",
"+. c #098316",
"@. c #138113",
"#. c #178019",
"$. c #1A8319",
"%. c #129314",
"&. c #238024",
"*. c #2E822B",
"=. c #249D26",
"-. c #2F8233",
";. c #328835",
":. c #358538",
">. c #3B833B",
",. c #3C933A",
"<. c #428C3F",
"1. c #41913F",
"2. c #3D8643",
"3. c #468346",
"4. c #438A43",
"5. c #4A844B",
"6. c #488A4B",
"7. c #53864C",
"8. c #489C47",
"9. c #4D944D",
"0. c #4A8A53",
"q. c #538D55",
"w. c #578D58",
"e. c #549454",
"r. c #559957",
"t. c #5C935B",
"y. c #559A59",
"u. c #67925D",
"i. c #5C9662",
"p. c #639763",
"a. c #649B65",
"s. c #6B9A6A",
"d. c #729373",
"f. c #64A361",
"g. c #68A667",
"h. c #7FAF6D",
"j. c #6BBB6C",
"k. c #6AAA70",
"l. c #73A676",
"z. c #74AB73",
"x. c #7CA678",
"c. c #75A978",
"v. c #7AAA7B",
"b. c #7CB574",
"n. c #79B479",
"m. c #79C478",
"M. c #80B67F",
"N. c #85CB78",
"B. c #7CAF86",
"V. c #7CBA85",
"C. c #82AE85",
"Z. c #83B985",
"A. c #8ABA84",
"S. c #8DBA8B",
"D. c #91B88F",
"F. c #91AE91",
"G. c #8EBF91",
"H. c #95BF94",
"J. c #97B79B",
"K. c #93BD99",
"L. c #87C48D",
"P. c #8AC588",
"I. c #92C28F",
"U. c #8FD28F",
"Y. c #8EC590",
"T. c #93C394",
"R. c #99C297",
"E. c #95CC95",
"W. c #96CD9C",
"Q. c #9ACD9C",
"!. c #A0D298",
"~. c #9DC3A4",
"^. c #9ECDA1",
"/. c #9ECCA9",
"(. c #97D2A1",
"). c #A3CCA3",
"_. c #ABCEA5",
"`. c #A5CAAB",
"'. c #ABCEAB",
"]. c #B4C8A8",
"[. c #A5DDA7",
"{. c #ABD3AB",
"}. c #ADD9AC",
"|. c #B7CAB4",
" X c #ACD5B4",
".X c #B2D7B1",
"XX c #B4DBB4",
"oX c #BBD9B4",
"OX c #BAD9BA",
"+X c #ADE9AE",
"@X c #B4E4AA",
"#X c #ACE0B2",
"$X c #B1E0B3",
"%X c #B8E1B6",
"&X c #BCE2BA",
"*X c #B5E8BB",
"=X c #B5F2B7",
"-X c #C5E9BA",
";X c #BBD8C2",
":X c #CACFCD",
">X c #C8DCC0",
",X c #D8D8D8",
"<X c #C2ECC3",
"1X c #CAE8CA",
"2X c #D3E4C9",
"3X c #D3ECCD",
"4X c #CBF5C9",
"5X c #CCF3CC",
"6X c #D4F1CD",
"7X c #D9F7C8",
"8X c #D1F8CE",
"9X c #CEEBD1",
"0X c #D3EAD2",
"qX c #D9E9D8",
"wX c #CDF3D4",
"eX c #CFFBD0",
"rX c #D3F2D2",
"tX c #D8F4D5",
"yX c #D3F9D4",
"uX c #D7FAD7",
"iX c #D4F4DA",
"pX c #DDF2DD",
"aX c #DCFBDC",
"sX c #E4F3DD",
"dX c #E4FDDB",
"fX c #E8FADB",
"gX c #D4EEE3",
"hX c #DCF4E5",
"jX c #DEFDE2",
"kX c #E5EBE5",
"lX c #E3F4E2",
"zX c #E4FDE4",
"xX c #EAFDE5",
"cX c #E6FEEB",
"vX c #EBFEEC",
"bX c #F3FAE7",
"nX c #FBF7EE",
"mX c #F2FEED",
"MX c #FAFDEE",
"NX c #EDFEF3",
"BX c #EFF6F8",
"VX c #EDFFFD",
"CX c #F4F4F4",
"ZX c #FCF6F6",
"AX c #F4FEF4",
"SX c #FBFDF5",
"DX c #F6F5FB",
"FX c #FEF5FE",
"GX c #F5FEFC",
"HX c #FEFEFE",
/* pixels */
"HXHXHXHXHXHXHXGXGXGXGXGXFXHXHXHXHXGXGXNXcXcXjX+Xj.,.&.s O O O 3 $.,.M.@XfXfXfXMXHXHXFXFXFXFXFXDXGXNXAXHXHXHXHXHXHXHXHX",
"HXHXHXHXHXHXHXGXGXHXGXHXHXHXHXFXHXGXGXNXwXZ.W e G d 3 > < < < = = g L z ~ M.-XbXGXHXFXFXFXFXHXHXHXAXHXHXHXHXHXHXHXHXHX",
"HXHXHXHXHXHXHXHXHXHXGXHXHXHXHXHXHXcXiXK.( B S F 0 > * < <  .< , - = 9 c x z <.I.iXNXHXHXFXFXHXHXSXAXSXHXHXHXHXHXHXHXHX",
"HXHXHXHXHXHXHXHXHXGXZXHXGXGXZXAXhX[.a.Z e t 0 u f  .; ] - - - - ,  .4 3 > s 9 V a.{.jXNXHXDXHXSXSXMXHXHXHXHXHXHXHXHXHX",
"HXHXHXHXHXHXHXHXZXSXSXHXAXAXNX0X~.:.F 0 0 s < * ; ] ] ] ] - - ] ] , ; - , , : 6 J >.Y.5XvXSXSXSXHXZXHXHXHXHXHXHXHXHXHX",
"GXGXGXHXHXHXFXHXHXHXHXSXAXcXwXK.( s u > < <  .] { ] ] ] { ] ] ] ] - { { { | , * > s >.P.4XxXSXSXHXSXHXHXHXHXHXHXHXHXHX",
"GXGXGXHXHXHXFXHXHXHXSXAXcX5XT.0.m < ; - ] ] [ ] ] ] ] { ] { ] ] ] ] { ] ] { { - | 4 $ ,.P.4XxXSXHXHXFXHXHXHXHXHXHXHXHX",
"GXGXGXHXHXHXHXFXHXSXSXvXiXW.0.n 7 [ | ] - { { { - { { ] ] ] - ] - | ] { { { - { [ | = 3 1.E.yXAXZXFXHXHXHXHXHXHXHXHXHX",
"VXVXGXHXHXFXFXFXFXSXMXzXXXt.N 5 p ] { ] ] { { { - { ] { ] - - , , , ] { { { - ] { ] ; * h r.#XNXGXFXHXHXHXHXHXHXHXHXHX",
"GXGXGXHXHXHXHXHXHXSXmXrXn.F j p : ] ] ] ] ] ] ] ] ] ] ] ] | , , , , ] ] ] ; - - ] ] - , > N V.iXDXHXFXHXHXHXHXHXHXHXHX",
"AXGXHXHXHXFXFXHXZXSXxX{.6.0 k , * ] ] ] ] ] ] ] ] ] ] , , , , , , , ; ; ; ; ; - - ] - | +.a 0. XVXGXHXHXHXHXHXHXHXHXHX",
"GXGXHXHXHXHXFXHXSXmX3Xn.V $ @., - ] ] ] ] ] ] ] ] - ] , , , , , , , [ ; ; = = < - ] - ] , y M B.gXGXHXHXHXHXHXHXHXHXHX",
"AXHXHXHXHXHXHXHXHXvX.X9.0 > ; - { ] - ] ] - - ] , - | - , , , , * | ; ; ; = 3 < ; ] { ] - * 0 0.;XVXHXHXHXHXHXHXHXHXHX",
"SXSXHXHXHXHXHXHXGXzXG.U d < - - { - ] - - ] - - ] - - - ] - ] ] - ] ] - - < > < ; ] { ] ] , h U J.cXGXHXHXHXHXHXHXHXHX",
"SXHXHXHXHXHXHXHXNXwXc.M f < ] { ] ] ] ] ] - ] - - - ] ] ] ] ] - ] ] { { - , < > , ] ] { { [ g x x.qXGXHXHXHXHXHXHXHXHX",
"SXSXHXHXHXHXHXGXVX;Xi.t s ; ] { { - ] - ] ] - ] ] ] ] ] ] ] { { { { { { ] , , y , - ] { { ; 1 z u.>XSXHXHXHXHXHXHXHXHX",
"SXHXHXHXHXHXHXGXVX`.5.N u - ] { { - ] - ] ] ] - ] ] ] ] { ] { ] { { { { { , y , , ] ] { ] [ 2 z 7.].SXHXHXHXHXHXHXHXHX",
"MXSXHXHXFXFXHXGXcX(.:.y  ., - ; ; - ] - ] - ] ] ] - ] - ] ] ] ] - { { { | , u u = ; ] { { } X.0 3./.NXHXHXHXHXHXHXHXHX",
"SXSXHXFXFXFXHXGXcX(.;.: < [ - [ [ ] - ] ] ] - ] ] ] - ] - - ] ] - ] { { - , u i < - ] { ] [  .0 ^ /.NXHXHXHXHXHXHXHXHX",
"MXSXHXHXFXFXHXGXNXQ.;.# , - - - ] ] ] ] - ] - ] - ] ] ] ] ] ] - - { { { - , > y = ] - { { { < 0 ^ /.NXHXHXHXHXHXHXHXHX",
"SXSXHXFXFXHXHXHXvX^.:.$ * - ] ] ] ] ] - ] ] ] - ] - ] ] ] ] ] - - ] { ] ] , < > , - { ] ] - < q ^ `.AXHXHXHXHXHXHXHXHX",
"HXSXHXHXFXFXFXHXAX{.4.> * - { ] { - ] ] ] - ] ] ] - ] - - - ] ] ] ] { ] - , , ; ] { ] { { - : t 5. XGXHXHXHXHXHXHXHXHX",
"AXSXHXFXFXHXFXHXAX&Xr.s : - { { { - - ] ] ] - ] ] ] - ] ] ] - ] ] ] ] - - - , , ] ] { { { - > M p.;XGXHXHXHXHXHXHXHXHX",
"HXHXHXHXFXFXFXSXSX3Xh.F > - { { { - ] ] - ] - ] - ] ] ] ] - ] ] - ] ] ; ; ; - ] ] { ] { { , s H x.0XAXHXHXHXHXHXHXHXHX",
"GXGXHXHXFXFXFXHXSXdXA.H s * { { { ] - ] ] - ] ] ] ] ] - ] - ] ] ] - ; ; ; - ] ] ] { ] { | < j T S.lXHXHXHXHXHXHXHXHXHX",
"HXHXHXHXHXFXHXHXZXbX_.3.r , | { { ] ] ] ] - ] - ] - ] ] ] - ] - ] - ; ; ; ] - { { ] { ] , y t 5.'.xXAXHXHXHXHXHXHXHXHX",
"HXHXHXHXFXHXFXHXSXmX3Xz.F $ * ] { ] - ] ] ] - ] - ] - ] ] ] - ] ] ; ; ; ; - - { { { | | * 6 S c.0XAXHXHXHXHXHXHXHXHXHX",
"HXHXHXHXHXHXHXHXHXSXxX_.3.0 : | | ] - ] - ] ] ] ] ] - ] - ] ] ] ] - ; ; - - ] ] ] { | , $ w 5.'.vXAXSXHXHXHXHXHXHXHXHX",
"HXHXHXHXHXHXHXHXZXZXAX0Xv.H d < - - - ] ] ] - ] ] ] - ] ] ] - ] - - ; - ] ] ] { ] ] * u N D v.0XAXSXDXHXHXHXHXHXHXHXHX",
"HXHXHXHXHXHXHXHXDXFXDXvXXXq.c 3 * - ] ] ] - ] ] ] - ] ] ] - ] ] ] - ; - - ] ] ] { , : s S w.XXcXAXZXZXHXHXHXHXHXHXHXHX",
"HXHXHXHXGXGXHXHXHXFXFXHXlXT.T z 3 ] - - ] ] - - ] ] - - ] ] - - - - , | ] ] ] ] ] ; s 9 E H.pXAXGXHXHXHXHXHXHXHXHXHXHX",
"HXHXHXHXGXHXHXHXHXFXHXHXAX0XM.L % ] ] ] - ] ] ] - ] ] ] - ] ] ] ] ] , , ] ] { ] ; = @ H S.tXAXHXFXHXHXHXHXHXHXHXHXHXHX",
"HXHXHXGXGXGXGXHXHXFXFXHXSXmX7XM.L ] ] ] ] ] ] - ] - - ] ] - - ] - | , | | ] ] ] - 1 K b.6XmXGXHXHXHXHXHXHXHXHXHXHXHXHX",
"FXHXHXHXGXGXGXHXHXFXFXHXSXbXdX7XN.] - - ] - ] ] ] ] ] - ] ] ] ] ] - , , | ] { ] = 3 N.8XdXmXZXSXHXHXHXHXHXHXHXHXHXHXHX",
"HXHXHXHXHXHXHXHXHXHXHXHXHXHXHXHXSX:X` b o G * * { { { ] ] ] - , , | ] - : K   b ' :XAXHXHXSXSXHXHXHXHXHXHXHXHXHXHXHXHX",
"HXHXHXHXHXHXHXHXHXHXHXHXHXHXHXHXHXDXkXJ.3.8 = } - { { { ] ] - , * | { { < . / J.qXDXHXSXSXSXSXHXHXHXHXHXHXHXHXHXHXHXHX",
"HXHXHXHXHXHXHXHXHXHXHXHXHXHXHXHXHXHXAX0X[.;.= } { { { ] ] ] , | * | { - @.j L.hXNXHXHXHXHXSXHXSXHXGXHXHXHXHXHXHXHXHXHX",
"HXHXHXHXHXHXHXHXHXHXHXHXHXHXHXHXHXHXHXcX+X-.= | { { { ] ] ] - , | [ { - 4 F L.jXGXGXHXHXHXHXSXHXHXHXHXHXHXHXHXHXHXHXHX",
"HXHXHXHXHXHXHXHXHXHXHXHXHXHXHXHXHXHXGXxXn.q > | ] { ] ] ] ] - ] , ] ] [ > 7 i.wXNXHXHXHXHXSXHXHXHXHXHXHXHXHXHXHXHXHXHX",
"HXHXHXHXHXHXHXHXHXHXHXHXHXHXHXHXHXHXNXaXt.9 < ; - ] ] { ] - | , - - - [ # 7 E $XNXGXHXHXHXHXHXHXHXHXHXHXHXHXHXHXHXHXHX",
"HXHXHXHXHXHXHXHXHXHXHXHXHXHXHXHXHXGXNXOXE r > , - ] { ] ] ] ] - - ] [ - * d S Z.jXVXHXHXHXFXHXHXHXHXHXHXHXHXHXHXHXHXHX",
"HXHXHXHXHXHXHXHXHXHXHXHXHXHXHXHXHXNXcXC.o j > [ ] ] ] - ] - - ] ] ] [ - : k n 0.iXcXAXHXHXHXFXHXHXHXHXHXHXHXHXHXHXHXHX",
"HXHXHXHXHXHXHXHXSXHXHXHXHXHXHXHXHXcXiX/ 8 c : ; [ ] ] ] ] - ] - ] ] [ - < u 7 M #XjXAXHXHXFXFXFXHXHXHXHXHXHXHXHXHXHXHX",
"HXHXHXHXHXHXHXHXGXHXHXHXHXHXHXHXHXaX}.o t s < - { ] ] ] , ] - ] ] ] - * , i 7 . n.yXAXSXHXFXFXHXHXHXHXHXHXHXHXHXHXHXHX",
"HXHXHXHXHXHXHXHXHXHXHXHXHXHXHXHXHXrXa.C t > < - ] ] ] ] ] - ] - ] - - - , , i r 2.*XxXSXHXHXFXHXHXHXHXHXHXHXHXHXHXHXHX",
"HXHXHXHXHXHXHXHXZXHXHXHXGXHXHXZXAX+XH G k = [ ] { ] ] , , - - ] ] - - - | , , #.0 W.aXSXHXFXHXFXHXGXHXHXHXHXHXHXHXHXHX",
"HXHXHXHXHXHXHXHXHXHXHXHXDXHXHXHXvXm.. c < * ] ] ] ] ] , - - - - ] - - - { - , O.O f.wXmXHXFXFXFXSXGXGXHXHXHXHXHXHXHXHX",
"HXHXHXHXHXHXHXHXHXHXHXHXHXSXHXHXqX,.s < ; - ] { { ] ] ] - - - ] ] - - - { { ] , u U %XmXHXZXFXHXHXAXGXHXHXHXHXHXHXHXHX",
"HXHXHXHXHXHXHXHXHXHXHXZXHXHXHXCX|.X l = - - ] { { ] ] ] - - - - ] ] ] - ] { - - #.8 S.lXZXZXFXHXHXAXGXHXHXHXHXHXHXHXHX",
"HXHXHXHXHXHXHXHXHXHXHXZXHXHXHXkXM.* g - - { - { ] ] ] - , - - ] ] - | - { { ] -  .8 7.2XSXZXHXHXHXAXGXHXHXHXHXHXHXHXHX",
"HXHXHXHXHXHXHXHXHXHXZXDXHXHXZX,X) = * ] { { ] { { ] ] - , ; - - - ] | { { { { { * j v .XCXZXFXHXHXAXAXHXHXHXHXHXHXHXHX",
"HXFXHXSXSXAXNXVXVXGXHXFXHXMX6Xj.> - ] - - ] ] ] - ] ] ] ] ] - ] ] ] | ] - ; ; - - , # g.6XnXZXFXHXGXHXHXHXHXHXHXHXHXHX",
"HXFXFXHXSXSXGXVXVXDXFXFXZXbX-X8.< ] ] ] ] ] ] - ] - - ] ] - - ] ] | | ] ] ; ; ] ] | : 2.&XbXZXZXHXGXHXHXHXHXHXHXHXHXHX",
"HXHXFXHXSXSXAXVXVXDXFXFXZXsX!.G < - - ] - - ] ] ] ] ] ] ] ] ] ] ] ] | | - ; ; ] { , +.r H.fXSXZXFXGXGXHXHXHXHXHXHXHXHX",
"HXHXHXZXSXSXSXGXGXDXDXFXZX2Xg.d O.] - ] ] ] - ] - - ] ] - - ] ] - ] { - - ; ; ] ] | +.w t.2XnXZXHXHXDXHXHXHXHXHXHXHXHX",
"HXHXHXHXSXSXHXGXHXFXFXZXnXoX<.3  .] ] ] - ] ] ] ] ] ] - ] ] ] - ] ] | - ; ; - ] { | +.a T ].bXSXHXFXHXHXHXHXHXHXHXHXHX",
"GXHXHXSXHXSXSXZXHXHXDXSXsXS.F > | - - - ] ] ] - - ] ] ] - ] ] ] ] - ] - ; - ] ] { | , k M x.qXMXZXHXHXHXHXHXHXHXHXHXHX",
"GXGXHXHXHXSXHXHXHXHXZXCX>Xt.t , | ] ] ] ] - ] ] ] ] - - ] ] - - ] ] - ; - ; - { { | - p r 3.oXxXSXHXHXHXHXHXHXHXHXHXHX",
"GXGXGXHXSXHXHXHXFXHXZXxX).R s , - - - ] ] ] - - ] ] ] ] ] ] ] ] - - ; - ; - - ] { ] - , p H R.sXSXFXHXHXHXHXHXHXHXHXHX",
"GXHXHXHXHXHXHXHXHXHXmX3Xz.M i * - ] ] ] - ] ] ] ] - - ] ] - - ] ] - ; ; - - ] ] ] { ] , : j f.2XSXZXHXHXHXHXHXHXHXHXHX",
"GXGXHXGXHXHXHXFXSXSXxX{.2.h y | ] - ] - - ] ] ] ] ] - ] - ] ] ] ] ] ; ; - ] | ] | ] { | , u >._.xXSXZXHXHXHXHXHXHXHXHX",
"HXGXGXGXHXHXHXHXSXMXtXZ.K i , | ] - ] ] ] ] - - - ] - ] ] ] ] - - ] ; - ] ] | | { ] ] { , , G V.tXZXSXHXHXHXHXHXHXHXHX",
"HXHXHXGXHXHXHXHXSXmX&Xy.a , [ } ] ] ] - ] ] ] ] - ] ] ] ] - ] - ] - [ - ] ] , | ] ] ] { { - a e.oXMXZXHXHXHXHXHXHXHXHX",
"HXHXHXGXGXHXHXSXSXxXE.Y : , ] [ [ - ] ] ] - - ] ] ] ] - ] - ] ] ] ] ; ] ] ] | , , ] ] { { - : Y R.mXSXHXHXHXHXHXHXHXHX",
"HXSXHXGXGXGXHXHXSX6Xz.h , | - - [ - ] ] ] - ] - ] ] ] - ] ] ] - ] ] ] - ] | , , , ; [ { { { : r c.qXSXHXHXHXHXHXHXHXHX",
"HXSXHXGXGXGXHXSXmXoX9.y +.] ] * [ ] ] - ] - ] ] ] - ] ] ] - ] ] ] ] ] { { | | y = ; [ ] ] { | 7 q.OXSXHXHXHXHXHXHXHXHX",
"ZXSXHXGXGXHXHXHXsXS.K y | ] ] - ; ] ] - ] ] - ] ] ] - - ] ] - ] - ] { ] { | , , = 2 ; { { { ..a E F.kXHXHXHXHXHXHXHXHX",
"ZXHXHXGXVXGXHXSX0Xs.r y | ] ] ; = - ] ] - ] ] ] - ] ] ] - ] - ] ] ] ] { { | | , 1 2 ; [ { { ..p Z d.,XHXHXHXHXHXHXHXHX",
"GXHXFXDXHXHXAXcXI.,.3 * { [ - * - - ] - ] ] ] - ] ] ] - ] ] ] - - ] ] ] ] ] - ] ] ] - - - ] ] * ; =.U.CXAXHXHXHXFXFXHX",
"GXHXHXFXHXHXAXwXb.*.4 - - ] - ; ; ] ] ] ] - ] ] - - ] ] ] - ] ] ] ] ] - - ] ] ] ] ] ] ] - ] - * ] %.j.gXAXGXHXFXHXFXHX",
"HXHXHXDXHXHXAX.Xe.c < - - - { [ [ ] - - ] ] - - ] ] - ] ] ] - ] ] - ] ] ] - ] - ] ] | [ { - - - | { 8.;XAXGXHXHXFXFXHX",
"GXHXHXHXHXHXcXD.R & = ; - ] [ [ , ] ] ] - ] ] ] - ] ] ] - ] - ] ] - ] - ] ] ] - - ] ] | | - - - - - -.J.lXGXHXHXHXHXHX",
"HXHXHXHXHXGX1Xa.x & = [ ] ] ] ] - ] ] - ] ] ] - ] ] ] - ] ] ] - - ] ] ] - ] ] ] - - - ] ] - - ] - - j d.9XAXGXHXGXHXHX",
"HXHXCXHXGXvX).( e 3 - ] ] ] ] - - - ] ] - - ] ] ] - ] ] ] - ] ] ] ] - ] - ] - ] ] - - - ] ] ] ] ] - 0 _ `.cXAXHXCXHXHX",
"HXHXCXSXAXtXv.H q u ; - ] ] ] ] - - - ] ] ] - ] ] ] - - ] ] - ] - ] ] ] ] ] ] ] ] ] - - | ] ] ] ] | u I v.wXvXGXGXHXFX",
"FXHXHXAXvX&X7.x s < [ ] ] - { ] ] - ] ] ] - ] ] - ] ] ] - ] - ] ] ] - - ] - - ] ] - ] | { - - ] ] { s Z q.&XvXNXZXHXFX",
"FXHXSXAXxXT.R j f < | ] ] ] ] { { - ] ] ] - ] ] ] ] ] - ] ] ] - - ] ] ] - ] - ] ] ] ] | ] ] - ] [ ] f t R W.jXNXHXHXFX",
"FXFXSXvX8Xf.F s < , - ] ] ] { ] ] - - ] ] - ] - - - ] ] ] - ] ] ] ] - ] ] ] ] ] - ] ] ] ] - ] ] ] ] < h M g.eXxXGXGXHX",
"FXFXSXdX@X1.d > ; - ] - ] ] ] ] ] - ] ] ] ] - ] ] ] - ] ] ] - ] - ] ] ] ] - ] - ] - ] ] ] ] - ] ] ] ; u s 4.=XjXAXGXHX",
"FXHXAXaXn.G 4 ; - - ] ] ] ] ] ] ] ] ] - - ] ] ] ] - ] ] - ] - ] ] ] - - ] ] ] - ] ] ] - - ] ] ] - ] - * s F L.jXAXGXHX",
"FXHXAX4X<.s = - ] - ] - - ] ] ] ] ] ] ] ] ] - - ] ] ] - ] ] ] - ] ] - - ] ] ] - ] ] ] ] ] - ] ] - ] - - : h y.yXvXHXHX",
"HXSXAXQ.x : [ - ] { ] ] - - - ] ] ] ] - ] - ] ] ] - ] - ] - ] ] - ] ] ] ] - ] - ] - ] - ] - ] - ] - - - < s Y }.NXGXHX",
"FXCXvXs.j = { { { ] ] ] - - - ] ] ] ] - ] ] - ] ] ] - ] ] ] - ] - ] - ] ] ] ] ] ] ] ] - ] ] - ] ] - ] { | g S l.cXGXHX",
"HXCXOX! l < ] { ] { ] ] - ; - ] - - ] ] - ] ] ] - ] ] ] - ] - ] ] ] ] - ] - - ] - - ] ] - ] ] ] ] ] ] { [ i N ^ 1XAXHX",
"FXHXF.A l , - ] { { ] - ; - ; ; ] ] ] - ] ] ] - ] - ] - ] ] ] - ] ] ] - ] ] ] ] ] ] ] - ] ] ] ] - ] { ] | f j A ~.GXHX",
"NXcX/ D G i | ] - ] ] - - ] ] ] ] ] ] ] ] ] ] ] ] ] ] ] ] ] ] ] ] ] ] { ] ] ] ] ] ] ] ] ] ] ] ] ] ] { ] - O.l S w.cXNX",
"cX).A M d < , ] ] ] , - , - - - - ] ] ] ] ] - ] ] - ] ] ] ] ] ] ] ] ] ] ] ] ] ] ] ] ] ] ] ] ] ] ] ] ] ] - * y M Q XXvX",
"jXq.m h : - - - ] ] ] ] - , - - - ] ] ] - ] ] - ] - - ] - - ] ] ] ] ] ] ] ] ] ] ] ] ] ] ] - ] - ] ] ] { { * : j M l.xX",
"=XH j s ; - - ] ] ] ] - , * , ; - ] - ] - ] - - - - - - - - - - ] ; ] - - - - ] - ] - ] - - - - - - { { { - * f j 4.yX",
"j.j k < , { { ] ] ] ] | | , - , , , ] , ] - ] - - - - - , ; - ; ; , ; - - ; ; - - - ; - ; ] ; - - - { o.{ { - < c H E.",
"G s i ; - { { { ] { ] ] - , - - - ] - ] , ] , ] ] - - - , ; , , , * - ; ; - ; - ; - ; - ] - - - - ; { o.{ { - * l q e.",
"@ s > * - { { { { { ] - ] ] ] ] ] ] ] ] ] ] ] - - | - , , , ; - ; - - - ] ] ] - - ] - ] - ] - ] ] ] { { { { - * s 9 P ",
"F t d : , { ] { { ] ] ] ] ] ] { ] ] ] ] ] ] ] ] ] ] ] - - ] , ; , - ] ] ] ] ] ] ] ] ] ] ] ] ] - ] ] - { { - ; u d V T ",
"k.E M 0 #.; - ; ] - ] ] ] ] ] ] { ] ] ] ] ] { ] ] ] ] ] ] ] | ] - ] ] { { ] { ] { ] ] ] ] ] ] { ] - - - - < k h q / c.",
"1XB.E M F g > = = ,  .[ ] ] { { { ] ] ] ] { { ] - ] ] { | { ] ] - - - { ] { { ] { { { | - - ] ] ] [ ; > 3 l c x W n.5X",
"VXiX~.w.T K G 0 > g f < ; [ { { { [ ; - - ] ] ] - - ] - - ] - - - - - ] ] { { ] ] | | [ | ; , | |  .f t F F U t.).uXxX",
"BXGXBX9XT.t.Q L F x q s 3 = - ; ; ; = = - ; [ | { ] - - - - - - - - | { | { , - , , : * , y f s u u j I ~ p.R.1XzXmXAX",
"HXGXAXNXvXuX}.M.w.~ T C e t l #.$.d 3 3 > > < < , , , [ , - - ; - ; , , | < < : f k &.G j r t t H :.t.C..XaXvXvXvXSXHX",
"DXHXHXGXvXvXvXxXdXrXXXD.s.5.D e % 9 % % @ & s k #.p , : * * * : = 4 k k s 0 $ @ 8 e X B I 3.a.S.$X8XzXAXAXvXmXHXSXSXCX",
"FXHXHXHXHXmXmXAXSXSXAXAXvXcXuX<X$XP.n.f.9.:.F r $ $ # + O O O + # $ 9 t J >.9.g.n.T.}.-XuXxXmXmXmXmXmXAXSXHXSXSXZXHXHX"
};
